<?xml version="1.0" encoding="UTF-8" standalone="no"?>
<svg
   xmlns:dc="http://purl.org/dc/elements/1.1/"
   xmlns:cc="http://creativecommons.org/ns#"
   xmlns:rdf="http://www.w3.org/1999/02/22-rdf-syntax-ns#"
   xmlns:svg="http://www.w3.org/2000/svg"
   xmlns="http://www.w3.org/2000/svg"
   xmlns:xlink="http://www.w3.org/1999/xlink"
   xmlns:sodipodi="http://sodipodi.sourceforge.net/DTD/sodipodi-0.dtd"
   xmlns:inkscape="http://www.inkscape.org/namespaces/inkscape"
   version="1.1"
   x="0"
   y="0"
   width="795.25"
   height="365.45"
   viewBox="0, 0, 795.25, 365.45"
   id="svg6109"
   inkscape:version="0.91 r13725"
   sodipodi:docname="ducttape.svg">
  <metadata
     id="metadata6126">
    <rdf:RDF>
      <cc:Work
         rdf:about="">
        <dc:format>image/svg+xml</dc:format>
        <dc:type
           rdf:resource="http://purl.org/dc/dcmitype/StillImage" />
      </cc:Work>
    </rdf:RDF>
  </metadata>
  <defs
     id="defs6124">
    <linearGradient
       inkscape:collect="always"
       id="linearGradient6718">
      <stop
         style="stop-color:#e5e3d9;stop-opacity:1;"
         offset="0"
         id="stop6720" />
      <stop
         style="stop-color:#e5e3d9;stop-opacity:0;"
         offset="1"
         id="stop6722" />
    </linearGradient>
    <radialGradient
       inkscape:collect="always"
       xlink:href="#linearGradient6718"
       id="radialGradient6724"
       cx="311.35594"
       cy="283.3766"
       fx="311.35594"
       fy="283.3766"
       r="171.43708"
       gradientTransform="matrix(1,0,0,0.34396596,-1.4705882,189.58116)"
       gradientUnits="userSpaceOnUse" />
  </defs>
  <sodipodi:namedview
     pagecolor="#ffffff"
     bordercolor="#666666"
     borderopacity="1"
     objecttolerance="10"
     gridtolerance="10"
     guidetolerance="10"
     inkscape:pageopacity="0"
     inkscape:pageshadow="2"
     inkscape:window-width="1916"
     inkscape:window-height="1035"
     id="namedview6122"
     showgrid="false"
     inkscape:zoom="0.55233163"
     inkscape:cx="507.88965"
     inkscape:cy="182.72501"
     inkscape:window-x="4"
     inkscape:window-y="1"
     inkscape:window-maximized="1"
     inkscape:current-layer="Layer_1" />
  <g
     id="Layer_1">
    <g
       id="g6726">
      <path
         style="fill:#cfcdc5;fill-opacity:1"
         id="path6112"
         fill="#EAE3BC"
         d="M259.6,359.14 C150.92,359.769 58.92,323.434 13.44,294.423 C-0.992,285.218 4.858,286.027 6.987,283.577 C8.304,282.061 19.32,320.758 8.347,276.625 C7.966,275.092 7.508,245.111 5.531,196.113 L5.326,123.316 L6.929,118.129 C11.622,119.837 6.798,108.972 7.419,106.075 C9.188,97.826 14.569,93.897 19.932,87.657 C46.283,56.999 114.146,22.926 196.072,11.997 C262.915,3.08 338.992,3.161 406.632,12.842 C470.821,22.029 521.012,37.898 555.362,60.479 C572.221,71.562 580.592,89.655 590.394,98.679 L594.085,106.386 L603.005,107.157 C612.786,108.002 648.903,109.677 658.128,108.346 C683.778,104.643 698.766,95.082 707.524,79.35 C714.622,66.601 723.849,57.585 735.642,51.779 C743.671,47.826 754.036,45.411 760.628,46.224 C772.64,47.706 786.588,52.64 790.569,59.453 C792.635,62.989 789.768,69.348 785.028,154.562 C784.247,168.587 782.219,190.196 781.6,203.121 C780.255,231.211 783.14,227.952 780.709,229.253 C777.238,231.111 776.882,229.866 770.976,223.525 C758.118,209.723 742.265,212.83 731.642,225.794 C716.341,244.467 669.237,259.789 611.452,267.863 C596.563,269.943 583.429,271.551 579.417,269.784 C578.325,269.304 569.02,269.388 566.549,273.56 C564.671,276.73 560.53,284.993 555.94,289.435 C506.843,336.938 394.74,358.359 259.6,359.14 z M364.28,183.47 C396.528,180.464 446.964,172.206 450.125,169.551 C450.555,169.19 438.623,159.583 433.793,158.109 C406.274,149.71 372.718,147.959 310.833,147.949 C256.598,147.941 199.003,151.425 135.913,157.423 C131.897,157.804 128.972,165.067 134.269,162.82 C135.41,168.274 151.991,171.768 166.773,174.719 C190.331,179.422 224.453,183.158 251.57,184.824 C273.633,186.18 344.191,185.342 364.28,183.47 z" />
      <path
         style="fill:#bcb8ac;fill-opacity:1"
         id="path6114"
         fill="#F3DFA3"
         d="M250.07,361.21 C174.926,357.415 118.53,346.842 68.07,327.087 C45.068,318.083 24.808,306.196 11.237,293.743 L4.404,287.473 L4.965,281.888 C5.273,278.816 5.608,275.627 5.709,274.802 C5.809,273.977 5.535,237.482 5.1,193.703 C4.313,114.612 4.32,114.101 6.308,113.581 C7.903,113.164 8.456,111.869 9.042,107.181 C13.557,71.041 69.864,36.597 154.072,18.464 C170.853,14.85 176.86,13.792 200.072,10.357 C254.75,2.267 333.072,1.865 394.572,9.357 C438.726,14.737 484.482,25.557 514.572,37.735 C556.196,54.581 582.37,74.932 591.545,97.582 C593.741,103.003 594.753,104.357 597.148,105.077 C598.756,105.56 610.34,106.207 622.891,106.515 C648.519,107.145 662.004,106.028 675.394,102.168 C691.528,97.516 696.974,93.522 704.572,80.771 C711.089,69.835 721.34,58.458 729.722,52.86 C733.042,50.643 739.339,47.698 743.716,46.315 C757.67,41.907 768.181,43.33 781.215,51.392 C791.533,57.773 791.588,57.985 790.002,84.801 C789.303,96.626 788.247,115.976 787.655,127.801 C784.079,199.287 782.224,229.451 781.335,230.551 C779.43,232.914 777.059,231.778 771.208,225.697 C764.835,219.075 757.199,214.826 751.638,214.81 C746.241,214.795 740.669,218.159 732.79,226.189 C725.439,233.681 716.967,239.416 706.033,244.303 C673.175,258.989 626.991,270.08 592.873,271.476 C579.899,272.007 577.316,271.863 575.228,270.495 C572.789,268.897 572.769,268.913 568.951,275.596 C559.112,292.819 532.707,312.5 502.724,324.961 C460.495,342.511 407.358,354.093 345.074,359.325 C328.171,360.745 265.504,361.987 250.074,361.208 z M331.57,353.847 C336.795,353.301 346.02,352.595 352.07,352.279 C358.12,351.963 363.758,351.503 364.598,351.256 C365.438,351.01 368.572,350.605 371.561,350.357 C376.583,349.94 383.967,348.766 400.57,345.745 C404.145,345.095 408.195,344.469 409.57,344.355 C412.616,344.102 418.693,343.02 424.07,341.772 C457.13,334.098 478.077,327.796 495.695,320.221 C498.788,318.891 501.661,317.802 502.079,317.802 C504.044,317.802 525.09,306.437 533.57,300.797 C545.475,292.879 553.652,285.821 558.376,279.385 C565.433,269.772 566.516,266.693 568.608,250.301 C570.21,237.748 572.372,222.407 573.542,215.301 C574.085,212.001 575.893,198.425 577.56,185.131 C579.228,171.838 581.037,158.614 581.581,155.745 C582.125,152.876 582.571,150.062 582.571,149.492 C582.571,148.921 579.029,151.795 574.7,155.878 C570.371,159.961 564.409,165.155 561.45,167.421 C552.748,174.084 535.156,183.439 516.071,191.549 C503.032,197.09 463.821,208.976 452.571,210.798 C446.999,211.7 446.171,211.86 434.571,214.275 C423.457,216.589 417.359,217.674 409.071,218.813 C404.671,219.418 399.762,220.116 398.162,220.364 C391.534,221.393 352.198,224.76 341.071,225.251 C309.914,226.627 300.175,226.709 274.571,225.811 C247.004,224.843 230.044,223.392 202.071,219.606 C181.958,216.884 177.054,216.135 170.571,214.794 C164.727,213.585 164.137,213.471 155.571,211.893 C152.546,211.336 146.696,210.001 142.571,208.926 C138.446,207.851 131.921,206.195 128.071,205.246 C124.221,204.298 116.236,201.785 110.326,199.662 C104.416,197.539 98.962,195.802 98.205,195.802 C94.921,195.802 61.276,180.019 51.571,173.927 C37.958,165.38 25.593,154.502 19.306,145.539 C17.082,142.369 15.04,139.999 14.767,140.272 C14.093,140.947 14.413,226.66 15.219,261.152 L15.869,289 L18.47,291.435 C23.914,296.53 43.407,308.69 54.928,314.178 C69.794,321.258 102.48,332.61 120.071,336.8 C145.05,342.75 150.703,343.954 155.571,344.357 C156.946,344.471 160.771,345.062 164.071,345.669 C179.879,348.576 194.838,350.871 195.257,350.453 C195.513,350.197 197.029,350.363 198.627,350.821 C200.225,351.279 207.278,351.936 214.302,352.28 C221.325,352.624 227.971,353.174 229.07,353.502 C235.44,355.401 314.16,355.668 331.57,353.849 z M603.07,263.658 C612.409,262.669 632.472,259.35 638.57,257.785 C640.495,257.291 644.545,256.358 647.57,255.712 C657.112,253.676 690.567,243.326 695.322,240.94 C696.283,240.458 699.32,239.061 702.07,237.837 C711.746,233.527 723.138,225.857 729.57,219.322 C738.717,210.028 742.84,207.803 750.915,207.803 C758.235,207.803 764.597,210.073 770.597,214.825 C772.665,216.463 774.576,217.803 774.843,217.803 C775.321,217.803 776.112,206.074 777.103,184.303 C777.756,169.945 778.973,147.984 781.722,100.916 L783.964,62.529 L781.016,60.071 C776.462,56.271 766.651,52.081 760.568,51.338 C751.452,50.224 740.839,53.743 730.995,61.143 C722.112,67.819 714.832,76.456 709.482,86.663 C707.664,90.133 704.079,94.847 701.516,97.138 C696.996,101.179 686.654,106.941 681.569,108.251 C680.194,108.605 676.638,109.561 673.666,110.376 C659.65,114.219 629.734,115.766 606.569,113.846 C600.794,113.367 595.902,113.141 595.698,113.344 C595.494,113.546 595.215,117.67 595.077,122.508 C594.846,130.683 591.757,155.797 589.569,167.304 C589.046,170.054 588.356,175.545 588.037,179.508 C587.718,183.47 587.045,188.146 586.542,189.9 C586.039,191.653 585.823,193.405 586.062,193.792 C586.301,194.179 586.059,196.928 585.524,199.9 C584.045,208.106 582.991,215.444 580.151,237.304 C576.516,265.284 576.523,263.108 580.069,263.921 C584.234,264.876 592.458,264.782 603.069,263.658 z M337.07,183.771 C373.061,181.784 398.585,178.626 431.07,172.14 C443.543,169.649 446.668,168.568 445.312,167.212 C443.904,165.805 427.129,160.785 415.987,158.436 C370.223,148.792 277.247,148.183 172.567,156.843 C139.713,159.561 126.567,160.995 126.567,161.863 C126.567,164.198 167.546,173.613 196.046,177.826 C237.177,183.905 292.436,186.235 337.066,183.771 z" />
      <path
         style="fill:#000000;fill-opacity:1"
         id="path6116"
         fill="#313C66"
         d="M251.07,361.21 C181.436,357.689 125.21,347.879 78.57,331.116 C64.462,326.045 43.53,316.257 33.07,309.84 C24.17,304.38 10.637,293.859 7.088,289.642 C4.606,286.692 4.421,285.93 5.08,281.348 C6.142,273.965 6.144,273.05 5.217,190.642 C4.385,116.64 4.408,114.959 6.284,113.956 C7.645,113.227 8.563,110.956 9.451,106.116 C11.925,92.637 20.865,79.373 35.345,67.694 C46.644,58.582 53.324,54.461 70.07,46.274 C113.656,24.967 171.91,11.593 247.07,5.634 C267.952,3.979 335.201,3.98 356.07,5.636 C431.191,11.596 489.37,24.959 533.07,46.286 C556.027,57.491 570.438,67.802 581.11,80.66 C586.383,87.012 592.57,98.076 592.57,101.152 C592.57,102.034 593.721,103.51 595.127,104.431 C597.282,105.843 601.488,106.182 621.924,106.589 C655.423,107.256 670.877,105.266 686.07,98.33 C695.343,94.097 698.778,91.013 703.758,82.45 C714.605,63.8 726.56,52.631 741.683,47.016 C757.289,41.222 774.918,44.527 786.294,55.38 L790.569,59.459 L790.56,66.88 C790.555,70.962 789.458,94.326 788.122,118.801 C786.786,143.276 784.963,177.701 784.07,195.301 C783.178,212.901 782.034,228.313 781.53,229.551 C780.065,233.142 777.719,232.229 771.179,225.526 C761.573,215.681 752.034,212.461 744.27,216.443 C742.51,217.345 736.937,222.025 731.887,226.842 C723.759,234.594 721.174,236.355 709.387,242.174 C679.04,257.154 627.977,270.025 593.047,271.497 C581.226,271.995 578.529,271.831 575.865,270.454 L572.705,268.82 L569.511,274.401 C544.845,317.512 459.191,349.847 344.571,359.314 C327.152,360.753 266.401,361.983 251.071,361.208 z M326.087,354.782 C416.624,349.001 489.977,330.011 535.067,300.678 C546.37,293.326 560.353,279.049 564.33,270.801 C567.226,264.793 567.849,261.427 572.558,226.302 C575.36,205.402 578.818,179.624 580.242,169.017 C581.666,158.41 582.545,149.446 582.195,149.097 C581.846,148.747 578.075,151.829 573.814,155.945 C561.24,168.093 546.25,177.683 525.295,186.988 C430.306,229.167 262.445,237.942 138.715,207.197 C96.86,196.796 63.294,182.643 40.858,165.934 C32.616,159.796 20.112,147.23 16.994,141.951 C15.971,140.219 14.718,138.802 14.21,138.802 C13.648,138.802 13.554,168.034 13.969,213.552 L14.651,288.302 L18.83,292.136 C28.429,300.939 50.85,313.565 71.311,321.688 C114.703,338.915 172.861,350.533 236.561,354.698 C255.014,355.904 307.723,355.954 326.078,354.782 z M622.567,261.317 C652.457,256.156 683.902,246.999 703.253,237.819 C716.103,231.723 721.222,228.192 729.552,219.679 C737.085,211.979 744.695,207.829 751.306,207.813 C756.72,207.8 764.414,210.722 769.431,214.696 C774.376,218.612 775.353,218.591 775.984,214.553 C776.264,212.765 778.209,178.057 780.307,137.424 C783.055,84.199 783.828,62.952 783.072,61.424 C782.494,60.257 778.486,57.503 774.163,55.303 C766.695,51.502 765.852,51.303 757.185,51.307 C748.775,51.311 747.483,51.591 740.566,54.911 C727.924,60.978 719.348,69.405 710.251,84.698 C701.094,100.093 689.995,106.817 666.066,111.468 C659.085,112.825 651.682,113.227 633.066,113.26 C619.866,113.284 605.916,113.078 602.066,112.803 L595.066,112.303 L594.417,123.303 C594.06,129.353 590.157,160.628 585.743,192.803 C576.003,263.807 576.178,262.366 577.101,263.859 C578.345,265.873 604.723,264.398 622.567,261.317 z M360.067,217.86 C434.44,210.848 488.317,198.164 530.067,177.841 C556.889,164.783 575.673,149.66 582.28,135.803 C590.21,119.171 590.473,110.11 583.44,95.803 C566.919,62.195 504.488,33.252 417.57,18.905 C381.349,12.926 356.769,10.848 313.57,10.113 C258.092,9.169 213.5,12.965 164.57,22.797 C87.415,38.3 35.04,64.849 19.42,96.377 C15.201,104.89 15.072,105.436 15.076,114.727 C15.079,122.692 15.489,125.228 17.512,129.803 C25.742,148.407 43.668,163.845 73.779,178.26 C120.255,200.509 184.319,214.288 264.069,219.191 C275.673,219.904 349.196,218.884 360.069,217.859 z M259.567,189.82 C165.646,185.087 90.947,164.899 64.407,137.075 C56.171,128.44 54.18,124.03 54.127,114.303 C54.072,104.208 56.283,99.049 64.239,90.708 C88.739,65.022 151.115,46.474 237.569,39.165 C265.994,36.762 328.926,36.767 357.569,39.175 C429.423,45.214 485.999,59.386 516.719,79.038 C525.627,84.736 535.168,94.293 538.284,100.638 C542.246,108.706 542.246,118.9 538.284,126.969 C535.168,133.313 525.627,142.87 516.719,148.568 C485.544,168.51 425.09,183.368 353.069,188.788 C333.869,190.232 279.634,190.831 259.569,189.82 z M339.067,183.785 C348.417,183.236 362.817,182.117 371.067,181.299 C401.493,178.282 444.454,170.668 445.289,168.145 C446.058,165.822 424.147,159.319 405.567,156.355 C383.719,152.87 364.643,151.647 323.567,151.101 C270.357,150.393 227.052,152.176 159.567,157.853 C131.47,160.217 126.567,160.811 126.567,161.851 C126.567,162.989 133.991,165.271 150.567,169.229 C182.885,176.946 216.786,181.482 262.067,184.148 C274.993,184.909 323.854,184.678 339.067,183.785 z M466.937,163.322 C494.649,154.922 518.2,142.821 527.542,132.181 C542.315,115.355 536.231,97.691 510.362,82.302 C479.993,64.236 422.94,50.436 354.572,44.621 C334.091,42.879 260.213,42.865 240.572,44.599 C176.207,50.283 128.972,60.774 94.862,76.961 C66.183,90.573 54.407,107.176 61.946,123.368 C66.038,132.156 72.964,138.613 86.509,146.27 C96.191,151.743 108.698,156.967 110.473,156.281 C116.911,153.792 206.608,146.83 259.563,144.709 C292.073,143.407 354.278,143.997 374.563,145.8 C393.883,147.517 413.902,150.585 426.813,153.809 C439.623,157.007 452.875,162.568 453.871,165.164 C454.217,166.065 454.713,166.803 454.973,166.803 C455.234,166.803 460.615,165.236 466.931,163.322 z" />
      <path
         style="fill:#c09c7d;fill-opacity:1"
         id="path6118"
         fill="#CACACA"
         d="M454.44,165.9 C453.791,164.661 452.338,163.339 450.482,162.301 C445.953,159.769 435.636,155.978 427.728,153.941 C414.838,150.621 392.302,147.168 373.37,145.61 C361.753,144.655 344.811,144.196 314.268,144.011 C277.769,143.789 259.156,144.293 222.603,146.495 C218.019,146.772 214.01,146.998 213.692,146.999 L213.116,147.001 L213.116,97.258 C213.116,69.899 213.149,47.515 213.19,47.515 C213.23,47.515 216.374,47.171 220.177,46.751 C244.277,44.086 251.489,43.734 286.833,43.499 C317.665,43.294 343.038,43.786 355.55,44.832 C419.756,50.197 476.66,63.628 507.14,80.611 C526.929,91.637 536.56,103.892 535.159,116.264 C534.291,123.926 529.194,131.724 520.912,138.063 C507.253,148.516 484.188,158.632 456.748,166.205 L454.87,166.723 z" />
      <path
         style="fill:#b58e6c;fill-opacity:1"
         id="path6120"
         fill="#BABABA"
         d="M107.31,155.63 C101.127,153.769 89.651,148.223 81.645,143.227 C71.197,136.706 65.001,130.278 61.763,122.602 C60.274,119.072 60.023,117.778 60.03,113.673 C60.035,110.36 60.113,109.704 60.74,107.648 C65.517,91.997 86.474,78.018 123.335,65.897 C146.007,58.441 174.198,52.541 208.056,48.165 C210.795,47.811 213.087,47.573 213.15,47.636 C213.213,47.699 213.178,70.078 213.073,97.368 L212.881,146.985 L211.825,147.118 C211.245,147.192 207.827,147.433 204.231,147.654 C165.387,150.043 116.606,154.406 111.157,155.978 C109.929,156.333 109.52,156.296 107.309,155.631 z" />
      <path
         inkscape:connector-curvature="0"
         id="path6668"
         d="m 391.91176,233.83236 c -35.04742,6.34881 -71.0946,3.07118 -106.4575,4.99816 -31.43064,-6.0381 -62.87814,-0.2757 -94.35643,-2.48649 -30.48456,-7.67448 -58.49516,14.67677 -51.59222,46.66173 -3.15149,29.37623 14.35246,58.26226 46.31369,58.41601 54.02059,10.76478 109.07714,-0.93921 163.59961,0.5311 32.85237,1.21698 65.08915,-5.9138 95.08402,-18.90392 36.33095,-3.44644 49.63391,-39.5691 22.19874,-64.04091 -15.62228,-28.85631 -44.68173,-38.17164 -74.78991,-25.17568 z"
         style="fill:url(#radialGradient6724);fill-opacity:1;fill-rule:evenodd;stroke:none;stroke-width:1px;stroke-linecap:butt;stroke-linejoin:miter;stroke-opacity:1" />
    </g>
  </g>
</svg>
