<svg width="407" height="351" viewBox="0 0 407 351" fill="none" xmlns="http://www.w3.org/2000/svg">
<path d="M203.06 6.37053C204.764 7.70786 207.61 9.94387 207.61 9.94387C207.822 10.1159 229.46 26.9839 252.625 30.4732C275.677 33.9559 302.184 23.3719 302.449 23.2639C302.449 23.2639 306.349 21.6865 308.692 20.7452C310.645 24.5279 341.95 85.2199 341.95 85.2199C341.95 85.2199 343.494 88.2372 344.424 90.0412C343.038 91.5159 340.73 93.9799 340.73 93.9799C335.37 99.6905 322.637 116.981 322.637 133.152C322.637 134.576 322.74 135.993 322.945 137.393C323.981 144.287 326.886 153.369 329.964 162.981C335.53 180.389 342.073 200.856 342.073 221.061C342.073 228.903 341.092 236.711 338.678 244.273C326.258 283.145 295.84 307.496 213.482 344.507C213.482 344.507 212.585 344.905 212.046 345.149H193.972C193.433 344.905 192.536 344.501 192.536 344.501C110.161 307.479 79.7424 283.127 67.3598 244.273C64.9451 236.701 63.9598 228.891 63.9598 221.044C63.9598 200.829 70.5091 180.343 76.0838 162.932C79.1518 153.336 82.0491 144.273 83.0918 137.38C83.3024 135.983 83.3984 134.567 83.3984 133.145C83.3984 116.979 70.6651 99.6905 65.3091 93.9799C65.3091 93.9799 62.9878 91.5105 61.6038 90.0332C63.1771 86.9812 94.2384 26.7799 94.2384 26.7799C94.2384 26.7799 96.1918 23.0052 97.3638 20.7465C99.6958 21.6865 103.596 23.2652 103.596 23.2652C103.858 23.3719 130.321 33.9559 153.409 30.4732C176.526 26.9905 198.27 10.1105 198.489 9.93853L198.482 9.93986C198.482 9.93986 201.349 7.70519 203.06 6.37053V6.37053ZM195.46 5.93986C195.25 6.1012 174.414 22.2052 152.685 25.4812C131.044 28.7439 105.686 18.6772 105.433 18.5759L95.0504 14.3759L89.8424 24.4305L55.5518 90.8945L61.7131 97.4652C66.7158 102.799 80.4758 121.435 78.1824 136.615C77.2038 143.101 74.3651 151.976 71.3571 161.365C63.4038 186.236 53.5038 217.188 62.6371 245.825C75.5398 286.309 106.614 311.408 190.53 349.121L192.925 350.2H213.094L215.49 349.121C299.385 311.424 330.466 286.324 343.4 245.839C352.524 217.212 342.637 186.279 334.685 161.424C331.673 152.009 328.833 143.12 327.856 136.629C325.562 121.435 339.321 102.799 344.322 97.4625L350.464 90.9119L346.353 82.8799L311.012 14.3719L300.616 18.5719C300.361 18.6772 274.973 28.7439 253.358 25.4812C231.601 22.2052 210.852 6.11188 210.645 5.95321L203.072 -0.000141887L195.46 5.93986" fill="#3B393D"/>
<path d="M335.344 88.7369L305.198 30.3009C305.198 30.3009 276.933 41.7982 251.526 37.9649C226.07 34.1316 203.037 15.9302 203.037 15.9302C203.037 15.9302 179.933 34.1316 154.494 37.9649C129.065 41.7982 100.828 30.3009 100.828 30.3009L70.6729 88.7369C70.6729 88.7369 94.2075 113.61 90.4422 138.532C86.6835 163.417 63.1448 206.529 74.4368 241.938C85.3529 276.196 111.302 299.718 195.537 337.578H210.462C294.718 299.718 320.638 276.196 331.58 241.938C342.869 206.529 319.309 163.417 315.576 138.532C311.813 113.61 335.344 88.7369 335.344 88.7369Z" fill="#254B97"/>
<path fill-rule="evenodd" clip-rule="evenodd" d="M406.016 274.345H352.493L368.861 260.428V213.332H406.016L385.942 242.091L406.016 274.345Z" fill="#3A241B"/>
<path fill-rule="evenodd" clip-rule="evenodd" d="M43.1953 187.68H362.819V259.329H43.1953V187.68" fill="#70321A"/>
<path fill-rule="evenodd" clip-rule="evenodd" d="M0 274.345L20.0703 242.091L0 213.332H37.1567V260.428L53.5196 274.345H0Z" fill="#3A241B"/>
<path d="M203.009 287L206.993 299.26H219.879L209.453 306.836L213.435 319.093L203.009 311.516L192.582 319.093L196.565 306.836L186.137 299.26H199.025L203.009 287" fill="white"/>
<path d="M238.855 274.345L241.732 283.199H251.041L243.509 288.672L246.388 297.524L238.855 292.051L231.327 297.524L234.205 288.672L226.672 283.199H235.981L238.855 274.345" fill="white"/>
<path d="M167.164 274.345L170.036 283.199H179.345L171.816 288.672L174.693 297.524L167.164 292.051L159.633 297.524L162.509 288.672L154.976 283.199H164.285L167.164 274.345" fill="white"/>
<path d="M176.449 157.161C176.449 158.054 172.968 156.834 172.405 158.41L167.853 169.592V175.421C167.853 176.82 171.245 175.778 171.245 176.669V177.233H161.461V176.669C161.461 175.778 164.881 176.82 164.881 175.421V169.741L160.24 158.41C159.676 156.834 157 158.054 157 157.161V156.42H166.397V157.161C166.397 158.054 162.74 156.805 163.184 158.41L167.023 167.689L170.797 158.41C171.393 156.834 168.152 158.054 168.152 157.161V156.42H176.449V157.161" fill="white"/>
<path d="M189.743 162.336H189.178C188.288 162.336 189.714 157.905 185.967 157.905C182.102 157.905 181.059 157.758 181.059 159.39V165.728H184.034C185.403 165.728 184.451 162.365 185.343 162.365H186.056V170.63H185.311C184.42 170.63 185.403 167.216 184.034 167.216H181.059V173.725C181.059 175.748 182.28 175.748 182.815 175.748L187.215 175.689C191.052 175.628 189.655 171.288 190.55 171.288H191.112L191.082 177.233H174.846V176.493C174.846 175.601 178.086 176.82 178.086 175.421V158.469C178.086 156.834 174.846 158.025 174.846 157.132V156.42H189.743V162.336" fill="white"/>
<path d="M197.447 168.314H202.027L199.648 161.086L197.447 168.314ZM207.261 175.421C207.797 176.82 210.828 175.601 210.828 176.493V177.233H200.957V176.493C200.957 175.601 204.585 176.82 204.168 175.421L202.503 169.772L197.031 169.741L195.337 175.421C194.92 176.82 198.667 175.601 198.667 176.493V177.233H190.341V176.493C190.341 175.601 193.493 176.82 193.909 175.421L199.471 156.42H200.897L207.261 175.421" fill="white"/>
<path d="M221.924 163.733C221.954 159.481 221.242 157.429 218.356 157.429H215.651V168.314C215.651 168.314 217.523 168.314 218 168.314C220.08 168.314 221.895 167.957 221.924 163.733V163.733ZM223.798 175.301C225.047 176.82 227.308 175.601 227.308 176.493V177.233H221.836L217.346 169.949C216.81 169.293 216.394 169.293 215.651 169.293V175.421C215.651 176.82 219.042 175.601 219.042 176.493V177.233H209.255V176.493C209.255 175.601 212.678 176.82 212.678 175.389V158.944C212.678 156.834 209.255 158.054 209.255 157.161V156.42H219.279C223.383 156.42 225.376 159.661 225.376 163.14C225.376 166.024 223.679 168.641 220.08 169.208L223.798 175.301Z" fill="white"/>
<path d="M236.261 177.592H229.54C229.331 177.592 229.184 177.442 229.184 177.233V169.533H229.927C230.819 169.533 229.155 176.402 236.292 176.402C239.293 176.402 240.573 174.142 240.573 172.06C240.573 169.772 238.729 168.82 234.833 168.82C230.997 168.61 229.54 165.814 229.54 163.257C229.54 158.617 232.721 156 236.379 156H242.208C242.417 156 242.565 156.152 242.565 156.358V164.924H241.823C240.931 164.924 242.536 157.192 236.797 157.192C233.287 157.192 232.336 160.134 232.336 162.305C232.336 164.717 233.943 165.757 238.313 165.757C241.912 165.757 243.369 168.61 243.369 171.198C243.369 175.837 240.244 177.592 236.261 177.592" fill="white"/>
<path d="M205.766 136H134.164C134.984 128.93 137.465 122.289 141.605 116.078C145.785 109.828 153.598 102.465 165.043 93.9883C172.035 88.793 176.508 84.8477 178.461 82.1523C180.414 79.457 181.391 76.8984 181.391 74.4766C181.391 71.8594 180.414 69.6328 178.461 67.7969C176.547 65.9219 174.125 64.9844 171.195 64.9844C168.148 64.9844 165.648 65.9414 163.695 67.8555C161.781 69.7695 160.492 73.1484 159.828 77.9922L135.922 76.0586C136.859 69.3398 138.578 64.1055 141.078 60.3555C143.578 56.5664 147.094 53.6758 151.625 51.6836C156.195 49.6523 162.504 48.6367 170.551 48.6367C178.949 48.6367 185.473 49.5937 190.121 51.5078C194.809 53.4219 198.48 56.3711 201.137 60.3555C203.832 64.3008 205.18 68.7344 205.18 73.6562C205.18 78.8906 203.637 83.8906 200.551 88.6562C197.504 93.4219 191.938 98.6562 183.852 104.359C179.047 107.68 175.824 110.004 174.184 111.332C172.582 112.66 170.688 114.398 168.5 116.547H205.766V136ZM215.961 92.6992C215.961 76.3711 218.891 64.9453 224.75 58.4219C230.648 51.8984 239.613 48.6367 251.645 48.6367C257.426 48.6367 262.172 49.3594 265.883 50.8047C269.594 52.2109 272.621 54.0664 274.965 56.3711C277.309 58.6367 279.145 61.0391 280.473 63.5781C281.84 66.0781 282.934 69.0078 283.754 72.3672C285.355 78.7734 286.156 85.4531 286.156 92.4062C286.156 107.992 283.52 119.398 278.246 126.625C272.973 133.852 263.891 137.465 251 137.465C243.773 137.465 237.934 136.312 233.48 134.008C229.027 131.703 225.375 128.324 222.523 123.871C220.453 120.707 218.832 116.391 217.66 110.922C216.527 105.414 215.961 99.3398 215.961 92.6992ZM239.633 92.7578C239.633 103.695 240.59 111.176 242.504 115.199C244.457 119.184 247.27 121.176 250.941 121.176C253.363 121.176 255.453 120.336 257.211 118.656C259.008 116.938 260.316 114.242 261.137 110.57C261.996 106.898 262.426 101.176 262.426 93.4023C262.426 81.9961 261.449 74.3398 259.496 70.4336C257.582 66.4883 254.691 64.5156 250.824 64.5156C246.879 64.5156 244.027 66.5273 242.27 70.5508C240.512 74.5352 239.633 81.9375 239.633 92.7578Z" fill="white"/>
<path d="M133.092 201.636C133.596 202.02 134.004 202.47 134.316 202.986C134.628 203.502 134.79 203.976 134.802 204.408C134.814 204.84 134.646 205.302 134.298 205.794C133.95 206.286 133.53 206.688 133.038 207C132.546 207.312 132.06 207.468 131.58 207.468C130.236 207.468 128.244 206.532 125.604 204.66C124.14 203.58 122.328 203.976 120.168 205.848C119.184 206.616 118.56 207 118.296 207C118.128 207 117.912 207.216 117.648 207.648C117.384 208.08 117.168 208.608 117 209.232C116.832 209.856 116.706 210.48 116.622 211.104C116.538 211.728 116.514 212.268 116.55 212.724C116.586 213.18 116.712 213.432 116.928 213.48C116.976 213.48 117.12 213.492 117.36 213.516C117.576 213.54 117.924 213.564 118.404 213.588C118.836 213.588 119.232 213.588 119.592 213.588C120.288 213.636 120.828 213.696 121.212 213.768C121.596 213.84 121.92 213.972 122.184 214.164C122.448 214.356 122.724 214.644 123.012 215.028C123.66 215.796 124.224 216.744 124.704 217.872C124.872 218.304 124.95 218.694 124.938 219.042C124.926 219.39 124.872 219.666 124.776 219.87C124.68 220.074 124.482 220.284 124.182 220.5C123.882 220.716 123.63 220.866 123.426 220.95C123.222 221.034 122.904 221.16 122.472 221.328C122.04 221.496 121.74 221.616 121.572 221.688C121.14 221.88 120.546 222.108 119.79 222.372C119.034 222.636 118.488 222.846 118.152 223.002C117.816 223.158 117.378 223.452 116.838 223.884C116.298 224.316 115.752 224.868 115.2 225.54C114.384 226.572 114.024 227.412 114.12 228.06C114.288 229.308 114.912 230.172 115.992 230.652C117.072 231.132 118.338 231.27 119.79 231.066C121.242 230.862 122.754 230.514 124.326 230.022C125.898 229.53 127.284 228.99 128.484 228.402C129.684 227.814 130.536 227.316 131.04 226.908C131.592 226.452 132.078 226.266 132.498 226.35C132.918 226.434 133.14 226.836 133.164 227.556C133.164 227.844 133.044 228.186 132.804 228.582C132.564 228.978 132.318 229.314 132.066 229.59C131.814 229.866 131.478 230.22 131.058 230.652C130.638 231.084 130.392 231.336 130.32 231.408C129.384 232.44 128.106 233.256 126.486 233.856C124.866 234.456 123.132 234.912 121.284 235.224C117.3 235.872 114.108 235.356 111.708 233.676C111.348 233.412 111.036 233.148 110.772 232.884C110.508 232.62 110.298 232.338 110.142 232.038C109.986 231.738 109.854 231.45 109.746 231.174C109.638 230.898 109.578 230.586 109.566 230.238C109.554 229.89 109.554 229.578 109.566 229.302C109.578 229.026 109.626 228.69 109.71 228.294C109.794 227.898 109.866 227.568 109.926 227.304C109.986 227.04 110.076 226.68 110.196 226.224C110.388 225.552 111.084 224.136 112.284 221.976C113.676 219.408 114.6 218.244 115.056 218.484C115.104 218.508 115.14 218.532 115.164 218.556C113.964 217.02 113.04 215.556 112.392 214.164C111.744 212.772 111.516 211.344 111.708 209.88C111.876 208.44 112.296 207.144 112.968 205.992C113.64 204.84 114.6 203.748 115.848 202.716C116.736 201.996 117.69 201.432 118.71 201.024C119.73 200.616 121.296 200.196 123.408 199.764C124.056 199.62 124.464 199.476 124.632 199.332C124.8 199.188 124.872 198.876 124.848 198.396C124.8 198.18 124.806 197.964 124.866 197.748C124.926 197.532 125.022 197.328 125.154 197.136C125.286 196.944 125.448 196.752 125.64 196.56C125.832 196.368 126.036 196.206 126.252 196.074C126.468 195.942 126.684 195.834 126.9 195.75C127.116 195.666 127.332 195.624 127.548 195.624C127.98 195.624 128.76 195.846 129.888 196.29C131.016 196.734 131.58 197.064 131.58 197.28C131.58 197.472 131.268 197.928 130.644 198.648C130.14 199.344 129.942 199.83 130.05 200.106C130.158 200.382 130.668 200.628 131.58 200.844C132.084 200.988 132.588 201.252 133.092 201.636ZM163.905 227.808C164.433 227.376 164.889 227.202 165.273 227.286C165.657 227.37 165.861 227.748 165.885 228.42C165.885 228.636 165.837 228.852 165.741 229.068C165.645 229.284 165.537 229.47 165.417 229.626C165.297 229.782 165.117 229.956 164.877 230.148C164.637 230.34 164.451 230.484 164.319 230.58C164.187 230.676 163.983 230.82 163.707 231.012C163.431 231.204 163.257 231.312 163.185 231.336C162.609 231.744 162.021 232.068 161.421 232.308C161.325 232.356 161.097 232.476 160.737 232.668C160.377 233.076 159.741 233.412 158.829 233.676C158.013 234.036 156.645 234.168 154.725 234.072C152.685 233.952 151.101 233.292 149.973 232.092C149.349 231.444 148.881 231.12 148.569 231.12C148.281 231.12 146.793 232.572 144.105 235.476C141.345 238.356 139.809 239.796 139.497 239.796C139.305 239.796 139.023 239.646 138.651 239.346C138.279 239.046 137.937 238.716 137.625 238.356C137.313 237.996 137.157 237.72 137.157 237.528C137.157 237.264 138.633 235.632 141.585 232.632C144.537 229.608 146.121 227.892 146.337 227.484C146.577 227.028 146.583 226.116 146.355 224.748C146.127 223.38 145.707 222.432 145.095 221.904C144.483 221.376 143.727 221.292 142.827 221.652C141.927 222.012 141.063 222.45 140.235 222.966C139.407 223.482 138.471 224.28 137.427 225.36C136.383 226.44 135.621 227.244 135.141 227.772C134.661 228.3 134.121 228.936 133.521 229.68H133.485C132.861 230.424 132.309 230.712 131.829 230.544C131.637 230.472 131.409 230.28 131.145 229.968C130.905 229.728 130.773 229.524 130.749 229.356C130.725 229.092 130.881 228.768 131.217 228.384C131.457 228.12 131.883 227.622 132.495 226.89C133.107 226.158 133.563 225.624 133.863 225.288C134.163 224.952 134.613 224.46 135.213 223.812C135.813 223.164 136.305 222.672 136.689 222.336C137.073 222 137.565 221.568 138.165 221.04C138.765 220.512 139.317 220.104 139.821 219.816C140.325 219.528 140.895 219.222 141.531 218.898C142.167 218.574 142.809 218.322 143.457 218.142C144.105 217.962 144.777 217.824 145.473 217.728C146.409 217.656 147.063 217.674 147.435 217.782C147.807 217.89 148.245 218.136 148.749 218.52C149.493 219.168 149.985 219.948 150.225 220.86C150.393 221.772 150.693 222.3 151.125 222.444C151.101 222.42 151.587 221.97 152.583 221.094C153.579 220.218 154.635 219.318 155.751 218.394C156.867 217.47 157.533 216.948 157.749 216.828C157.845 216.78 157.971 216.708 158.127 216.612C158.283 216.516 158.415 216.438 158.523 216.378C158.631 216.318 158.757 216.258 158.901 216.198C159.045 216.138 159.177 216.108 159.297 216.108C159.633 216.108 160.041 216.318 160.521 216.738C161.001 217.158 161.241 217.5 161.241 217.764C161.241 218.124 160.713 218.874 159.657 220.014C158.601 221.154 157.917 221.724 157.605 221.724C157.413 221.724 156.999 221.994 156.363 222.534C155.727 223.074 155.073 223.692 154.401 224.388L151.737 227.088L152.169 228.528C152.433 229.488 153.009 230.232 153.897 230.76C154.521 231.144 154.989 231.354 155.301 231.39C155.613 231.426 156.165 231.336 156.957 231.12C157.077 231.096 157.329 231.018 157.713 230.886C158.097 230.754 158.463 230.64 158.811 230.544C159.159 230.448 159.465 230.4 159.729 230.4C161.481 229.488 162.873 228.624 163.905 227.808ZM183.686 228.78C184.214 228.348 184.676 228.174 185.072 228.258C185.468 228.342 185.666 228.72 185.666 229.392C185.666 229.608 185.618 229.824 185.522 230.04C185.426 230.256 185.318 230.442 185.198 230.598C185.078 230.754 184.898 230.934 184.658 231.138C184.418 231.342 184.232 231.492 184.1 231.588C183.968 231.684 183.764 231.822 183.488 232.002C183.212 232.182 183.038 232.296 182.966 232.344C182.414 232.728 181.826 233.04 181.202 233.28C180.746 233.496 179.912 233.724 178.7 233.964C177.488 234.204 176.534 234.324 175.838 234.324C175.262 234.324 174.458 234.126 173.426 233.73C172.394 233.334 171.512 232.968 170.78 232.632C170.048 232.296 169.682 232.164 169.682 232.236C169.682 232.236 169.598 232.236 169.43 232.236C169.262 232.236 169.076 232.224 168.872 232.2C168.668 232.176 168.374 232.29 167.99 232.542C167.606 232.794 167.21 233.184 166.802 233.712C166.202 234.456 165.662 235.47 165.182 236.754C164.702 238.038 164.366 238.848 164.174 239.184C163.934 239.664 163.688 240.216 163.436 240.84C163.184 241.464 162.938 241.992 162.698 242.424C162.458 242.856 162.134 243.312 161.726 243.792C161.366 244.224 161.084 244.488 160.88 244.584C160.676 244.68 160.334 244.632 159.854 244.44C159.278 244.224 158.864 243.666 158.612 242.766C158.36 241.866 158.318 241.08 158.486 240.408C158.582 240 158.864 239.454 159.332 238.77C159.8 238.086 160.094 237.588 160.214 237.276C160.358 236.892 160.514 236.316 160.682 235.548C160.85 234.78 160.994 234.24 161.114 233.928C161.282 233.424 161.594 232.71 162.05 231.786C162.506 230.862 162.818 230.172 162.986 229.716C163.226 229.044 163.4 228.216 163.508 227.232C163.616 226.248 163.748 225.312 163.904 224.424C164.06 223.536 164.342 222.744 164.75 222.048C164.798 221.952 164.87 221.814 164.966 221.634C165.062 221.454 165.152 221.286 165.236 221.13C165.32 220.974 165.422 220.794 165.542 220.59C165.662 220.386 165.776 220.206 165.884 220.05C165.992 219.894 166.112 219.72 166.244 219.528C166.376 219.336 166.508 219.168 166.64 219.024C166.772 218.88 166.91 218.742 167.054 218.61C167.198 218.478 167.348 218.364 167.504 218.268C167.66 218.172 167.81 218.1 167.954 218.052C168.818 217.812 169.442 217.974 169.826 218.538C170.21 219.102 170.186 219.732 169.754 220.428C169.13 221.46 168.998 221.94 169.358 221.868C169.718 221.748 170.306 221.28 171.122 220.464C172.082 219.504 172.982 218.772 173.822 218.268C174.662 217.764 175.634 217.416 176.738 217.224C177.794 217.032 178.346 216.9 178.394 216.828C178.49 216.804 178.586 216.864 178.682 217.008C178.778 217.152 178.874 217.356 178.97 217.62C179.042 217.884 179.114 218.184 179.186 218.52C179.234 218.88 179.282 219.24 179.33 219.6C179.378 219.96 179.402 220.308 179.402 220.644C179.378 223.98 178.898 226.152 177.962 227.16C177.386 227.76 176.942 228.336 176.63 228.888C176.534 229.104 176.42 229.248 176.288 229.32C176.156 229.392 176.048 229.422 175.964 229.41C175.88 229.398 175.754 229.416 175.586 229.464C175.418 229.512 175.274 229.632 175.154 229.824C174.818 230.184 174.458 230.364 174.074 230.364C173.762 230.388 173.36 230.55 172.868 230.85C172.376 231.15 172.13 231.396 172.13 231.588C172.13 231.66 172.256 231.756 172.508 231.876C172.76 231.996 173.066 232.11 173.426 232.218C173.786 232.326 174.158 232.416 174.542 232.488C174.926 232.56 175.25 232.596 175.514 232.596C175.922 232.596 176.414 232.536 176.99 232.416C177.206 232.32 177.47 232.218 177.782 232.11C178.094 232.002 178.382 231.9 178.646 231.804C178.91 231.708 179.126 231.612 179.294 231.516C181.142 230.556 182.606 229.644 183.686 228.78ZM169.466 227.268C169.514 227.724 169.706 228.162 170.042 228.582C170.378 229.002 170.702 229.212 171.014 229.212C171.566 229.212 172.418 228.714 173.57 227.718C174.722 226.722 175.442 225.888 175.73 225.216C176.042 224.448 176.216 223.608 176.252 222.696C176.288 221.784 176.162 221.064 175.874 220.536C175.586 220.032 175.304 219.822 175.028 219.906C174.752 219.99 174.134 220.5 173.174 221.436C172.262 222.252 171.416 223.284 170.636 224.532C169.856 225.78 169.466 226.692 169.466 227.268ZM199.697 229.968C200.225 229.536 200.687 229.362 201.083 229.446C201.479 229.53 201.677 229.908 201.677 230.58C201.701 230.796 201.659 231.012 201.551 231.228C201.443 231.444 201.329 231.63 201.209 231.786C201.089 231.942 200.915 232.116 200.687 232.308C200.459 232.5 200.273 232.644 200.129 232.74C199.985 232.836 199.775 232.974 199.499 233.154C199.223 233.334 199.061 233.448 199.013 233.496C198.437 233.88 197.849 234.204 197.249 234.468C197.201 234.492 197.135 234.522 197.051 234.558C196.967 234.594 196.877 234.63 196.781 234.666C196.685 234.702 196.589 234.738 196.493 234.774C196.397 234.81 196.319 234.84 196.259 234.864L196.169 234.9C194.705 235.5 193.133 235.848 191.453 235.944C189.725 236.04 188.465 235.884 187.673 235.476C187.577 235.428 187.193 235.26 186.521 234.972C185.849 234.684 185.369 234.432 185.081 234.216C184.529 233.856 184.001 233.076 183.497 231.876C182.561 229.716 182.093 227.808 182.093 226.152C182.093 225.144 182.273 223.824 182.633 222.192C182.657 222.096 182.699 221.892 182.759 221.58C182.819 221.268 182.873 221.034 182.921 220.878C182.969 220.722 183.029 220.506 183.101 220.23C183.173 219.954 183.245 219.72 183.317 219.528C183.389 219.336 183.473 219.138 183.569 218.934C183.665 218.73 183.761 218.544 183.857 218.376C184.361 217.68 184.769 217.176 185.081 216.864C186.377 215.52 188.021 214.92 190.013 215.064C192.077 215.232 193.193 215.916 193.361 217.116C193.505 218.052 193.451 219.018 193.199 220.014C192.947 221.01 192.635 221.832 192.263 222.48C191.891 223.128 191.375 223.968 190.715 225C190.055 226.032 189.581 226.824 189.293 227.376C188.237 229.368 187.709 230.556 187.709 230.94C187.709 231.252 188.009 231.696 188.609 232.272C188.993 232.632 189.335 232.848 189.635 232.92C189.935 232.992 190.481 232.956 191.273 232.812C192.521 232.644 193.877 232.344 195.341 231.912C195.893 231.72 196.697 231.396 197.753 230.94C198.809 230.484 199.457 230.16 199.697 229.968ZM185.729 227.412C185.945 227.412 186.545 226.476 187.529 224.604C188.489 222.732 188.969 221.604 188.969 221.22C188.969 220.764 188.723 220.47 188.231 220.338C187.739 220.206 187.349 220.32 187.061 220.68C186.821 220.968 186.581 221.4 186.341 221.976C186.101 222.552 185.909 223.14 185.765 223.74C185.645 224.34 185.537 224.916 185.441 225.468C185.345 226.02 185.321 226.482 185.369 226.854C185.417 227.226 185.537 227.412 185.729 227.412ZM222.024 228.168C222.528 227.712 222.978 227.526 223.374 227.61C223.77 227.694 223.98 228.072 224.004 228.744C224.004 228.936 223.974 229.122 223.914 229.302C223.854 229.482 223.758 229.65 223.626 229.806C223.494 229.962 223.362 230.112 223.23 230.256C223.098 230.4 222.936 230.544 222.744 230.688C222.552 230.832 222.39 230.952 222.258 231.048C222.126 231.144 221.952 231.258 221.736 231.39C221.52 231.522 221.376 231.624 221.304 231.696C220.728 232.08 220.14 232.392 219.54 232.632C219.492 232.656 219.42 232.692 219.324 232.74C219.276 232.86 219.18 232.956 219.036 233.028C218.892 233.1 218.676 233.172 218.388 233.244C217.836 233.556 217.02 233.772 215.94 233.892C214.86 234.012 213.876 234.042 212.988 233.982C212.1 233.922 211.524 233.82 211.26 233.676C211.044 233.532 210.804 233.232 210.54 232.776C210.276 232.32 210.048 231.864 209.856 231.408C209.664 230.952 209.544 230.604 209.496 230.364C209.328 229.668 209.268 228.924 209.316 228.132C209.388 227.316 209.52 226.044 209.712 224.316V223.812C209.712 223.692 209.67 223.602 209.586 223.542C209.502 223.482 209.388 223.44 209.244 223.416C209.1 223.416 208.908 223.416 208.668 223.416C208.38 223.416 208.056 223.368 207.696 223.272C207.336 223.176 206.982 223.086 206.634 223.002C206.286 222.918 205.98 222.876 205.716 222.876C205.74 222.876 205.656 223.254 205.464 224.01C205.272 224.766 205.026 225.564 204.726 226.404C204.426 227.244 204.156 227.736 203.916 227.88C203.052 228.384 202.14 228.744 201.18 228.96C199.932 229.248 200.496 226.524 202.872 220.788C202.92 220.644 203.04 220.344 203.232 219.888C203.424 219.432 203.556 219.114 203.628 218.934C203.7 218.754 203.814 218.466 203.97 218.07C204.126 217.674 204.24 217.35 204.312 217.098C204.384 216.846 204.462 216.54 204.546 216.18C204.63 215.82 204.69 215.478 204.726 215.154C204.762 214.83 204.78 214.5 204.78 214.164C204.78 213.78 205.026 213.096 205.518 212.112C206.01 211.128 206.4 210.528 206.688 210.312C207.072 210.096 207.594 210.018 208.254 210.078C208.914 210.138 209.352 210.288 209.568 210.528C209.856 210.888 209.856 212.28 209.568 214.704C209.352 216.288 209.256 217.308 209.28 217.764C209.304 218.244 209.436 218.628 209.676 218.916C209.964 219.156 210.216 219.27 210.432 219.258C210.648 219.246 211.056 219.06 211.656 218.7C212.544 218.196 213.186 217.956 213.582 217.98C213.978 218.004 214.344 218.28 214.68 218.808C214.944 219.192 215.064 219.54 215.04 219.852C215.016 220.164 214.836 220.764 214.5 221.652C214.02 222.924 213.588 224.376 213.204 226.008C212.916 227.304 212.826 228.264 212.934 228.888C213.042 229.512 213.432 230.244 214.104 231.084C214.392 231.492 214.62 231.72 214.788 231.768C214.86 231.792 214.986 231.774 215.166 231.714C215.346 231.654 215.538 231.582 215.742 231.498C215.946 231.414 216.084 231.36 216.156 231.336C216.9 231.144 217.392 230.988 217.632 230.868C219.48 229.908 220.944 229.008 222.024 228.168ZM229.983 212.148C229.311 212.316 228.651 212.076 228.003 211.428C227.547 210.972 227.307 210.672 227.283 210.528C227.259 210.384 227.427 210.168 227.787 209.88C228.291 209.52 228.933 209.34 229.713 209.34C230.493 209.34 231.027 209.52 231.315 209.88C231.627 210.288 231.645 210.732 231.369 211.212C231.093 211.692 230.631 212.004 229.983 212.148ZM236.391 229.392C236.559 229.68 236.565 229.956 236.409 230.22C236.253 230.484 235.815 230.916 235.095 231.516C233.967 232.476 232.635 233.352 231.099 234.144C229.947 234.72 228.753 234.954 227.517 234.846C226.281 234.738 225.117 234.384 224.025 233.784C222.933 233.184 221.991 232.404 221.199 231.444C220.071 230.1 219.735 228.312 220.191 226.08C220.239 225.912 220.335 225.336 220.479 224.352C220.623 223.368 220.773 222.498 220.929 221.742C221.085 220.986 221.259 220.488 221.451 220.248C221.667 219.984 222.021 219.804 222.513 219.708C223.005 219.612 223.515 219.606 224.043 219.69C224.571 219.774 225.075 219.93 225.555 220.158C226.035 220.386 226.365 220.692 226.545 221.076C226.725 221.46 226.719 221.892 226.527 222.372C225.975 223.524 225.699 224.328 225.699 224.784C225.699 225.216 225.459 225.756 224.979 226.404C224.571 226.884 224.325 227.466 224.241 228.15C224.157 228.834 224.271 229.284 224.583 229.5C224.847 229.596 224.979 229.896 224.979 230.4C224.979 230.832 225.291 231.324 225.915 231.876C226.347 232.284 226.689 232.512 226.941 232.56C227.193 232.608 227.655 232.548 228.327 232.38C229.311 232.02 230.571 231.288 232.107 230.184C233.331 229.296 234.261 228.792 234.897 228.672C235.533 228.552 236.031 228.792 236.391 229.392ZM250.322 229.968C250.85 229.536 251.312 229.362 251.708 229.446C252.104 229.53 252.302 229.908 252.302 230.58C252.326 230.796 252.284 231.012 252.176 231.228C252.068 231.444 251.954 231.63 251.834 231.786C251.714 231.942 251.54 232.116 251.312 232.308C251.084 232.5 250.898 232.644 250.754 232.74C250.61 232.836 250.4 232.974 250.124 233.154C249.848 233.334 249.686 233.448 249.638 233.496C249.062 233.88 248.474 234.204 247.874 234.468C247.826 234.492 247.76 234.522 247.676 234.558C247.592 234.594 247.502 234.63 247.406 234.666C247.31 234.702 247.214 234.738 247.118 234.774C247.022 234.81 246.944 234.84 246.884 234.864L246.794 234.9C245.33 235.5 243.758 235.848 242.078 235.944C240.35 236.04 239.09 235.884 238.298 235.476C238.202 235.428 237.818 235.26 237.146 234.972C236.474 234.684 235.994 234.432 235.706 234.216C235.154 233.856 234.626 233.076 234.122 231.876C233.186 229.716 232.718 227.808 232.718 226.152C232.718 225.144 232.898 223.824 233.258 222.192C233.282 222.096 233.324 221.892 233.384 221.58C233.444 221.268 233.498 221.034 233.546 220.878C233.594 220.722 233.654 220.506 233.726 220.23C233.798 219.954 233.87 219.72 233.942 219.528C234.014 219.336 234.098 219.138 234.194 218.934C234.29 218.73 234.386 218.544 234.482 218.376C234.986 217.68 235.394 217.176 235.706 216.864C237.002 215.52 238.646 214.92 240.638 215.064C242.702 215.232 243.818 215.916 243.986 217.116C244.13 218.052 244.076 219.018 243.824 220.014C243.572 221.01 243.26 221.832 242.888 222.48C242.516 223.128 242 223.968 241.34 225C240.68 226.032 240.206 226.824 239.918 227.376C238.862 229.368 238.334 230.556 238.334 230.94C238.334 231.252 238.634 231.696 239.234 232.272C239.618 232.632 239.96 232.848 240.26 232.92C240.56 232.992 241.106 232.956 241.898 232.812C243.146 232.644 244.502 232.344 245.966 231.912C246.518 231.72 247.322 231.396 248.378 230.94C249.434 230.484 250.082 230.16 250.322 229.968ZM236.354 227.412C236.57 227.412 237.17 226.476 238.154 224.604C239.114 222.732 239.594 221.604 239.594 221.22C239.594 220.764 239.348 220.47 238.856 220.338C238.364 220.206 237.974 220.32 237.686 220.68C237.446 220.968 237.206 221.4 236.966 221.976C236.726 222.552 236.534 223.14 236.39 223.74C236.27 224.34 236.162 224.916 236.066 225.468C235.97 226.02 235.946 226.482 235.994 226.854C236.042 227.226 236.162 227.412 236.354 227.412ZM248.133 229.032C248.517 228.384 249.261 226.902 250.365 224.586C251.469 222.27 252.417 220.644 253.209 219.708C253.329 219.54 253.461 219.384 253.605 219.24C253.893 218.928 254.289 218.694 254.793 218.538C255.297 218.382 255.753 218.4 256.161 218.592C256.305 218.688 256.407 218.94 256.467 219.348C256.527 219.756 256.617 219.972 256.737 219.996C256.905 220.02 257.313 219.804 257.961 219.348C259.065 218.58 260.805 217.944 263.181 217.44C264.141 217.2 264.765 217.104 265.053 217.152C265.341 217.2 265.701 217.416 266.133 217.8C266.685 218.352 266.973 219.024 266.997 219.816C267.021 220.608 266.757 221.352 266.205 222.048C265.797 222.648 265.269 223.836 264.621 225.612C263.973 227.388 263.649 228.612 263.649 229.284C263.649 229.764 263.811 230.286 264.135 230.85C264.459 231.414 264.855 231.882 265.323 232.254C265.791 232.626 266.217 232.812 266.601 232.812C267.177 232.812 268.389 232.332 270.237 231.372C272.085 230.412 273.537 229.5 274.593 228.636C275.385 228.036 275.949 227.754 276.285 227.79C276.621 227.826 276.789 228.18 276.789 228.852C276.789 229.14 276.663 229.47 276.411 229.842C276.159 230.214 275.829 230.604 275.421 231.012C274.989 231.396 274.485 231.786 273.909 232.182C273.333 232.578 272.745 232.896 272.145 233.136C270.561 233.88 269.421 234.42 268.725 234.756C267.525 235.308 266.463 235.464 265.539 235.224C264.615 234.984 263.529 234.24 262.281 232.992C261.273 231.984 260.679 231.294 260.499 230.922C260.319 230.55 260.229 229.836 260.229 228.78C260.229 227.244 260.505 225.648 261.057 223.992C261.537 222.336 261.729 221.436 261.633 221.292C261.489 221.148 260.517 221.922 258.717 223.614C256.917 225.306 255.153 227.094 253.425 228.978C251.697 230.862 250.833 231.948 250.833 232.236C250.833 232.476 250.683 232.74 250.383 233.028C250.083 233.316 249.717 233.55 249.285 233.73C248.853 233.91 248.469 233.964 248.133 233.892C247.581 233.82 247.197 233.388 246.981 232.596C246.813 232.068 246.789 231.6 246.909 231.192C247.029 230.784 247.437 230.064 248.133 229.032ZM294.291 229.572C294.819 229.14 295.275 228.96 295.659 229.032C296.043 229.104 296.247 229.488 296.271 230.184C296.271 230.352 296.241 230.526 296.181 230.706C296.121 230.886 296.025 231.06 295.893 231.228C295.761 231.396 295.635 231.546 295.515 231.678C295.395 231.81 295.233 231.954 295.029 232.11C294.825 232.266 294.657 232.386 294.525 232.47C294.393 232.554 294.219 232.668 294.003 232.812C293.787 232.956 293.643 233.052 293.571 233.1C292.995 233.484 292.407 233.808 291.807 234.072C291.423 234.24 290.775 234.474 289.863 234.774C288.951 235.074 287.787 235.41 286.371 235.782C284.955 236.154 283.575 236.298 282.231 236.214C280.887 236.13 279.879 235.752 279.207 235.08C278.943 234.816 278.643 234.432 278.307 233.928C277.971 233.424 277.677 232.932 277.425 232.452C277.173 231.972 276.987 231.576 276.867 231.264C276.555 230.424 276.411 229.26 276.435 227.772C276.651 223.236 278.595 219.348 282.267 216.108C283.131 215.388 283.767 214.95 284.175 214.794C284.583 214.638 285.351 214.56 286.479 214.56C288.543 214.56 290.121 215.016 291.213 215.928C292.305 216.84 292.719 218.04 292.455 219.528C292.287 220.272 292.125 220.734 291.969 220.914C291.813 221.094 291.459 221.22 290.907 221.292C290.163 221.364 289.461 221.214 288.801 220.842C288.141 220.47 287.883 220.068 288.027 219.636C288.171 219.276 288.093 218.91 287.793 218.538C287.493 218.166 287.127 217.98 286.695 217.98C285.903 217.98 284.697 218.814 283.077 220.482C281.457 222.15 280.647 223.404 280.647 224.244C280.647 224.556 280.479 225.012 280.143 225.612C279.783 226.14 279.615 227.052 279.639 228.348C279.687 229.62 279.891 230.52 280.251 231.048C280.827 231.912 281.793 232.506 283.149 232.83C284.505 233.154 285.747 233.208 286.875 232.992C287.475 232.896 288.123 232.704 288.819 232.416C290.091 231.912 291.255 231.252 292.311 230.436C293.127 229.836 293.691 229.608 294.003 229.752C294.027 229.752 294.069 229.728 294.129 229.68C294.189 229.632 294.243 229.596 294.291 229.572ZM311.529 229.968C312.057 229.536 312.519 229.362 312.915 229.446C313.311 229.53 313.509 229.908 313.509 230.58C313.533 230.796 313.491 231.012 313.383 231.228C313.275 231.444 313.161 231.63 313.041 231.786C312.921 231.942 312.747 232.116 312.519 232.308C312.291 232.5 312.105 232.644 311.961 232.74C311.817 232.836 311.607 232.974 311.331 233.154C311.055 233.334 310.893 233.448 310.845 233.496C310.269 233.88 309.681 234.204 309.081 234.468C309.033 234.492 308.967 234.522 308.883 234.558C308.799 234.594 308.709 234.63 308.613 234.666C308.517 234.702 308.421 234.738 308.325 234.774C308.229 234.81 308.151 234.84 308.091 234.864L308.001 234.9C306.537 235.5 304.965 235.848 303.285 235.944C301.557 236.04 300.297 235.884 299.505 235.476C299.409 235.428 299.025 235.26 298.353 234.972C297.681 234.684 297.201 234.432 296.913 234.216C296.361 233.856 295.833 233.076 295.329 231.876C294.393 229.716 293.925 227.808 293.925 226.152C293.925 225.144 294.105 223.824 294.465 222.192C294.489 222.096 294.531 221.892 294.591 221.58C294.651 221.268 294.705 221.034 294.753 220.878C294.801 220.722 294.861 220.506 294.933 220.23C295.005 219.954 295.077 219.72 295.149 219.528C295.221 219.336 295.305 219.138 295.401 218.934C295.497 218.73 295.593 218.544 295.689 218.376C296.193 217.68 296.601 217.176 296.913 216.864C298.209 215.52 299.853 214.92 301.845 215.064C303.909 215.232 305.025 215.916 305.193 217.116C305.337 218.052 305.283 219.018 305.031 220.014C304.779 221.01 304.467 221.832 304.095 222.48C303.723 223.128 303.207 223.968 302.547 225C301.887 226.032 301.413 226.824 301.125 227.376C300.069 229.368 299.541 230.556 299.541 230.94C299.541 231.252 299.841 231.696 300.441 232.272C300.825 232.632 301.167 232.848 301.467 232.92C301.767 232.992 302.313 232.956 303.105 232.812C304.353 232.644 305.709 232.344 307.173 231.912C307.725 231.72 308.529 231.396 309.585 230.94C310.641 230.484 311.289 230.16 311.529 229.968ZM297.561 227.412C297.777 227.412 298.377 226.476 299.361 224.604C300.321 222.732 300.801 221.604 300.801 221.22C300.801 220.764 300.555 220.47 300.063 220.338C299.571 220.206 299.181 220.32 298.893 220.68C298.653 220.968 298.413 221.4 298.173 221.976C297.933 222.552 297.741 223.14 297.597 223.74C297.477 224.34 297.369 224.916 297.273 225.468C297.177 226.02 297.153 226.482 297.201 226.854C297.249 227.226 297.369 227.412 297.561 227.412Z" fill="white"/>
</svg>
