<svg width="466" height="495" viewBox="0 0 466 495" fill="none" xmlns="http://www.w3.org/2000/svg">
<path d="M53.6212 272.278C53.6212 272.278 54.8341 268.003 54.8874 266.988C54.9409 265.973 54.9409 259.511 54.7806 253.583C54.6209 247.655 55.8491 239.75 56.0619 237.775C56.2759 235.798 55.8003 224.97 55.8003 224.344C55.8003 223.718 55.6217 223.457 55.1744 223.457C54.7271 223.457 50.6212 225.418 49.593 225.776C48.4278 229.042 44.019 234.285 43.3928 234.598C42.6662 234.633 41.4766 234.409 40.8126 233.872L38.6986 232.164C38.6986 232.164 38.6543 234.401 38.4748 235.295C38.2962 236.19 37.4912 239.627 37.4469 239.895C37.402 240.163 38.922 248.878 39.3244 250.623C39.7274 252.367 40.7552 253.075 41.24 253.791C41.7239 254.507 41.4638 255.401 41.8658 256.206C42.2682 257.012 42.6702 257.906 42.7151 258.57C42.7603 259.233 42.3131 260.403 42.1339 260.985C41.9553 261.566 41.4598 263.854 41.4598 263.854L53.6212 272.278ZM120.564 295.161C120.564 295.161 120.283 300.278 120.364 300.918C120.443 301.558 120.763 304.116 120.683 304.997C120.603 305.876 119.843 308.554 119.724 309.233C119.604 309.913 119.564 310.633 119.564 310.633C119.564 310.633 119.884 309.393 120.204 308.674C120.524 307.954 121.084 306.636 121.603 306.076C122.122 305.517 122.402 305.396 122.682 305.036C122.962 304.677 122.602 301.798 122.482 300.878C122.362 299.958 120.564 295.161 120.564 295.161ZM119.324 313.67L118.805 315.35C118.805 315.35 118.765 315.43 118.405 315.669C118.046 315.909 118.261 317.266 118.261 317.266L119.267 317.973C119.267 317.973 119.364 317.309 119.404 316.87C119.445 316.429 119.285 314.35 119.324 313.67ZM69.6217 338.02C61.7745 327.424 57.8069 316.493 56.3772 311.951C55.937 310.607 55.7407 309.863 55.7407 309.863C55.7407 309.863 53.7259 310.039 53.1947 309.951C52.6644 309.863 52.6452 309.66 52.6452 309.66C52.6452 309.66 52.4321 306.349 52.752 305.174C53.0726 303.999 50.6166 291.502 50.1902 290.007C49.7624 288.512 49.8693 287.656 49.8693 286.802C49.8693 285.947 52.1323 278.963 52.1323 278.963L39.2679 269.946C39.2679 269.946 37.0454 271.14 35.8534 270.869C34.6607 270.597 33.8446 268.808 33.8446 268.808C33.8446 268.808 31.9473 269.242 31.2422 268.645C30.5379 268.048 30.1584 266.638 30.1584 266.638C30.1584 266.638 28.4779 266.747 27.7186 266.096C26.96 265.446 26.4691 264.086 26.4691 264.086C26.4691 264.086 25.222 264.574 24.6258 264.412C24.0294 264.249 22.7828 262.785 22.7828 262.134C22.7828 261.484 24.0834 257.901 24.1918 257.522C24.3002 257.142 24.0294 251.936 24.0834 251.611C24.1383 251.285 25.3304 249.221 25.9263 248.516C26.5235 247.812 26.4889 246.543 26.4889 246.543C26.4889 246.543 24.5092 238.097 23.8901 236.461C23.2713 234.825 23.024 230.244 23.024 230.244C23.024 230.244 22.405 225.539 22.9004 223.903C23.3949 222.267 27.5065 216.943 27.5065 216.943C27.5065 216.943 26.4889 215.953 27.355 215.086C28.2214 214.219 38.5474 207.012 38.5474 207.012C38.5474 207.012 54.3172 193.958 55.4583 192.473C56.5986 190.987 61.3985 188.855 64.6426 188.608C67.8868 188.36 79.7939 184.523 82.7918 184.027C85.7873 183.532 86.5884 184.041 86.5884 184.041C87.4637 183.389 88.2647 182.993 88.9931 182.857L89.8981 183.258C91.887 183.231 93.8721 183.465 95.3327 182.776L96.7684 179.749C96.6863 179.627 96.5847 179.498 96.469 179.359L95.9947 177.358L95.7797 178.509C95.6484 178.334 95.5164 178.145 95.3867 177.937L95.0819 175.717L94.9443 177.117C94.7458 176.68 94.57 176.178 94.4441 175.594C94.4402 174.181 95.9485 167.842 95.9485 167.842C95.9485 167.842 96.6754 166.61 97.5147 165.883L97.2498 164.464C95.0053 162.924 92.9163 161.004 92.8061 159.439C92.5826 156.239 94.2042 155.914 94.2042 155.914L94.8396 153.304C94.8396 153.304 95.2624 152.508 95.904 152.678C98.7667 143.884 102.38 139.042 107.928 137.755C113.474 136.468 116.84 138.65 119.413 140.161C119.413 140.161 127.98 143.473 131.96 150.029C134.58 154.343 134.59 162.918 134.59 162.918L135.233 163.904C135.233 164.631 134.533 166.779 134.533 166.779C134.533 166.779 138.458 171.656 139.297 173.446C140.136 175.237 138.179 176.366 138.179 176.366C138.179 176.366 132.368 178.351 130.425 178.874C130.425 178.874 130.946 181.981 131.038 182.443C131.209 183.301 130.91 184.411 130.056 184.454C129.364 184.489 128.43 184.198 128.43 184.198L128.003 184.582L127.363 187.272L126.381 187.742C126.381 187.742 126.552 188.766 126.296 189.108C126.04 189.449 125.186 189.876 125.186 189.876L124.888 190.308C124.888 190.308 124.632 192.955 124.205 193.425C123.777 193.895 121.895 194.663 121.426 194.706C120.957 194.749 119.42 194.365 119.42 194.365L120.444 194.728C120.444 194.728 134.431 204.235 136.353 206.691C138.276 209.148 138.489 213.741 138.489 213.741C138.489 213.741 137.955 214.703 139.022 217.586C140.091 220.47 141.372 238.629 141.585 239.697C141.798 240.765 141.798 243.435 141.798 243.435C141.798 243.435 143.08 246.319 143.187 247.281C143.294 248.243 142.012 248.776 142.012 248.776C142.012 248.776 135.713 251.019 132.51 252.301C132.19 254.544 134.325 265.652 134.325 268.11C134.325 270.566 132.83 282.102 132.83 284.239C132.83 286.375 133.043 291.716 133.043 294.813C133.043 297.911 132.51 303.465 132.296 304.32C132.083 305.174 132.403 306.349 132.403 307.097C132.403 307.845 134.394 315.955 134.34 316.498C134.286 317.042 133.959 321.052 133.959 321.052C133.959 321.052 134.502 325.834 134.394 326.541C134.286 327.247 133.689 328.105 133.689 328.105C133.689 328.105 165.665 350.291 167.107 351.201C167.641 351.094 168.117 351.371 168.117 351.371C168.117 351.371 184.4 364.189 186.962 366.486C189.525 368.783 191.34 375.458 192.354 377.221C193.369 378.983 194.65 380.478 194.65 380.478L199.128 381.322C199.128 381.322 200.398 380.159 201.398 379.565C202.399 378.969 203.832 379.623 203.832 379.623C203.832 379.623 224.225 384.003 226.254 384.857C228.283 385.712 232.127 386.566 235.543 391.373C231.913 394.684 220.168 393.403 218.353 392.975C216.537 392.547 199.241 389.772 196.465 388.382C193.689 386.994 187.122 382.935 187.122 382.935C187.122 382.935 185.414 382.721 184.774 382.454C184.133 382.186 182.478 379.731 182.265 378.983C182.051 378.235 183.119 378.395 183.119 378.395C183.119 378.395 185.041 378.555 186.856 378.929C186.962 377.595 186.749 375.831 185.041 373.161C183.333 370.491 180.129 368.088 180.129 368.088L167.279 359.647C167.279 359.647 164.59 357.72 164.119 357.451C163.647 357.182 163.716 356.644 163.716 356.644C163.716 356.644 130.452 333.434 129.481 332.731C128.48 333.317 126.403 334.405 125.406 333.258C124.41 332.111 126.608 330.736 126.608 330.736C126.608 330.736 126.374 330.619 125.993 330.326C124.937 330.766 122.793 330.912 122.266 330.824C121.738 330.736 121.152 330.619 120.742 330.267C119.981 329.614 119.47 328.417 119.218 327.716L117.621 327.724L117.257 331.907C116.906 335.544 116.53 341.586 116.28 344.717C115.854 350.075 115.32 371.841 114.893 374.853C114.466 377.868 112.757 381.886 109.341 395.169C105.924 408.451 103.506 412.399 102.771 413.528C102.465 422.441 101.201 432.358 101.201 432.358C101.201 432.358 103.138 432.103 103.873 431.911C104.607 431.719 111.318 429.415 113.827 429.543C116.337 429.671 116.867 432.678 116.437 433.702C116.967 434.854 115.786 437.391 114.317 438.67C109.81 442.765 101.507 444.022 99.7936 444.15C98.1298 444.341 95.4781 443.459 95.593 443.51L93.6579 444.124C93.6579 444.124 93.9307 446.987 93.2922 447.465C93.7486 449.182 93.5665 454.321 93.5665 454.321C93.5665 454.321 95.6985 461.166 95.7571 462.801C95.8391 465.086 95.4046 465.405 95.4046 465.405C95.6656 466.082 95.6985 467.144 95.4046 467.219C95.4046 467.219 90.0974 467.75 86.2758 468.323C82.4557 468.896 76.2285 469.161 75.5182 468.323C75.2526 468.01 75.2572 466.986 75.2572 466.986C75.2572 466.986 74.8008 466.605 74.3444 465.555C73.888 464.505 73.888 458.03 73.7964 456.884C73.7054 455.739 74.5266 454.321 74.5266 454.321C74.5266 454.321 73.9795 454.703 73.0667 454.321C72.1534 453.94 70.1453 451.555 69.2325 450.313C68.3197 449.073 68.4235 445.651 68.4235 445.651C68.4235 445.651 68.3325 445.46 67.6023 444.22C66.8721 442.979 66.2331 436.503 66.2331 435.359C66.2331 434.213 66.4157 433.75 67.3285 432.604C67.3285 425.556 70.0537 413.355 70.0537 413.355C70.0537 413.355 70.5101 403.84 70.4191 402.98C70.3279 402.122 71.6967 399.354 71.6967 399.354C71.6967 399.354 71.5144 397.077 71.058 396.219C70.6016 395.36 71.3307 386.909 71.3307 386.909L73.2521 381.997C73.2521 381.997 73.2521 378.649 72.825 376.416C72.3982 374.185 76.669 368.157 79.0179 365.701C76.2416 360.567 70.4765 345.387 69.6217 338.02Z" fill="#231F20"/>
<path fill-rule="evenodd" clip-rule="evenodd" d="M98.9246 429.13C98.2638 432.341 97.0132 440.729 94.3069 441.578C93.9077 441.704 93.1063 442.019 93.1063 442.019L93.7034 449.505L92.0202 453.692C92.0202 453.692 91.4072 449.833 90.3558 448.517C89.3045 447.202 87.6561 447.258 87.1742 447.202C86.6924 447.146 82.1095 448.684 81.2334 448.795C80.3574 448.906 75.9678 451.833 75.5418 452.245C73.956 453.78 73.8102 454.868 73.0893 457.341L75.5418 468C75.5418 468 80.1796 468 90.3558 468C102 468 94.3069 441.578 94.3069 441.578C94.3069 441.578 100.329 444.615 106.5 442.019C122 435.5 115.5 429.13 115.5 429.13H98.9246Z" fill="#FF9A0F"/>
<path d="M82.4878 449.398C83.4444 449.977 84.1517 452.253 83.7164 453.049C83.2889 453.83 78.449 458.258 77.3942 459.23C76.9682 459.33 76.6889 459.166 76.4066 458.861C75.995 457.849 74.9809 456.749 73.7643 456.749V456.306C75.1625 456.306 76.26 457.429 76.7851 458.617C76.9448 458.781 77.0751 458.829 77.185 458.82C78.2122 457.872 82.9528 453.523 83.328 452.836C83.6288 452.285 83.0497 450.256 82.2588 449.777L82.4878 449.398Z" fill="#231F20"/>
<path d="M88.296 448.4L88.2507 450.3C88.2522 450.73 88.3272 451.377 89.0986 451.785C90.2771 452.408 92.2035 454.028 92.7014 455.365C93.053 456.31 92.9382 457.231 94.3722 456.705L94.5246 457.121C94.5246 457.121 94.2753 457.213 93.969 457.258C92.3817 457.496 92.6037 455.899 92.0066 454.934C91.5252 454.156 89.8848 452.701 88.8915 452.178C87.9021 451.654 87.8099 450.784 87.8068 450.296L87.8537 448.39L88.296 448.4Z" fill="#231F20"/>
<path d="M74.816 466.5C75.6729 467.19 79.1781 467.576 80.4707 467.408C81.7759 467.237 87.3004 465.716 88.9384 465.533C94.5262 464.907 96.0197 465.194 96.0197 465.194L95.9384 465.63C95.9384 465.63 94.4723 465.359 88.9869 465.972C87.3519 466.156 81.8313 467.677 80.5278 467.847C79.2133 468.019 75.5456 467.656 74.5383 466.846L74.816 466.5Z" fill="#231F20"/>
<path d="M116.799 433.818C116.799 433.818 116.026 434.968 114.846 436.306C113.673 437.635 112.076 439.176 110.42 439.943C107.181 441.441 99.6061 443.462 98.7284 443.509C97.8781 443.553 95.7868 443.322 95.7868 443.322L95.8368 442.882C95.8368 442.882 97.8758 443.11 98.705 443.066C99.5052 443.025 107.023 441.025 110.235 439.54C112.475 438.503 115.042 435.634 116.43 433.571L116.799 433.818Z" fill="#231F20"/>
<path d="M89.995 450.356C88.793 450.185 82.1955 451.393 81.1334 452.071C80.4457 452.511 80.0588 452.2 80.6622 451.639C82.7183 449.728 88.8469 449.047 90.1044 449.644C90.8382 449.994 90.7952 450.469 89.995 450.356Z" fill="#231F20"/>
<path fill-rule="evenodd" clip-rule="evenodd" d="M92.5084 455.578C92.5084 455.578 91.0641 453.01 87.8927 452.043C86.9995 451.77 87.459 448.203 87.459 448.203L88.3273 447.9C88.3273 447.9 87.6403 450.986 88.4562 451.454C91.9332 453.443 92.5084 455.578 92.5084 455.578Z" fill="#231F20"/>
<path fill-rule="evenodd" clip-rule="evenodd" d="M83.4952 449.449C83.4952 449.449 84.6979 452.514 84.322 453.103C83.9461 453.692 80.0073 457.143 79.518 457.339C79.0296 457.536 78.842 457.575 78.842 457.575C78.842 457.575 83.3076 453.26 83.571 452.71C83.8336 452.16 82.6308 449.568 82.6308 449.568L83.4952 449.449Z" fill="#231F20"/>
<path d="M89.952 450.281C88.8173 449.832 82.1283 449.458 80.9482 449.869C80.1816 450.136 79.8729 449.742 80.5809 449.337C82.9958 447.958 89.1143 448.737 90.2107 449.614C90.8516 450.127 90.7062 450.58 89.952 450.281Z" fill="#231F20"/>
<path fill-rule="evenodd" clip-rule="evenodd" d="M135.601 164.362C133.308 161.77 135.601 155.5 135.601 155.5L130.425 147.116C130.425 147.116 119.772 133.501 107.5 136.5C98.6508 138.663 93.5 147.116 93.5 147.116L90.0903 162.417L97.1028 164.362C99.3458 165.969 101.883 167.273 102.659 167.674C104.18 168.457 112.177 171.488 114.425 172.44C116.672 173.391 122.41 176.491 124.009 177.541C125.783 178.706 128.549 179.332 130.171 178.94C131.793 178.548 130.425 178.874 130.425 178.874C130.425 178.874 148.5 178.94 135.601 164.362Z" fill="#FF9A0F"/>
<path d="M100.258 164.761C101.659 165.557 103.069 166.229 104.22 166.785C104.426 165.99 104.957 163.923 105.163 162.926L105.016 162.798L104.881 162.742L103.916 162.278C103.622 162.138 103.324 161.99 103.023 161.835L102.454 161.548C101.995 161.317 101.755 161.201 101.579 161.146C101.473 161.184 101.252 161.265 100.981 161.371C100.713 162.216 100.345 164.273 100.258 164.761ZM94.917 160.307C96.0033 161.977 97.8922 163.374 99.8507 164.525C99.8983 164.253 99.9804 163.803 100.078 163.309C100.211 162.629 100.394 161.704 100.627 161.036L101.204 160.812C98.9754 159.436 96.8403 157.614 95.9259 155.355C95.7993 155.439 95.6711 155.601 95.6516 155.696C95.618 155.859 94.917 160.307 94.917 160.307ZM116.033 168.995L116.489 167.214C116.489 167.214 116.506 167.155 116.541 167.076C116.589 166.965 116.652 166.856 116.729 166.761C115.636 166.438 114.438 166.06 113.313 165.695C110.856 164.897 108.726 164.152 108.726 164.152C108.722 164.151 107.402 163.771 105.594 163.023C105.376 164.069 104.813 166.259 104.626 166.982L104.862 167.097C107.491 168.388 113.807 170.477 115.069 170.89C115.174 170.549 115.373 169.897 115.484 169.557C115.579 169.266 115.751 169.109 115.919 169.034L116.033 168.995ZM121.821 172.129C121.821 172.129 121.939 171.717 121.998 171.242C122.035 170.936 121.903 170.899 121.685 170.771L122.158 168.172C122.167 167.923 122.149 167.651 121.953 167.608C121.317 167.688 120.624 167.672 119.865 167.552C119.256 167.456 118.321 167.218 117.249 166.911C117.063 166.954 116.94 167.252 116.915 167.334L116.388 169.399C116.136 169.423 116.001 169.399 115.905 169.695C115.752 170.165 115.426 171.24 115.426 171.24C115.636 171.575 120.826 172.981 121.659 172.696L121.821 172.129ZM122.175 170.553C122.58 170.879 122.444 171.543 122.311 172.028C125.166 172.67 129.674 173.132 132.086 171.887C133.052 171.376 133.918 170.266 134.106 169.163L134.351 166.678L134.793 166.722L134.544 169.229C134.544 169.229 134.522 169.366 134.458 169.578C134.118 170.714 133.356 171.717 132.292 172.28C129.683 173.625 125.033 173.093 122.187 172.455L122.044 172.921C121.526 173.813 115.776 171.989 115.355 171.782C115.168 171.692 114.961 171.543 114.947 171.316C109.796 169.63 101.912 166.875 97.3912 163.442C94.8044 161.477 92.7452 158.835 93.8244 155.574L94.2449 155.713C93.7603 157.177 93.9526 158.504 94.5645 159.7C94.7521 158.507 95.1913 155.734 95.2179 155.605C95.2468 155.467 95.4546 155.088 95.7704 154.929C95.5008 154.107 95.3945 153.229 95.5015 152.297L95.9415 152.348C95.4601 156.522 99.6232 159.606 103.349 161.503L103.95 161.8C106.565 163.062 108.817 163.717 108.86 163.729C108.87 163.733 113.805 165.459 117.285 166.46C117.344 166.46 117.407 166.469 117.473 166.488C118.481 166.802 119.36 167.023 119.935 167.115C124.564 167.848 126.594 164.443 128.447 158.916C130.235 153.584 124.365 148.606 119.202 144.319C119.148 144.278 109.179 136.929 103.5 139.852L103.298 139.458C107.96 137.058 115.729 141.193 119.477 143.97C124.518 148.158 130.774 153.371 128.868 159.056C127.385 163.477 125.71 166.804 122.488 167.516C122.604 167.731 122.629 168.008 122.595 168.241L122.175 170.553Z" fill="#231F20"/>
<path d="M102.802 162.808C103.224 163.032 103.467 163.54 103.238 163.97C102.73 164.926 101.086 164.05 101.593 163.095C101.822 162.665 102.38 162.583 102.802 162.808ZM102.593 163.198C102.323 163.055 102.067 163.148 101.984 163.303C101.902 163.458 101.968 163.722 102.238 163.867C102.509 164.011 102.765 163.917 102.848 163.762C102.929 163.607 102.863 163.342 102.593 163.198Z" fill="#231F20"/>
<path fill-rule="evenodd" clip-rule="evenodd" d="M60.4359 192.629L61.3905 202.234C61.3905 202.234 62.8058 212.93 61.3905 216.164C59.9764 219.397 54.9608 224.303 54.9608 224.303L55.7325 234.871C55.7325 234.871 56.5039 240.163 57.6615 239.391C58.8188 238.619 67.0574 224.073 69.6562 214.877C71.8426 207.14 74.4146 198.228 72.0996 188.948C64.3069 188.365 61.312 191.707 60.4359 192.629Z" fill="#FF9A0F"/>
<path fill-rule="evenodd" clip-rule="evenodd" d="M85.8343 183.621C84.9168 184.8 83.0615 194.388 95.0256 201.748C97.3327 203.21 100.942 203.058 100.942 203.058C100.942 203.058 92.1676 196.838 90.3092 192.553C87.6575 186.438 88.822 183.848 89.666 183.242C88.7665 181.73 87.4887 181.856 85.8343 183.621Z" fill="#FF9A0F"/>
<path fill-rule="evenodd" clip-rule="evenodd" d="M115.393 193.536C115.393 193.536 115.328 195.917 114.346 197.031C113.364 198.144 107.654 201.92 104.173 203.321C106.072 203.801 108.791 204.205 111.137 203.67C112.607 203.335 117.053 199.935 117.512 198.341C117.97 196.746 118.233 193.995 118.233 193.995L115.393 193.536Z" fill="#FF9A0F"/>
<path fill-rule="evenodd" clip-rule="evenodd" d="M126.179 203.124C125.916 203.582 124.869 207.798 124.738 208.649C124.607 209.502 124.869 216.949 124.869 217.605C124.869 218.26 125.262 223.916 125.197 225.686C125.131 227.454 124.541 229.551 124.541 229.551C124.541 229.551 124.935 233.242 124.738 234.094C124.541 234.946 124.411 238.899 124.411 238.899C124.411 238.899 129.017 230.665 131.637 222.846C134.257 215.027 135.788 210.943 135.828 209.764C135.894 207.863 126.179 203.124 126.179 203.124Z" fill="#FF9A0F"/>
<path fill-rule="evenodd" clip-rule="evenodd" d="M41.4201 263.833L124.452 321.56C124.381 321.833 124.207 322.552 124.249 322.84C124.3 323.199 124.698 326.126 124.994 326.696C125.317 327.318 126.946 327.726 127.459 327.107C127.973 326.488 128.024 324.716 128.024 324.716L128.213 324.175L167.637 351.585C168.4 352.262 165.051 357.672 164.295 356.988L123.633 328.692C123.434 328.26 123.077 327.743 122.681 327.39C122.049 326.827 120.987 326.559 120.508 326.518L39.0756 269.851C40.2372 268.972 41.0187 266.966 41.4201 263.833Z" fill="#FF9A0F"/>
<path fill-rule="evenodd" clip-rule="evenodd" d="M171.525 357.15C171.797 356.745 172.4 356.674 172.87 356.992C173.341 357.308 173.5 357.895 173.227 358.3C172.954 358.704 172.352 358.776 171.882 358.458C171.411 358.14 171.252 357.555 171.525 357.15Z" fill="#FF9A0F"/>
<path d="M30.3049 219.01C30.3049 219.01 31.6033 217.799 33.031 216.541C36.2487 213.704 36.1205 213.921 39.9099 212.449C41.066 211.199 52.7648 198.55 53.761 197.57C56.1971 195.174 61.6952 190.011 64.8777 189.277C67.3657 188.703 70.0589 188.49 72.614 188.49L85.8452 188.041L85.885 189.214L72.6241 189.663C72.6241 189.663 71.5648 189.663 70.1032 189.758C64.697 190.11 63.4179 190.659 59.1049 194.272C56.9609 196.068 55.1017 197.895 54.5831 198.406C53.5382 199.434 40.6783 213.345 40.6783 213.345L40.46 213.494C40.46 213.494 38.1405 214.396 37.1102 214.783C36.2935 215.089 32.0639 218.973 31.1038 219.867L30.3049 219.01Z" fill="#FF9A0F"/>
<path d="M117.435 196.651C117.517 196.721 117.614 196.82 117.712 196.922L118.061 197.295C118.491 197.757 119.933 199.322 120.532 199.397C123.987 199.83 123.677 199.419 125.697 201.832C126.775 203.119 129.515 204.196 130.937 204.99C137.478 208.639 137.863 210.194 137.924 217.124C137.931 217.86 137.96 218.462 138.06 218.921C138.291 219.974 138.853 224.902 139.387 229.648C139.931 234.463 140.427 238.853 140.519 239.083C140.843 239.895 140.367 242.753 140.475 243.903L140.496 244.054C141.158 245.378 143.465 246.935 143.379 248.777L142.207 248.721C142.276 247.282 139.448 245.493 139.308 244.013C139.172 242.585 139.534 241.14 139.451 239.712L139.43 239.518C139.14 238.791 138.332 230.752 138.222 229.779C137.694 225.086 137.143 220.214 136.915 219.172C136.251 216.132 137.453 213.051 135.654 210.066C134.196 207.646 128.884 205.328 126.174 203.777C124.863 203.027 124.187 201.479 123.471 201.081C122.257 200.406 120.614 201.044 119.202 200.001C118.46 199.453 117.828 198.765 117.203 198.093L116.865 197.733L116.672 197.541L117.435 196.651Z" fill="#FF9A0F"/>
<path d="M171.491 352.961C173.262 354.245 168.208 361.242 166.52 360.078L166.963 359.434C167.837 360.035 171.937 354.25 171.032 353.595L171.491 352.961Z" fill="#FF9A0F"/>
<path fill-rule="evenodd" clip-rule="evenodd" d="M171.646 262.43L171.46 262.027L172.044 262.511C172.044 262.511 172.126 263.008 171.794 263.381C171.463 263.754 168.934 265.739 168.934 265.739L171.646 262.43ZM224.178 250.887C224.178 250.887 225.258 254.786 225.762 255.939C226.267 257.092 227.681 260.093 227.681 260.093C227.681 260.093 225.691 260.093 224.466 260.453C223.24 260.814 221.007 261.102 221.007 261.102L217.416 261.377C217.416 261.377 218.59 259.467 219.238 259.033C219.887 258.601 220.44 258.914 220.844 257.905C221.022 257.463 221.055 256.132 221.055 256.132C221.055 256.132 222.647 255.145 223.224 254.353C223.8 253.559 224.178 250.887 224.178 250.887ZM183.091 247.889L183.21 248.947C183.266 249.569 183.406 250.135 184.31 250.135C185.214 250.135 185.383 249.456 185.553 248.551C185.6 248.3 185.608 247.909 185.594 247.476C185.926 247.142 186.552 246.497 186.717 246.294C186.932 246.03 186.938 245.804 186.938 245.804C186.938 245.804 187.395 245.21 188.187 244.472L188.377 245.5C188.377 245.5 188.887 246.089 190.208 245.881C191.215 245.724 192.811 245.077 192.811 245.077C192.811 245.077 193.037 245.838 193.545 246.008C194.054 246.178 195.24 245.895 195.24 245.895L197.471 245.021C197.471 245.021 198.148 244.625 198.148 243.099C198.996 242.42 200.634 242.59 200.634 242.59L201.765 243.552V244.455L198.544 246.799L198.148 247.817C198.148 247.817 197.188 248.834 197.019 249.343C196.85 249.852 196.85 250.643 196.85 250.643C196.85 250.643 194.562 251.011 193.941 251.321C193.32 251.631 190.495 254.117 190.213 254.513C189.929 254.908 188.943 256.209 188.095 256.717C187.248 257.226 184.592 258.044 184.367 258.835C184.141 259.627 184.197 260.587 184.197 260.587L183.266 260.644C183.266 260.644 181.797 259.004 180.837 258.835C179.876 258.666 177.786 258.327 177.786 258.327C177.786 258.327 175.217 257.901 173.636 257.761C173.425 257.743 173.195 257.733 172.953 257.73L183.091 247.889ZM174.98 275.95C175.062 276.683 174.97 279.7 175.278 280.704C175.635 281.864 177.865 285.165 180.985 288.642C184.105 292.121 207.644 308.447 212.459 310.765C217.274 313.083 222.693 313.887 222.693 313.887C222.693 313.887 214.209 325.106 211.772 332.326C209.333 339.546 214.307 345.595 215.185 346.277C216.062 346.96 221.426 350.374 226.302 351.252C231.178 352.13 235.859 349.985 236.542 349.692C237.224 349.4 246.878 344.034 246.878 344.034C246.878 344.034 255.168 342.471 255.948 342.18C256.728 341.887 267.554 338.082 268.627 337.692C269.698 337.301 274.575 334.863 275.745 334.374C276.916 333.887 278.281 332.814 279.061 332.131C279.841 331.448 280.523 329.301 280.523 329.301L282.376 327.838L283.777 324.436C283.777 324.436 283.988 324.478 284.597 324.338C284.862 324.38 285.177 324.431 285.508 324.492C285.536 324.879 285.809 324.884 286.434 324.676C286.763 324.749 287.079 324.828 287.35 324.911C287.515 324.962 287.687 325.027 287.862 325.101C287.979 325.42 288.236 325.399 288.431 325.369C288.701 325.506 288.964 325.655 289.206 325.798C289.236 326.087 289.428 326.205 289.777 326.154C289.915 326.244 290.033 326.322 290.122 326.384C290.173 326.481 290.229 326.578 290.322 326.63C290.33 327.316 290.386 331.807 290.58 332.578C290.789 333.415 291.311 333.86 291.311 333.86C291.311 333.86 293.087 334.749 293.817 335.061C294.549 335.374 297.5 336.106 298.806 335.95C300.111 335.793 304.63 332.213 305.047 331.169C305.278 330.59 305.839 329.251 306.316 327.873L306.427 325.467L307.065 325.032L307.083 324.82C307.14 323.851 307.048 322.421 306.636 320.818L306.353 320.707L305.874 320.449L305.726 318.256C305.452 317.662 305.127 317.066 304.745 316.479L304.236 315.714L303.55 315.459L303.149 314.196C301.789 312.383 300.737 311.287 300.737 311.287L299.641 311.026C299.641 311.026 295.934 307.028 295.175 305.879C294.417 304.73 294.705 304.312 294.705 304.312L295.175 302.901C295.175 302.901 295.204 302.386 294.158 300.758L293.502 300.712L293.381 299.625L293.235 299.426C292.443 298.352 291.486 297.176 290.622 296.151L290.146 296.137L289.761 295.141C288.873 294.113 288.23 293.403 288.23 293.403L289.871 288.377C289.871 288.377 292.775 288.272 293.514 287.849C294.253 287.426 294.412 285.895 294.517 285.261C294.622 284.628 295.467 281.764 295.415 280.918C295.362 280.073 292.3 272.72 292.3 272.72C292.3 272.72 292.141 265.473 291.93 264.892C291.69 263.705 291.165 262.389 290.359 260.943C290.466 260.606 291.052 257.466 290.399 254.2C290.24 253.407 288.276 249.223 287.959 248.59C287.643 247.956 286.9 238.511 286.763 237.936C286.376 236.304 284.843 234.359 284.843 234.359L284.791 230.703L284.422 221.501C284.422 221.501 286.005 218.374 286.322 217.37C286.639 216.366 286.269 212.975 286.269 212.975L284.368 206.731C284.368 206.731 284.685 203.086 284.422 202.347C284.158 201.607 282.491 198.325 280.556 195.574L273.998 186.309C273.998 186.309 273.864 185.283 273.522 184.777C272.713 183.576 271.153 182.571 270.132 182.336C267.601 181.755 258.716 182.653 258.716 182.653L257.967 182.231L254.376 182.072C254.376 182.072 254.007 181.808 254.007 181.438C254.007 181.069 253.743 179.748 253.584 178.956C253.426 178.164 250.208 175.528 248.927 174.867C247.063 173.907 245.623 174.585 245.623 174.585L241.443 176.591L241.046 173.512C241.046 173.512 240.848 171.843 240.03 170.799C239.212 169.754 237.573 168.002 237.573 168.002L235.545 163.798C235.956 163.332 236.067 162.916 235.879 162.55L234.933 160.776C234.933 160.776 236.512 160.793 237.133 160.511C237.754 160.228 238.395 159.749 238.521 158.95C238.711 157.761 237.97 156.87 237.97 156.87C237.69 156.626 237.351 156.608 236.952 156.814L235.032 154.836C234.771 154.604 234.433 154.472 234.015 154.44C234.015 154.44 231.19 151.192 228.451 148.988C225.712 146.784 222.446 145.182 218.013 145.691C213.579 146.2 208.428 148.535 203.994 154.271C199.561 160.006 200.117 166.401 200.352 169.076C200.654 172.52 204.447 180.999 204.447 180.999C204.447 180.999 201.934 186.621 201.934 187.412C201.934 188.203 203.091 189.277 203.712 189.304C207.61 189.474 212.326 187.865 212.326 187.865L213.651 189.443C213.651 189.443 214.094 190.244 214.565 191.158C214.829 191.673 215.395 192.327 215.395 192.327C215.395 192.327 215.789 193.707 216.026 195.182C216.14 195.898 217.099 196.283 217.607 196.226C218.115 196.17 218.341 196.057 218.341 196.057L218.228 197.074C218.228 197.074 215.544 200.777 214.895 201.313C214.248 201.848 212.157 203.261 211.93 203.657C211.705 204.052 211.987 204.901 212.553 204.731C213.117 204.561 213.738 203.939 213.738 203.939L215.46 203.996L216.308 204.222C216.308 204.222 214.19 207.923 213.908 208.545C213.625 209.166 213.532 210.811 213.343 211.428C211.987 215.857 211.617 219.235 211.196 223.293C211.196 223.293 210.914 225.357 210.857 225.949C210.8 226.542 210.97 228.576 210.97 228.576C210.97 228.576 208.514 228.633 207.893 228.916C207.271 229.198 207.271 230.159 207.271 230.159L207.553 230.95L203.317 231.515C203.317 231.515 200.126 231.233 199.336 231.12C198.544 231.007 190.072 231.007 189.225 231.177C188.377 231.346 186.909 232.447 186.683 232.899C186.457 233.351 186.117 234.425 186.117 234.425C186.117 234.425 183.451 239.315 183.322 240.104C183.172 241.033 182.934 243.361 182.821 244.502L182.592 244.709C182.296 244.996 182.06 245.353 182.103 245.724C182.145 246.096 182.291 246.368 182.468 246.605L182.628 246.798L171.317 257.778C170.149 257.842 169.02 257.941 168.524 257.875C167.677 257.761 166.468 256.571 166.468 256.571C166.468 256.571 165.467 255.427 164.824 255.677C164.085 255.965 163.727 257.005 163.727 257.427C163.727 258.878 165.429 260.606 166.489 260.87C166.729 260.929 167.327 260.978 167.957 261.015L166.167 262.686C165.936 262.405 165.591 261.976 165.264 262.305C164.766 262.926 164.684 263.008 164.684 263.008C164.684 263.008 164.487 262.636 164.114 262.76C163.742 262.884 163.328 263.63 163.328 263.63L163.576 264.199L162.252 265.773L161.299 266.104L160.968 266.809L161.382 267.099L160.223 268.548C160.223 268.548 159.933 268.963 160.098 269.336C160.264 269.709 160.595 270.081 160.595 270.081L159.685 271.106C159.685 271.106 159.685 271.561 160.016 271.727C159.602 272.099 160.14 272.68 160.14 272.68C160.14 272.68 159.602 272.432 159.105 272.639C158.608 272.845 158.526 273.923 158.567 274.254C158.608 274.585 158.378 275.301 158.525 275.789C158.67 276.277 158.915 276.813 159.597 277.009C160.28 277.204 166.814 276.862 166.814 276.862C166.814 276.862 169.154 277.009 170.081 276.862C171.007 276.715 173.641 275.984 173.641 275.984L174.98 275.95Z" fill="#231F20"/>
<path d="M280.553 305.72C280.553 305.72 282.719 306.747 283.318 307.887C283.918 309.026 284.456 310.945 284.277 312.024C284.098 313.103 284.592 314.004 284.877 314.731C285.416 316.109 285.107 319.74 285.107 319.74C285.107 319.74 287.001 318.394 286.866 313.759C286.766 310.282 285.776 307.819 284.756 306.8C284.52 306.563 284.234 306.291 283.935 306.011L288.293 307.519C288.293 307.519 290.399 310.824 290.818 311.304C291.238 311.784 295.981 317.129 295.981 317.129C295.981 317.129 296.76 317.129 296.82 316.709C296.87 316.357 297.175 313.165 297.27 312.151C298.475 313.243 301.411 316.319 301.615 316.829C301.854 317.429 302.102 320.135 302.462 320.854C302.821 321.573 304.38 323.433 304.38 324.811C304.38 326.191 302.941 329.017 302.582 329.916C302.222 330.816 299.217 334.481 299.217 334.481C299.217 334.481 299.937 334.542 300.596 334.122C301.255 333.702 304.559 329.617 305.279 328.297C305.998 326.979 306.537 323.373 306.058 322.113C305.579 320.854 304.74 319.048 304.74 319.048C304.74 319.048 301.255 312.803 300.835 312.504C300.416 312.204 299.098 311.244 298.557 310.885C298.019 310.525 294.415 306.02 294.415 306.02C294.415 306.02 294.355 303.982 293.756 302.962C293.155 301.943 290.399 298.337 290.399 298.337L287.574 294.551L286.315 297.078L285.296 299.296C285.296 299.296 287.042 301.368 288.656 303.256C287.693 303.322 282.292 303.322 282.292 303.322L281.727 304.202L280.553 305.72ZM289.492 314.79C289.492 314.79 288.952 315.63 289.431 316.529C289.911 317.429 292.976 320.375 293.756 320.914C294.534 321.453 295.254 320.794 295.254 320.794L296.041 319.347C296.041 319.347 294.546 318.719 293.336 318.028C291.657 317.069 289.492 314.79 289.492 314.79Z" fill="#FF9A0F"/>
<path d="M182.568 246.725L165.251 263.665L164.978 264.394C164.933 264.469 165.155 264.722 165.252 264.689L165.985 264.492L183.164 247.818L182.986 247.012L182.568 246.725ZM185.651 247.421C185.991 247.075 186.561 246.487 186.717 246.294C186.932 246.03 186.938 245.804 186.938 245.804C186.938 245.804 187.398 245.205 188.196 244.463L188.089 243.789C188.089 243.789 187.214 244.008 186.645 244.008C186.076 244.008 185.463 243.527 185.463 243.527C185.463 243.527 185.682 244.814 185.682 245.146C185.682 245.48 185.638 247.362 185.638 247.362L185.651 247.421Z" fill="#FF9A0F"/>
<path fill-rule="evenodd" clip-rule="evenodd" d="M234.892 160.747C234.892 160.747 233.143 161.319 231.999 162.136C230.856 162.953 222.573 177.6 222.573 177.6C222.573 177.6 221.208 180.955 220.334 182.175C218.305 185.009 212.214 187.847 212.214 187.847C212.214 187.847 205.971 189.46 201 187.847C196.03 186.235 196.631 187.442 194.715 182.175C191.239 172.617 200.466 175 194.715 156.3C194.96 155.402 206.118 141.725 216.5 140C226.057 138.411 237.669 146.87 237.669 146.87L241.5 154.5L237.669 156.3L234.892 160.747Z" fill="#FF9A0F"/>
<path d="M368.347 376.549C368.347 376.549 367.089 377.446 365.767 378.357C364.481 379.243 363.037 380.212 362.722 380.279C362.199 380.39 361.371 380.499 361.371 380.499L361.313 380.06C361.313 380.06 362.119 379.953 362.631 379.845C363.058 379.755 367.342 376.721 368.089 376.187L368.347 376.549ZM167.468 262.942L169.178 261.294C168.834 261.28 168.403 261.262 167.984 261.238L168.009 260.795C168.922 260.847 169.919 260.875 169.919 260.875L170.756 261.154L171.571 261.832L171.288 262.172L170.536 261.549L169.841 261.316L167.342 263.678C167.155 263.253 166.935 262.603 166.37 263.168C166.37 263.168 166.175 263.042 166.121 263C166.07 262.961 165.996 262.9 165.941 262.833L166.282 262.549C166.791 262.281 167.215 262.568 167.468 262.942ZM217.531 145.918C213.858 146.803 204.79 152.423 206.53 166.636C207.194 170.913 209.944 172.455 212.695 172.321C214.51 172.233 216.473 171.484 218.215 170.013C216.745 170.921 214.855 171.749 213.162 171.857C211.152 171.985 206.87 170.742 206.579 166.537C205.828 155.218 213.57 149.821 216.587 148.046C220.432 145.784 225.898 146.934 227.779 148.05L227.553 148.432C225.769 147.373 220.479 146.27 216.813 148.427C213.837 150.179 206.287 155.447 207.021 166.507C207.285 170.337 211.21 171.538 213.135 171.414C215.848 171.24 219.166 169.076 220.123 167.937C221.239 166.753 222.074 165.258 222.935 163.887C223.879 162.385 224.856 160.892 225.863 160.088C227.892 158.467 231.117 156.889 233.531 155.823C233.531 155.823 233.628 155.8 233.725 155.757C234.381 155.468 234.168 154.931 233.757 154.423L234.102 154.145C234.822 155.035 234.756 155.962 233.674 156.244C231.288 157.305 228.142 158.834 226.139 160.434C224.602 161.663 223.067 164.596 221.887 166.36C221.435 167.036 220.992 167.663 220.532 168.163C218.351 171.139 215.405 172.634 212.717 172.763C209.741 172.908 206.791 171.2 206.091 166.697C204.319 152.226 213.57 146.416 217.427 145.488L217.531 145.918ZM218.585 176.042C218.466 175.987 218.354 175.908 218.255 175.806L216.642 173.863C216.642 173.863 216.598 173.781 216.554 173.68C216.369 173.249 216.254 172.631 216.736 172.318C217.78 171.642 219.5 170.964 220.272 170.026L220.391 169.878L220.51 169.743C221.162 169.075 221.948 169.871 222.311 170.409C222.569 170.791 222.789 171.213 222.949 171.427C223.091 171.617 223.183 171.846 223.226 172.088C223.273 171.983 224.652 169.747 226.221 167.373C227.776 165.023 229.566 162.458 230.398 161.827C232.041 160.579 234.991 159.886 236.976 159.224C237.481 159.055 237.448 158.106 237.386 157.688C237.285 157.471 237.091 157.222 236.784 156.944L237.082 156.615C237.378 156.884 237.653 157.189 237.814 157.561C237.814 157.561 237.889 157.999 237.851 158.446C237.815 158.868 237.668 159.46 237.115 159.643C235.21 160.281 232.232 160.991 230.665 162.181C229.154 163.327 223.898 171.813 223.666 172.19C223.236 173.154 222.422 174.261 221.507 174.792C220.815 175.225 220.133 175.643 219.456 176.046C214.777 178.826 210.426 180.878 206.4 182.204C205.263 182.583 204.392 181.79 204.093 181.014L204.508 180.855C204.755 181.501 205.431 182.06 206.261 181.783C210.063 180.531 214.173 178.617 218.585 176.042ZM222.709 172.937C222.711 172.932 223 172.232 222.595 171.693C222.357 171.375 221.426 169.439 220.827 170.053L220.614 170.308C219.756 171.351 218.11 171.957 216.977 172.69C216.679 172.884 216.941 173.476 217.011 173.613L218.521 175.437C218.521 175.437 218.79 175.817 219.249 175.651C219.919 175.253 220.595 174.84 221.278 174.412C221.817 174.1 222.335 173.542 222.736 172.949L222.709 172.937ZM232.163 162.473C232.163 162.473 232.065 162.524 231.898 162.632C230.838 163.316 229.915 164.341 229.271 165.415L221.285 178.666C221.196 178.898 220.362 180.955 218.154 182.788C215.836 184.713 210.834 187.214 208.028 188.002C205.248 188.782 202.767 188.717 201.945 188.168L202.191 187.799C202.831 188.227 205.128 188.356 207.908 187.575C210.661 186.801 215.606 184.328 217.871 182.447C219.01 181.501 220.359 179.907 220.884 178.472L228.892 165.186C229.551 164.087 230.757 162.696 231.961 162.079L232.163 162.473ZM288.031 307.446L293.888 308.763L292.557 307.194L291.259 306.563L287.801 303.022L288.118 302.713L291.52 306.199L292.834 306.835L297.601 312.455L297.263 312.742L294.364 309.325L287.934 307.878L288.031 307.446ZM281.564 304.1L285.934 307.077L285.685 307.444L281.314 304.467L281.564 304.1ZM374.868 398.935L370.881 402.388C370.722 402.566 369.531 403.953 369.732 405.009C369.962 406.214 371.396 408.767 371.404 408.784L371.018 409.001C371.018 409.001 370.65 408.348 370.254 407.538C369.861 406.737 369.421 405.751 369.296 405.092C369.103 404.075 369.916 402.781 370.582 402.062L374.578 398.6L374.868 398.935ZM371.548 396.57C371.548 396.57 370.739 397.395 369.846 398.279C368.962 399.156 367.972 400.118 367.622 400.375C366.19 401.427 364.259 402.273 362.602 402.934L362.437 402.523C362.437 402.523 363.266 402.192 364.299 401.712C365.336 401.23 366.561 400.604 367.36 400.018C367.676 399.785 368.635 398.857 369.535 397.964C370.424 397.081 371.232 396.259 371.232 396.259L371.548 396.57ZM368.414 377.383C368.396 377.394 363.739 380.467 363.196 381.01C362.725 381.483 362.732 383.308 362.861 383.654L362.446 383.81C362.293 383.404 362.227 381.354 362.883 380.698C363.185 380.395 364.524 379.466 365.753 378.631C366.996 377.785 368.17 377.012 368.17 377.012L368.414 377.383Z" fill="#231F20"/>
<path fill-rule="evenodd" clip-rule="evenodd" d="M254.373 181.993C254.284 182.633 251.171 185.951 245.036 191.949L243.228 195.842C243.228 195.842 242.057 198.013 240.516 199.459C238.975 200.906 232.011 214.031 231.287 215.478C230.564 216.925 228.756 221.179 228.756 221.179L225.408 221.722L225.588 213.032L223.78 210.681L223.239 207.331L220.794 204.437L217.358 204.98L215.912 204.257C215.912 204.257 214.552 210.224 214.552 212.671C214.552 215.117 215.189 221.179 215.189 221.179L217.358 228.147L219.528 227.785C219.528 227.785 226.948 225.339 228.214 225.52C229.479 225.701 232.372 227.785 232.372 227.785H236.444L246.576 221.179C246.576 221.179 247.661 215.203 249.469 213.032C247.3 211.043 247.3 207.873 247.481 206.065C247.661 204.257 250.554 200.364 250.554 200.364C250.554 200.364 249.831 197.194 250.735 194.662C251.638 192.13 259.782 183.535 259.782 183.535C259.782 183.535 267.337 182.87 268.718 183.248C270.101 183.625 274.959 188.361 275.839 189.68C276.718 191 280.761 199.103 281.641 201.264C282.52 203.424 284.931 208.915 284.931 208.915L287.72 213.715L286.806 219.851L284.33 221.466C284.33 221.466 281.889 226.081 281.011 227.252C280.134 228.423 266.578 244.13 266.578 244.13C266.578 244.13 264.92 245.691 263.653 246.667C262.385 247.643 260.142 247.155 258.971 247.74C257.801 248.325 252.145 249.497 250.195 250.081C248.244 250.667 236.639 250.375 235.956 250.472C235.274 250.569 228.545 247.935 227.862 247.935C227.18 247.935 223.083 248.228 223.083 248.228C223.083 248.228 223.383 249.788 223.723 250.299C224.063 250.809 224.265 251.407 224.265 251.407L225.152 257.019L226.253 259.204L227.569 259.838C227.569 259.838 229.812 263.448 230.398 264.326C230.983 265.204 232.056 265.301 232.056 265.301C232.056 265.301 232.738 269.204 233.226 270.277C233.714 271.35 237.029 274.081 237.029 274.081C237.029 274.081 235.371 277.106 236.736 278.374C238.102 279.643 247.562 282.667 247.562 282.667C247.562 282.667 259.654 285.886 263.458 287.35C267.261 288.813 280.036 289.009 282.474 289.009C284.912 289.009 294.274 288.13 294.274 288.13C294.274 288.13 299.679 264.873 300 244.13C300.365 220.508 293.72 208.026 287.72 194.662C283.935 186.231 267.651 176.716 267.651 176.716L254.373 181.993Z" fill="#FF9A0F"/>
<path fill-rule="evenodd" clip-rule="evenodd" d="M276.428 231.349C277.588 231.765 285.074 231.682 285.737 231.267C286.401 230.852 289.096 223.052 288.101 223.052C287.106 223.052 275.453 224.131 275.453 224.131L276.428 231.349Z" fill="#231F20"/>
<path fill-rule="evenodd" clip-rule="evenodd" d="M258.742 182.663C258.503 182.75 258.288 182.874 258.098 183.036C258.098 183.036 254.381 186.43 251.531 189.85C248.683 193.27 244.964 197.478 244.884 198.374C244.802 199.27 244.639 200.736 244.639 200.736C244.639 200.736 243.418 204.699 243.336 205.595C243.255 206.491 244.069 212.761 243.987 213.631C243.907 214.5 244.72 222.861 244.72 222.861L248.439 220.662L253.215 209.234L249.073 203.886C249.073 203.886 249.171 197.778 249.171 196.501C249.171 195.225 252.271 190.542 252.271 190.542C255.265 186.86 257.947 183.226 260.14 182.342L258.742 182.663Z" fill="#231F20"/>
<path fill-rule="evenodd" clip-rule="evenodd" d="M217.921 204.518C217.921 204.518 217.72 206.835 217.015 208.345C216.311 209.855 216.213 214.79 215.305 215.596C214.397 216.401 213.592 224.758 213.592 224.758L215.909 228.285L218.626 227.984C218.626 227.984 218.726 221.333 218.525 218.616C218.323 215.897 220.135 203.812 220.135 203.812L217.921 204.518Z" fill="#231F20"/>
<path d="M292.799 265.044L281.967 266.206C281.967 266.206 278.49 266.272 277.187 266.272C275.885 266.272 273.709 267.24 273.709 267.24C273.709 267.24 254.597 268.155 251.853 268.705C249.934 269.089 244.847 268.979 242.526 268.386C242.28 268.024 240.448 266.122 239.909 265.565L239.758 265.411C239.113 265.533 236.261 265.638 234.881 265.046C233.318 264.376 233.764 263.93 232.771 260.925C231.777 257.921 230.649 247.432 230.649 247.432C230.649 247.432 227.411 244.315 227.188 245.98C226.965 247.644 228.863 252.671 228.863 252.671C228.863 252.671 228.863 255.686 229.31 257.474C229.756 259.261 232.547 264.265 233.217 265.046C233.887 265.829 237.114 265.829 237.114 265.829L237.171 266.054C235.709 266.624 233.69 268.403 232.342 266.548C231.755 265.741 233.109 273.301 233.109 273.301C233.109 273.301 235.475 273.787 235.475 273.107C235.475 272.647 237.076 271.742 238.109 271.207C237.868 271.89 237.313 272.427 236.89 273.413C236.221 274.976 235.663 274.865 235.663 274.865L235.551 279.546C235.551 279.546 239.124 274.53 240.117 273.077L240.202 272.933C240.896 273.403 242.837 274.653 244.331 274.948C246.183 275.313 251.051 275.639 251.051 275.639C252.034 276.57 253.404 277.074 254.436 277.166C254.436 277.166 271.148 276.229 272.612 276.046C274.075 275.863 277.734 275.497 281.78 274.765C285.825 274.033 288.226 274.4 290.239 273.667C292.25 272.935 295.93 271.837 295.93 271.837L292.799 265.044Z" fill="#231F20"/>
<path d="M159.853 274.171L160.22 274.584L159.12 276.429L159.899 276.796L171.649 262.416L171.558 262.096L170.721 261.363L168.393 264.107C168.34 263.781 167.831 263.316 167.577 263.442C167.323 263.57 163.71 267.842 163.71 267.842C163.71 267.842 163.116 267.842 162.989 268.096C162.862 268.351 162.968 268.817 162.968 268.817L162.077 269.856L160.934 269.029C160.934 269.029 160.721 268.86 160.721 268.584C160.721 268.308 161.485 267.481 161.485 267.481L161.378 267.078L159.915 267.609L159.428 269.877L160.594 270.047L161.717 271.16L160.212 272.856C160.212 272.856 160.149 272.962 160.212 273.174C160.246 273.286 160.351 273.397 160.441 273.479L159.853 274.171Z" fill="#FF9A0F"/>
<path d="M285.633 323.038C285.189 323.296 284.62 323.555 284.023 323.647L283.764 324.438L283.905 324.447C284.567 324.387 285.185 324.152 285.681 323.9L285.586 324.129C285.422 324.509 285.493 324.96 286.021 324.795C286.506 324.643 287.417 324.42 288.14 324.25L288.01 324.47C287.909 324.657 287.82 324.875 287.868 325.091C287.859 325.316 288.25 325.484 288.514 325.331L288.88 325.227C289.327 325.105 289.807 324.957 290.287 324.84C290.006 325.052 289.719 325.256 289.434 325.457C289.033 325.742 289.204 326.208 289.693 326.165L290.156 326.118C290.048 326.376 290.243 326.745 290.608 326.658C290.608 326.658 291.205 326.517 291.914 326.252C292.307 326.104 292.765 325.909 293.051 325.581C293.477 325.438 293.859 325.244 294.015 324.983C294.29 324.523 293.75 324.123 293.391 324.52L293.279 324.633L293.208 324.675C292.755 324.916 291.942 325.064 291.452 325.148L291.083 325.209C291.319 325.024 291.902 324.615 291.902 324.285C291.902 323.521 289.857 324.111 289.006 324.373C289.156 324.175 289.315 323.988 289.405 323.887C289.718 323.534 289.489 323.144 289.029 323.246C289.029 323.246 287.625 323.558 286.575 323.831L286.655 323.668C286.838 323.305 287.014 322.978 287.014 322.978C287.26 322.522 286.809 322.16 286.416 322.497C286.416 322.497 286.112 322.759 285.633 323.038Z" fill="#FF9A0F"/>
<path d="M287.535 322.815C287.535 322.453 287.151 322.159 286.676 322.159C286.202 322.159 285.818 322.453 285.818 322.815C285.818 323.177 286.202 323.471 286.676 323.471C287.151 323.471 287.535 323.177 287.535 322.815ZM294.494 324.759C294.494 324.397 294.11 324.103 293.635 324.103C293.162 324.103 292.777 324.397 292.777 324.759C292.777 325.121 293.162 325.415 293.635 325.415C294.11 325.415 294.494 325.121 294.494 324.759ZM292.46 324.08C292.46 323.719 292.076 323.425 291.602 323.425C291.128 323.425 290.744 323.719 290.744 324.08C290.744 324.442 291.128 324.736 291.602 324.736C292.076 324.736 292.46 324.442 292.46 324.08ZM289.953 323.514C289.953 323.151 289.57 322.858 289.095 322.858C288.621 322.858 288.236 323.151 288.236 323.514C288.236 323.876 288.621 324.169 289.095 324.169C289.57 324.169 289.953 323.876 289.953 323.514Z" fill="#FF9A0F"/>
<path fill-rule="evenodd" clip-rule="evenodd" d="M229.369 158.076C229.603 157.976 230.269 158.51 229.869 158.777C229.469 159.043 226.957 160.627 226.724 160.927C226.491 161.228 226.177 161.439 225.838 161.439C225.497 161.439 225.078 161.359 225.412 160.825C225.744 160.292 229.369 158.076 229.369 158.076Z" fill="#231F20"/>
<path d="M296.062 133.832L286.801 133.819C286.471 133.774 286.17 133.422 285.937 132.864H283.544C283.149 132.864 282.61 132.536 282.176 132.004L281.475 131.731C281.43 131.659 281.398 131.491 281.372 131.265L280.721 131.261C280.636 131.259 280.568 131.19 280.568 131.104L280.571 130.78L279.374 130.737L279.072 130.888C279.072 130.888 278.579 131.053 278.041 130.909C277.666 130.809 277.11 130.516 277.11 130.516C277.11 130.516 276.711 130.91 275.631 130.906C274.536 130.903 273.864 130.858 273.864 130.858C273.864 130.858 273.328 130.829 272.795 130.503C272.474 130.658 272.037 130.877 271.465 130.868L269.647 130.833C269.647 130.833 268.896 130.81 268.451 130.486C267.924 130.752 267.619 130.841 267.357 130.852L266.712 130.867C266.712 130.867 266.636 130.929 266.564 130.935L265.716 130.884L265.577 130.806L265.091 130.077C265.091 130.077 264.991 129.974 265.096 129.788C265.183 129.634 265.506 129.106 265.613 128.932C265.66 128.866 265.809 128.881 265.809 128.881L266.749 128.988L267.418 129.016C267.418 129.016 267.79 129.054 267.995 129.135C268.274 129.243 268.555 129.38 268.555 129.38C268.555 129.38 268.851 128.989 270.187 129.011C271.204 129.029 271.926 129.065 271.926 129.065C271.926 129.065 272.522 129.147 272.969 129.418C272.969 129.418 273.262 129.026 274.58 129.048C275.584 129.064 276.296 129.1 276.296 129.1C276.296 129.1 276.884 129.181 277.255 129.416C277.255 129.416 277.595 129.016 278.635 129.075C279.074 129.099 279.23 129.239 279.23 129.239L280.584 129.28L280.587 128.898C280.587 128.813 280.657 128.744 280.743 128.745L281.382 128.75C281.412 128.452 281.451 128.231 281.5 128.16L282.32 127.806C282.726 127.369 283.191 127.105 283.544 127.105L285.94 127.108C286.173 126.555 286.472 126.205 286.801 126.161H296.056C296.214 125.361 296.42 124.869 296.64 124.869H301.312L301.859 124.264C302.03 124.04 302.622 123.954 302.796 124.264C302.914 124.475 302.802 124.782 302.796 124.869L305.504 124.882C305.513 124.736 305.611 124.483 305.711 124.264C305.875 123.906 306.637 123.917 306.836 124.187C306.919 124.3 306.979 124.475 307.064 124.556L309.407 126.252H315.319C315.475 125.393 316.146 125.495 316.146 125.495H322.093C322.757 125.495 323.108 125.729 323.108 125.729L324.789 127.409C325.018 127.686 325.118 127.941 325.061 128.62C325.022 129.089 324.28 131.21 324.28 131.21C324.28 131.21 324.045 132.46 324.514 133.007C325.614 134.681 327.21 139.113 327.21 139.113C327.21 139.113 329.438 139.058 330.369 139.213C331.302 139.369 334.332 143.254 335.263 144.031C336.196 144.808 336.196 146.984 336.351 147.527C336.506 148.072 338.657 151.86 338.657 151.86L341.482 154.348C341.482 154.348 341.791 154.48 342.416 155.427C342.908 156.175 343.563 157.033 343.563 157.033C343.563 157.033 344.553 155.584 345.199 155.003L347.331 153.095C347.22 152.615 347.284 152.261 347.523 152.032C347.523 152.032 349.911 150.159 350.299 149.707C350.686 149.255 353.268 145.574 354.302 144.735C353.978 143.249 354.817 141.764 354.817 141.764C354.817 141.764 361.864 135.212 362.564 134.784C363.262 134.357 364.592 134.131 364.592 134.131C364.592 134.131 364.507 132.915 364.478 132.657C364.449 132.399 364.679 131.366 364.793 130.821C364.908 130.276 364.359 130.034 364.359 130.034C364.359 130.034 363.559 129.527 363.387 129.097C363.216 128.667 363.503 127.799 363.503 127.799L363.009 127.366C363.009 127.366 362.657 126.979 362.686 126.663C362.715 126.348 362.958 125.791 362.958 125.791L363.101 123.657C363.101 123.657 362.356 123.255 362.013 123.227C361.668 123.198 360.808 123.255 360.436 123.227C360.064 123.198 359.65 122.223 359.707 121.85C359.765 121.478 360.322 120.331 360.322 120.331L361.984 116.935C361.984 116.935 360.894 113.97 360.808 113.569C360.722 113.167 361.066 112.852 361.066 112.852L361.467 112.823L361.367 112.443C361.367 112.443 361.488 111.777 361.73 111.293C361.971 110.809 362.395 109.175 362.395 109.175L362.828 104.241L360.992 104.1C360.992 104.1 360.216 102.334 361.982 99.6222C363.746 96.9092 369.918 93.7021 373.193 92.7139C376.47 91.7249 384.011 91.1596 385.14 91.0181C386.27 90.8766 388.427 91.3816 389.726 92.7944C389.898 92.5059 389.731 91.9719 389.731 91.9719L390.137 92.2573L390.582 93.3167L390.771 92.7045L391.162 93.774L391.255 93.0485L392.761 94.136C394.285 95.2713 394.771 97.2626 394.771 97.2626C394.771 97.2626 396.141 98.7035 397.058 101.105C397.976 103.507 400.151 109.991 400.053 110.98C399.954 111.97 398.683 114.399 398.613 115.105C398.542 115.812 398.613 117.479 398.048 118.426C397.482 119.371 396.494 120.714 396.494 121.35C396.494 121.986 396.451 123.992 395.505 124.345C394.912 126.251 396.608 131.677 398.683 134.432C400.688 136.127 401.535 136.904 401.535 136.904L403.654 140.252C403.654 140.252 410.56 148.051 412.112 151.893C413.665 155.736 415.036 157.883 415.177 160.497C415.318 163.11 415.572 171.05 414.655 172.703C413.736 174.355 412.606 177.817 412.606 177.817C412.606 177.817 411.971 180.105 411.407 180.812C410.842 181.518 404.36 190.616 404.078 191.675C403.796 192.735 399.389 200.562 399.107 201.409C398.824 202.257 398.542 211.921 398.542 211.921C398.542 211.921 399.45 218.376 399.335 219.645C399.223 220.877 398.683 222.302 398.683 222.302C398.683 222.302 399.42 222.243 399.518 222.842C399.616 223.442 400.755 229.741 400.755 229.741C400.755 229.741 400.913 230.478 400.314 230.676C399.714 230.872 398.683 231.364 398.683 231.364L398.88 233.732L399.027 234.714C399.027 234.714 399.97 235.255 400.216 235.746C400.461 236.237 400.412 240.129 400.412 240.129L401.345 240.964C401.345 240.964 401.542 240.954 401.492 242.193C401.444 243.432 400.706 260.217 400.461 261.642C400.216 263.067 399.076 264.257 398.683 265.19C398.291 266.124 397.013 270.311 396.57 270.851C396.129 271.392 395.147 271.637 395.147 271.637C395.147 271.637 395.932 276.07 395.637 277.003C395.343 277.937 394.94 279.127 394.94 279.127C394.94 279.127 396.685 288.566 396.395 292.815C396.105 297.063 396.249 312.706 396.249 312.706C396.249 312.706 397.553 314.973 398.277 318.305C399.002 321.637 400.062 327.816 400.062 327.816L401.076 332.018L401.221 337.715C401.221 337.715 401.944 347.37 402.235 351.764C402.524 356.157 398.277 373.732 398.277 373.732L398.856 386.719C398.856 386.719 399.252 388.011 399.313 388.8C399.374 389.59 398.585 390.985 398.585 390.985C398.585 390.985 400.036 393.651 400.158 394.38C400.279 395.108 399.859 398.625 399.919 399.17C399.98 399.717 400.097 401.112 400.097 401.112C400.069 401.4 399.868 401.602 399.495 401.72L399.616 403.658C399.616 403.658 400.28 403.962 400.34 404.691C400.401 405.419 400.28 410.572 400.28 410.572C400.28 410.572 399.83 412.368 395.104 413.756C390.379 415.145 388.346 415.022 388.346 415.022L386.184 413.471C386.184 413.471 382.967 415.103 382.437 415.471C381.906 415.837 379.058 417.226 379.058 417.226L378.486 418.32C378.486 418.32 374.413 420.852 367.687 421.301C360.962 421.75 353.51 421.089 349.069 417.75C347.11 416.369 346.622 415.51 346.622 415.51C346.622 415.51 346.336 414.818 346.458 414.286C346.581 413.756 347.315 412.171 347.315 412.171C347.315 412.171 347.723 411.844 348.335 411.805C348.58 410.007 348.817 407.892 351.959 406.75C355.101 405.606 356.766 405.566 357.664 405.279C358.562 404.994 362.88 402.545 362.88 402.545C362.88 402.545 362.962 402.267 363.248 401.613C363.44 401.174 365.05 400.143 366.233 399.391C365.861 399.346 365.872 398.71 366.027 398.611C366.483 398.266 367.093 398.667 367.25 398.735L367.443 398.593C367.773 398.318 368.749 397.232 369.353 396.553C369.236 396.421 369.306 396.102 369.306 396.102C369.306 396.102 369.333 395.895 369.763 395.815C369.721 395.67 369.713 395.431 369.891 395.09C370.21 394.478 370.985 393.375 370.985 393.375C370.985 393.375 365.666 395.23 358.091 394.535C350.516 393.841 344.729 388.665 344.729 388.665C344.729 388.665 344.487 386.869 344.573 386.217C344.661 385.566 345.371 384.546 345.371 384.546C345.371 384.546 345.718 384.068 346.196 384.286C346.325 383.418 347.041 380.964 349.018 380.486C350.993 380.007 357.656 380.486 357.656 380.486L361.759 380.268L364.778 378.272C364.943 377.796 365.129 377.526 365.34 377.46C365.407 377.332 365.692 377.29 366.197 377.333L367.582 376.417C367.604 376.155 367.669 375.975 367.777 375.875C367.777 375.875 367.948 375.755 368.213 375.886C368.316 375.603 368.594 374.973 369.118 374.513C369.812 373.906 370.528 372.994 370.528 372.994C370.528 372.994 370.616 369.172 371.224 368.369C371.831 367.564 373.61 365.567 373.61 365.567C373.61 365.567 371.267 363.916 370.789 363.308C370.312 362.701 370.757 358.018 370.913 357.241C371.069 356.464 371.301 354.522 371.301 353.356C371.301 352.191 371.378 336.961 371.378 336.961C371.378 336.961 370.136 336.34 369.981 335.408C369.826 334.475 371.069 332.533 370.68 331.755C370.291 330.978 368.738 326.472 368.116 325.229C367.495 323.986 366.796 322.743 366.097 322.586C365.398 322.432 363.845 321.733 363.456 320.489C363.069 319.246 357.476 299.199 357.01 297.335C356.544 295.47 353.283 266.409 353.283 266.409C353.283 266.409 351.598 267.19 350.728 266.355C350.576 266.012 351.411 264.414 351.563 263.581C351.715 262.749 351.297 260.204 351.297 260.204C351.297 260.204 346.437 262.749 345.871 262.939C345.305 263.128 344.279 263.509 344.394 262.786C344.507 262.065 345.985 260.169 346.44 257.89C346.896 255.611 347.068 242.788 347.068 242.788C347.068 242.788 346.603 241.934 347.068 240.924C347.535 239.914 348.234 238.748 348.234 238.748C348.234 238.748 348.156 230.9 348.545 230.201C348.933 229.502 350.331 229.812 350.331 229.812C350.331 229.812 350.329 229.112 350.255 228.156C350.206 227.532 351.496 227.404 351.496 227.404L350.843 223.108C350.843 223.108 349.266 199.591 350.414 194.01C345.547 188.08 340.43 179.15 340.43 179.15C340.43 179.15 337.147 179.54 335.63 179.244C336.152 180.609 336.575 181.746 336.819 182.463C338.371 187.003 340.538 193.837 338.633 198.792C337.784 201.003 335.888 208.98 335.943 215.897L334.38 215.91C334.324 208.794 336.255 200.622 337.175 198.23C338.837 193.907 336.944 187.662 335.341 182.969C334.99 181.939 334.269 180.041 333.416 177.848C333.23 177.677 333.121 177.564 333.121 177.564C330.121 175.061 329.145 174.375 327.21 172.466C322.678 167.995 318.272 161.015 318.272 161.015L314.555 153.846C314.555 153.846 313.364 154.16 312.424 153.704C311.483 153.248 309.96 152.575 309.96 152.575L306.761 152.763C306.761 152.763 305.366 154.599 304.362 154.348C303.36 154.097 301.289 152.951 300.458 151.759C299.626 150.567 299.83 150.128 299.83 150.128C299.83 150.128 299.078 149.627 298.577 148.936C298.075 148.246 297.385 146.661 297.385 146.661C297.385 146.661 295.943 145.846 295.692 145.343C295.441 144.842 294.797 142.692 294.735 141.5C293.589 141.123 293.104 139.43 293.104 138.471C293.104 137.514 293.669 136.715 293.669 136.715C293.669 136.715 295.314 134.857 296.209 134.481L296.062 133.832ZM355.257 170.026L351.676 172.134L354.645 174.796L355.257 170.026Z" fill="#231F20"/>
<path d="M378.035 171.183C378.035 171.183 381.958 167.943 386.798 164.652C391.598 161.389 397.426 157.986 401.207 157.784C402.91 157.694 404.452 157.83 405.831 158.129C405.589 157.056 404.988 154.456 404.228 151.645C403.219 147.922 401.961 143.959 400.917 142.586L401.538 142.112C403.466 144.647 405.86 154.602 406.679 158.339C410.824 159.495 413.331 162.16 414.129 164.357C415.21 167.334 413.759 177.673 412.813 179.479L412.119 179.116C412.987 177.46 414.386 167.353 413.395 164.624C412.425 161.956 408.406 158.184 401.249 158.566C395.365 158.879 383.289 167.857 378.532 171.786L378.035 171.183Z" fill="#FF9A0F"/>
<path fill-rule="evenodd" clip-rule="evenodd" d="M361.422 112.765L362.942 112.995C362.942 112.995 376.385 112.581 379.329 112.443C382.273 112.304 389.685 112.396 389.685 112.396C389.685 112.396 390.191 113.364 389.869 113.457C389.547 113.549 386.276 113.411 386.276 113.411C386.276 113.411 385.175 112.396 383.747 112.489C382.318 112.581 380.476 113.918 380.476 113.918C380.476 113.918 375.971 114.696 374.773 115.433C373.575 116.171 371.916 117.369 371.548 117.507C371.178 117.646 365.522 119.807 365.2 119.945C364.877 120.083 364.371 120.222 364.002 119.899C362.744 118.798 362.428 118.059 361.882 116.862L359.123 113.134L360.229 111.751L361.422 112.765Z" fill="#FF9A0F"/>
<path d="M332.544 134.164L331.302 118.779L304.662 118.079L305.509 124.875C305.331 125.583 305.213 126.189 305.152 127.011C305.08 127.327 304.809 127.487 304.602 127.493H302.737C302.547 127.47 302.376 127.409 302.32 127.038C302.32 125.862 302.786 124.895 302.786 124.895L303.411 124.004L302.953 122.625L298.099 122.819C298.099 122.819 293.924 126.158 293.145 126.158C292.365 126.158 291.733 127.874 291.733 129.99C291.733 132.108 292.365 133.823 293.145 133.823L296.278 134.384C296.946 134.193 297.708 134.098 298.424 135.004C299.139 135.909 299.329 137.149 299.329 137.674C299.329 138.198 298.948 138.832 298.948 138.832C298.948 138.832 301.202 136.816 302.202 136.291C303.204 135.766 304.061 136.243 304.538 136.769C305.015 137.292 305.778 138.975 305.539 139.881C307.03 138.832 307.74 138.69 308.529 139.452C309.013 139.92 309.434 140.388 309.631 140.845H311.556C311.891 140.822 312.117 140.887 312.235 141.04L312.778 141.855C312.836 142.044 313.002 142.149 313.276 142.172H314.634C314.989 142.133 315.29 142.041 315.539 141.901L317.161 141.855C318.139 141.453 321.094 141.452 323.04 141.884C325.184 142.361 326.151 142.933 326.151 142.933C326.151 142.933 327.915 142.266 328.248 142.026C328.581 141.788 328.296 141.168 328.296 141.168L327.2 139.07L332.544 134.164Z" fill="#FF9A0F"/>
<path d="M296.112 126.09C295.921 127.002 295.795 128.407 295.795 129.99C295.795 131.752 295.95 133.289 296.177 134.173L295.748 134.284C295.507 133.348 295.353 131.768 295.353 129.99C295.353 128.39 295.479 126.952 295.679 126L296.112 126.09Z" fill="#231F20"/>
<path d="M316.937 124.638C316.526 124.817 315.801 125.434 315.75 126.355C315.727 126.768 316.347 126.803 316.37 126.389C316.405 125.774 316.916 125.326 317.187 125.207C317.566 125.041 317.316 124.471 316.937 124.638ZM322.803 124.638C322.392 124.817 321.667 125.434 321.616 126.355C321.593 126.768 322.213 126.803 322.236 126.389C322.27 125.774 322.781 125.326 323.052 125.207C323.432 125.041 323.182 124.471 322.803 124.638ZM321.586 125.207C321.965 125.041 321.716 124.471 321.337 124.638C320.925 124.817 320.2 125.434 320.149 126.355C320.126 126.768 320.747 126.803 320.769 126.389C320.804 125.774 321.315 125.326 321.586 125.207ZM320.119 125.207C320.499 125.041 320.249 124.471 319.87 124.638C319.459 124.817 318.734 125.434 318.683 126.355C318.66 126.768 319.28 126.803 319.303 126.389C319.337 125.774 319.849 125.326 320.119 125.207ZM318.652 125.207C319.033 125.041 318.783 124.471 318.404 124.638C317.992 124.817 317.268 125.434 317.216 126.355C317.193 126.768 317.814 126.803 317.837 126.389C317.871 125.774 318.382 125.326 318.652 125.207Z" fill="#231F20"/>
<path fill-rule="evenodd" clip-rule="evenodd" d="M398.486 222.149C398.486 222.149 393.909 224.832 391.651 225.934C389.391 227.037 379.195 230.653 379.195 230.653C379.195 230.653 364.593 231.331 361.317 231.331C358.041 231.331 352.138 232.094 352.138 232.094V229.636L352.621 229.551L351.009 226.412L344.824 226.952L340.756 260.066L344.824 266.988L351.121 260.066C351.121 260.066 349.964 255.318 349.879 253.736C349.795 252.155 350.867 246.928 350.867 246.928C350.867 246.928 352.646 252.269 352.732 253.087C352.816 253.906 351.036 262.186 351.036 262.186L348.439 272.131L353.24 266.226C353.24 266.226 354.398 265.293 355.668 265.462C356.94 265.633 358.155 266.48 359.567 266.226C360.977 265.971 363.945 265.462 363.945 265.462L371.936 265.208C371.936 265.208 376.993 266.451 377.416 264.699C377.84 262.949 376.229 261.677 376.229 260.914C376.229 260.151 376.314 255.093 376.314 255.093C376.314 255.093 377.183 252.677 377.437 252.113C377.691 251.548 377.924 242.548 378.009 241.362C378.094 240.175 379.45 237.237 379.45 237.237C379.45 237.237 390.803 235.117 392.667 234.778C394.531 234.438 397.638 231.84 397.638 231.84L400.914 230.738L403.541 228.309L401.677 221.301L398.486 222.149Z" fill="#FF9A0F"/>
<path fill-rule="evenodd" clip-rule="evenodd" d="M369.524 396.032L354.198 398.587C354.198 398.587 342.874 409.085 342.806 409.568C342.784 409.714 343.16 410.952 343.711 412.62C344.169 410.761 344.511 409.435 344.511 409.435L348.322 411.209C348.322 411.209 348.254 412.771 348.527 413.18C354.384 417.471 364.531 417.471 369.228 417.402C373.927 417.334 377.397 415.158 377.397 415.158C377.397 415.158 384.482 411.209 386.384 410.253C388.287 409.299 394.832 407.389 396.803 406.645C398.774 405.901 399.735 403.644 399.735 403.644C399.735 403.644 401.499 403.968 403.115 404.311L403.076 403.558L400.245 401.557C400.245 401.557 394.447 402.937 393.065 403.351C391.684 403.766 387.197 403.49 383.332 402.73C379.465 401.969 373.597 398.448 372.906 397.688C372.216 396.928 370.351 395.617 369.524 396.032Z" fill="#FF9A0F"/>
<path fill-rule="evenodd" clip-rule="evenodd" d="M368.074 376.14L364.139 372.685C364.139 372.685 348.26 373.722 347.984 374.206C347.707 374.689 340.595 384.773 340.388 385.326C340.338 385.461 340.713 386.151 341.309 387.116C341.612 384.951 341.908 383.094 341.908 383.094L346.154 384.158L346.057 385.898C346.057 385.898 346.304 386.621 347.603 387.485C350.496 389.411 356.143 390.776 359.914 391.259C363.45 391.712 370.911 390.254 371.832 390.069L371.925 390.051L371.94 389.676C371.94 389.676 371.318 388.987 371.457 387.329C371.594 385.672 373.667 384.704 373.667 384.704L373.804 383.876L373.183 383.046L372.009 380.906C372.009 380.906 369.593 378.971 368.903 378.142C368.212 377.312 368.074 376.14 368.074 376.14Z" fill="#FF9A0F"/>
<path d="M391.358 407.958L386.442 403.678C386.442 403.678 385.875 403.282 385.436 403.186C385.037 403.099 384.409 403.018 383.795 403.206C381.283 403.98 372.925 408.418 370.995 408.232C370.823 408.214 370.345 407.207 370.241 406.973C369.427 407.123 368.801 411.231 372.637 409.896C374.193 409.353 383.72 404.723 385.04 405.01C385.16 405.035 385.264 405.066 385.339 405.09L390.118 409.35C391.045 410.177 392.285 408.784 391.358 407.958Z" fill="#231F20"/>
<path d="M363.208 384.381L362.675 383.089C361.576 383.26 362.051 385.494 362.051 385.494C362.051 385.494 362.203 386.076 362.843 386.31C364.188 386.798 368.571 385.448 369.779 385.175C371.236 384.847 374.125 385.073 374.171 385.076C375.409 385.177 375.561 383.318 374.322 383.217C374.322 383.217 373.534 383.153 372.536 383.136C369.535 383.086 366.84 383.955 363.943 384.602C363.4 384.722 363.269 384.397 363.208 384.381Z" fill="#231F20"/>
<path d="M366.482 399.391C367.167 399.248 371.729 403.601 371.913 403.78C372.358 404.214 373.009 403.547 372.564 403.113C372.564 403.113 371.342 401.923 369.995 400.76C369.445 400.285 367.229 398.283 366.292 398.478C365.684 398.605 365.874 399.518 366.482 399.391Z" fill="#231F20"/>
<path d="M367.106 399.401C367.56 399.266 371.111 400.282 372.441 400.609L373.299 399.874C373.111 399.825 371.677 399.451 370.313 399.149C369.779 399.029 367.346 398.457 366.723 398.64C366.127 398.816 366.51 399.577 367.106 399.401Z" fill="#231F20"/>
<path d="M369.609 396.751C372.866 397.59 374.604 400.752 374.623 400.95C374.685 401.57 375.613 401.477 375.552 400.859C375.488 400.221 373.426 396.771 369.841 395.849C369.24 395.693 369.008 396.597 369.609 396.751Z" fill="#231F20"/>
<path fill-rule="evenodd" clip-rule="evenodd" d="M365.983 381.151C366.363 380.783 366.41 380.215 366.088 379.881C365.767 379.547 365.197 379.576 364.817 379.943C364.435 380.311 364.389 380.879 364.711 381.212C365.032 381.547 365.602 381.519 365.983 381.151Z" fill="#231F20"/>
<path fill-rule="evenodd" clip-rule="evenodd" d="M369.12 379.412C369.501 379.044 369.548 378.476 369.226 378.142C368.904 377.809 368.335 377.836 367.954 378.204C367.573 378.57 367.526 379.14 367.848 379.473C368.17 379.807 368.739 379.78 369.12 379.412Z" fill="#231F20"/>
<path d="M365.186 377.555C364.404 378.297 364.711 379.842 365.057 380.717C365.251 381.209 365.988 380.917 365.794 380.426C365.794 380.426 365.616 379.974 365.531 379.433C365.438 378.845 365.489 378.36 365.732 378.129C366.115 377.766 365.569 377.19 365.186 377.555Z" fill="#231F20"/>
<path d="M365.73 378.108C366.377 377.955 367.034 378.076 367.046 378.068C367.314 377.886 367.644 377.703 367.887 377.52C367.887 377.52 365.992 377.231 365.548 377.335C365.034 377.458 365.215 378.229 365.73 378.108Z" fill="#231F20"/>
<path d="M367.631 376.096C367.389 376.906 367.739 378.178 368.069 378.942C368.279 379.427 369.006 379.114 368.797 378.629C368.797 378.629 368.631 378.243 368.499 377.748C368.359 377.225 368.284 376.678 368.39 376.324C368.541 375.817 367.783 375.59 367.631 376.096Z" fill="#231F20"/>
<path fill-rule="evenodd" clip-rule="evenodd" d="M307.226 134.836C307.226 134.388 307.588 134.026 308.035 134.026H313.831C314.278 134.026 314.641 134.388 314.641 134.836V137.378C314.641 137.826 314.278 138.188 313.831 138.188H308.035C307.588 138.188 307.226 137.826 307.226 137.378V134.836Z" fill="#231F20"/>
<path d="M319.833 135.732H321V135.101L319.833 135.1V135.732ZM319.833 137.063H321V136.425H319.833V137.063ZM318.018 134.41H319.187V133.775H318.018V134.41ZM318.018 135.732H319.187V135.1L318.018 135.101V135.732ZM318.018 137.063H319.187V136.425H318.018V137.063ZM318.018 138.385H319.187V137.756H318.018V138.385ZM317.372 136.425H316.204V137.063H317.372V136.425ZM317.372 135.101L316.204 135.102V135.732H317.372V135.101ZM320.172 138.385C320.425 138.213 320.647 138 320.83 137.756H319.833V138.385H320.172ZM316.375 137.756C316.558 138 316.781 138.213 317.034 138.385H317.372V137.756H316.375ZM317.034 133.775C316.779 133.948 316.555 134.163 316.37 134.41H317.372V133.775H317.034ZM320.835 134.41C320.65 134.163 320.426 133.948 320.172 133.775H319.833V134.41H320.835Z" fill="#231F20"/>
<path d="M302.805 134.127C302.39 134.236 302.083 134.614 302.083 135.064V137.031C302.083 137.482 302.39 137.859 302.805 137.969V134.127ZM304.272 135.064C304.272 134.6 303.945 134.211 303.509 134.116V137.979C303.945 137.884 304.272 137.496 304.272 137.031V135.064Z" fill="#231F20"/>
<path fill-rule="evenodd" clip-rule="evenodd" d="M403.544 139.884C403.544 139.884 403.951 141.108 403.136 141.787C402.32 142.467 386.805 151.122 385.572 151.665C383.982 152.367 378.527 152.67 377.534 152.345C377.534 152.345 374.534 150.316 374.602 149.49C374.67 148.664 375.903 145.673 375.903 145.673L378.07 143.113L401.708 130.279L405.523 136.271L403.544 139.884Z" fill="#FF9A0F"/>
<path fill-rule="evenodd" clip-rule="evenodd" d="M375.563 172.625L378.618 170.727C378.618 170.727 387.629 179.302 390.686 180.04C393.741 180.778 402.946 186.594 402.946 186.594L401.154 189.459C401.154 189.459 399.029 187.965 397.869 187.754C396.71 187.543 379.673 184.486 379.673 184.486L374.491 175.173L375.563 172.625Z" fill="#FF9A0F"/>
<path fill-rule="evenodd" clip-rule="evenodd" d="M349.32 149.993C349.32 149.993 349.866 152.505 350.392 153.155C350.918 153.806 356.522 158.339 356.522 158.339L356.101 161.941L349.004 161.098L345.842 150.625L349.32 149.993Z" fill="#FF9A0F"/>
<path fill-rule="evenodd" clip-rule="evenodd" d="M342.874 154.708C340.712 154.548 340.147 156.952 340.147 156.952C340.147 156.952 336.467 159.68 335.661 160.561C334.855 161.443 332.934 164.654 333.173 165.535C333.413 166.416 335.581 170.828 336.061 171.389C336.542 171.95 336.943 171.789 336.943 171.789C336.943 171.789 336.462 170.828 336.462 169.786C336.462 168.745 341.668 159.841 344.156 161.363C344.958 163.046 346.644 166.176 346.644 166.176C346.644 166.176 347.525 165.059 347.205 163.932C346.884 162.805 347.445 161.283 346.884 160.642C346.324 160.001 343.576 157.648 343.496 157.007C343.416 156.366 342.874 154.708 342.874 154.708Z" fill="#FF9A0F"/>
<path fill-rule="evenodd" clip-rule="evenodd" d="M316.827 152.222C316.827 152.222 315.485 153.565 314.519 153.978C313.555 154.392 312.82 156.827 312.82 156.827L315.209 157.516C315.209 157.516 315.585 157.149 316.138 157.287C316.689 157.425 318.388 157.287 318.388 157.287C318.388 157.287 316.827 155.174 316.78 154.714C316.734 154.254 316.827 152.222 316.827 152.222Z" fill="#FF9A0F"/>
<path fill-rule="evenodd" clip-rule="evenodd" d="M357.003 235.526C357.003 235.216 357.256 234.963 357.567 234.963C357.878 234.963 358.129 235.216 358.129 235.526C358.129 235.837 357.878 236.09 357.567 236.09C357.256 236.09 357.003 235.837 357.003 235.526Z" fill="#FF9A0F"/>
<path fill-rule="evenodd" clip-rule="evenodd" d="M364.334 256.385C364.334 256 364.647 255.687 365.033 255.687C365.419 255.687 365.731 256 365.731 256.385C365.731 256.772 365.419 257.083 365.033 257.083C364.647 257.083 364.334 256.772 364.334 256.385Z" fill="#231F20"/>
<path fill-rule="evenodd" clip-rule="evenodd" d="M364.334 260.689C364.334 260.304 364.647 259.991 365.033 259.991C365.419 259.991 365.731 260.304 365.731 260.689C365.731 261.076 365.419 261.388 365.033 261.388C364.647 261.388 364.334 261.076 364.334 260.689Z" fill="#231F20"/>
<path d="M374.308 230.202C373.982 230.115 373.639 230.154 373.38 230.309C373.38 230.309 371.258 231.776 370.85 232.417C370.443 233.058 370.792 233.699 370.792 233.699L371.723 235.039C372.011 235.468 371.952 236.505 371.55 238.148L370.744 240.996C371.821 240.999 372.7 241.007 373.281 241.012L374.133 238.207C374.422 237.285 374.771 236.741 375.182 236.576C375.182 236.576 375.415 236.576 375.939 236.401C376.463 236.226 377.162 235.446 377.22 235.039C377.259 234.765 377.386 232.774 377.204 232.061C377.204 232.061 376.84 231.689 376.678 231.738C376.516 231.786 376.274 232.206 376.274 232.206L375.386 233.498C375.263 233.773 375.043 233.848 374.692 233.757L373.449 232.965C373.252 232.708 373.193 232.466 373.271 232.239L374.466 230.704C374.526 230.486 374.473 230.319 374.308 230.202ZM367.018 241.014L367.263 239.432L367.714 239.42L367.844 239.277L367.995 239.282L368.401 239.155L368.941 238.56L369.037 237.852L368.969 237.711C368.943 237.652 368.89 237.558 368.824 237.471C368.597 236.193 368.949 234.932 369.139 234.395L369.223 234.183C369.266 234.203 369.316 234.183 369.336 234.14C369.354 234.097 369.335 234.047 369.292 234.028C369.367 233.979 369.416 233.959 369.436 233.917C369.454 233.875 369.435 233.825 369.393 233.806C369.466 233.757 369.515 233.738 369.534 233.696C369.552 233.653 369.533 233.604 369.492 233.586C369.563 233.537 369.611 233.518 369.63 233.477C369.649 233.435 369.63 233.386 369.588 233.367C369.658 233.319 369.706 233.299 369.724 233.258C369.741 233.216 369.722 233.168 369.68 233.151C369.75 233.101 369.797 233.081 369.814 233.04C369.831 232.998 369.81 232.951 369.769 232.934C369.835 232.885 369.883 232.865 369.898 232.825C369.915 232.783 369.896 232.737 369.854 232.721C369.921 232.67 369.966 232.649 369.981 232.607L369.958 232.442C370.072 232.352 370.051 232.308 370.009 232.294C370.073 232.243 370.117 232.22 370.13 232.18L370.101 232.019C370.209 231.927 370.187 231.884 370.146 231.872C370.205 231.82 370.248 231.797 370.259 231.757L370.223 231.599C370.327 231.506 370.302 231.465 370.262 231.453C370.318 231.401 370.359 231.376 370.367 231.335L370.325 231.184C370.421 231.087 370.395 231.048 370.355 231.04C370.407 230.986 370.445 230.959 370.452 230.919L370.402 230.774C370.49 230.672 370.462 230.636 370.422 230.63C370.468 230.574 370.504 230.546 370.508 230.506L370.448 230.368C370.528 230.265 370.499 230.23 370.46 230.227C370.502 230.169 370.534 230.14 370.537 230.101L370.473 229.969C370.545 229.864 370.516 229.832 370.478 229.83C370.516 229.774 370.548 229.743 370.548 229.706L370.481 229.579C370.549 229.473 370.519 229.442 370.481 229.442C370.518 229.386 370.548 229.356 370.547 229.318L370.477 229.197C370.541 229.091 370.51 229.062 370.473 229.063C370.508 229.008 370.537 228.977 370.535 228.941L370.464 228.824C370.525 228.718 370.493 228.691 370.458 228.693C370.49 228.639 370.518 228.608 370.516 228.572L370.444 228.46C370.501 228.355 370.47 228.328 370.435 228.331C370.466 228.277 370.492 228.247 370.49 228.213L370.418 228.103C370.472 228 370.441 227.974 370.407 227.977C370.437 227.926 370.462 227.895 370.459 227.861L370.387 227.756C370.438 227.654 370.408 227.629 370.374 227.632C370.402 227.582 370.427 227.551 370.423 227.518C370.385 227.412 370.409 227.381 370.405 227.348C370.365 227.245 370.388 227.215 370.384 227.182C370.344 227.08 370.367 227.051 370.363 227.018L370.247 226.612L370.139 225.633C370.062 225.14 369.615 224.715 368.953 224.622C368.219 224.518 367.717 224.805 367.47 225.279L367.116 226.127C367.025 226.188 367.039 226.223 367.068 226.236C366.961 226.339 366.973 226.372 367 226.388C366.894 226.493 366.905 226.525 366.932 226.541C366.827 226.649 366.839 226.682 366.865 226.697C366.759 226.806 366.771 226.84 366.799 226.855C366.69 226.966 366.703 227.002 366.732 227.016C366.621 227.129 366.636 227.166 366.668 227.18C366.553 227.294 366.569 227.331 366.602 227.344C366.485 227.46 366.501 227.496 366.534 227.51C366.417 227.627 366.433 227.665 366.467 227.679C366.35 227.799 366.367 227.837 366.4 227.85C366.346 227.887 366.308 227.905 366.295 227.939L366.329 228.08C366.218 228.148 366.235 228.187 366.27 228.2C366.217 228.238 366.178 228.258 366.166 228.293L366.207 228.44C366.154 228.419 366.115 228.439 366.102 228.474L366.149 228.625C366.092 228.602 366.053 228.622 366.041 228.658L366.092 228.811C366.033 228.789 365.993 228.809 365.983 228.846L366.037 229.001C365.976 228.978 365.937 229 365.927 229.037L365.984 229.192C365.922 229.171 365.884 229.195 365.873 229.233L365.934 229.386C365.873 229.367 365.834 229.392 365.826 229.431L365.888 229.583C365.827 229.568 365.791 229.593 365.783 229.633L365.846 229.783C365.741 229.88 365.769 229.918 365.809 229.923C365.759 229.98 365.722 230.008 365.717 230.049L365.777 230.195C365.688 230.302 365.718 230.338 365.759 230.342C365.712 230.403 365.676 230.435 365.673 230.476L365.735 230.621C365.657 230.734 365.686 230.768 365.726 230.773C365.683 230.841 365.651 230.873 365.649 230.914L365.714 231.06C365.643 231.177 365.673 231.209 365.712 231.214C365.673 231.288 365.642 231.32 365.642 231.361L365.715 231.509C365.647 231.632 365.679 231.664 365.72 231.666C365.681 231.742 365.65 231.777 365.652 231.819L365.734 231.967C365.665 232.095 365.701 232.129 365.745 232.128C365.706 232.202 365.672 232.241 365.676 232.287L365.77 232.434C365.696 232.57 365.735 232.603 365.781 232.599C365.741 232.676 365.706 232.717 365.711 232.763L365.82 232.912C365.742 233.053 365.794 233.087 365.839 233.082C365.784 233.16 365.749 233.201 365.753 233.248L365.869 233.32C365.904 233.596 365.934 233.819 365.941 233.966C365.971 234.534 366.038 235.746 365.458 236.907L365.045 237.569L364.954 238.187L365.006 238.488L365.612 238.876L366.326 239.362L366.067 241.026L367.018 241.014ZM364.228 241.061C364.308 240.893 364.332 240.685 364.325 240.48C364.321 240.373 364.238 239.306 364.194 239.054C364.151 238.803 364.026 238.688 364.026 238.688C364.026 238.688 363.648 236.827 364.108 234.908C364.414 233.631 364.9 230.004 364.274 227.543C363.958 226.297 363.37 225.406 362.178 225.486C358.621 225.557 360.716 233.945 361.005 235.036C361.508 236.945 361.416 238.795 361.416 238.795C361.416 238.795 361.302 238.92 361.28 239.175C361.259 239.429 361.269 240.5 361.273 240.606C361.284 240.799 361.322 240.992 361.405 241.147C362.345 241.111 363.294 241.083 364.228 241.061ZM356.608 240.41C356.688 240.788 356.693 241.145 356.679 241.424C357.982 241.314 359.414 241.231 360.884 241.168C360.869 239.708 360.798 238.079 360.594 236.815C360.562 236.729 360.569 236.66 360.569 236.66C360.539 236.491 360.512 236.351 360.477 236.198C360.434 236.103 360.441 236.039 360.441 236.039C360.192 235.136 359.288 232.558 356.741 233.062C356.601 233.093 356.469 233.144 356.345 233.211L356.227 233.285C355.452 233.793 355.101 234.973 355.389 235.877L355.426 235.984C355.865 237.01 356.004 237.282 356.075 237.699C356.187 238.352 356.047 238.856 356.105 239.106C356.155 239.323 356.455 239.693 356.608 240.41ZM353.202 241.486L353.253 241.849C353.59 241.787 353.957 241.728 354.349 241.675C354.338 241.659 354.003 240.424 354.012 239.099C354.019 238.218 353.879 235.738 353.383 234.11C353.132 233.287 352.803 232.719 352.311 232.843C352.057 232.888 351.897 233.087 351.805 233.391C351.694 232.954 351.567 232.533 351.425 232.16C351.117 231.356 350.749 230.813 350.267 230.972C348.809 231.331 350.864 236.747 351.138 237.452C351.616 238.681 351.841 239.924 351.841 239.924C351.841 239.924 351.812 240.018 351.838 240.19C351.866 240.362 352.023 241.076 352.039 241.146C352.089 241.351 352.169 241.549 352.286 241.634C352.404 241.72 352.505 241.734 352.598 241.725L352.66 241.97L353.079 241.881L353.013 241.617C353.107 241.573 353.157 241.539 353.202 241.486Z" fill="#231F20"/>
</svg>
