<svg width="553" height="548" viewBox="0 0 553 548" fill="none" xmlns="http://www.w3.org/2000/svg">
<path d="M202.174 298.138C313.832 435.714 515.875 456.726 653.452 345.067L552.365 220.515L451.278 95.9641L249.103 -153.139C111.527 -41.48 90.516 160.562 202.174 298.138ZM557.575 228.173C484.807 287.232 377.941 276.119 318.881 203.351C259.822 130.583 270.935 23.7164 343.703 -35.3429L557.575 228.173Z" fill="#FFDCAC" fill-opacity="0.69"/>
<path d="M203.594 296.986L234.296 272.068L203.594 296.986Z" stroke="#1F1F1F" stroke-width="2.36097"/>
<path d="M286.87 369.215L307.049 335.549L286.87 369.215Z" stroke="#1F1F1F" stroke-width="2.35224"/>
<path d="M389.826 408.608L397.239 370.251L389.826 408.608Z" stroke="#1F1F1F" stroke-width="2.34672"/>
<path d="M500.045 410.41L493.941 372.132L500.045 410.41Z" stroke="#1F1F1F" stroke-width="2.33757"/>
<path d="M190.67 -2.27563L153.593 -16.4604L190.67 -2.27563Z" stroke="#1F1F1F" stroke-width="2.36559"/>
<path d="M172.437 92.4225L132.679 91.7734L172.437 92.4225Z" stroke="#1F1F1F" stroke-width="2.36749"/>
<path d="M187.493 187.69L150.044 200.633L187.493 187.69Z" stroke="#1F1F1F" stroke-width="2.36329"/>
<path d="M207.121 301.255L220.241 290.22L207.121 301.255Z" stroke="#1F1F1F" stroke-width="1.14293"/>
<path d="M210.721 305.46L223.647 294.198L210.721 305.46Z" stroke="#1F1F1F" stroke-width="1.14293"/>
<path d="M214.394 309.6L227.121 298.116L214.394 309.6Z" stroke="#1F1F1F" stroke-width="1.14293"/>
<path d="M218.137 313.678L230.663 301.973L218.137 313.678Z" stroke="#1F1F1F" stroke-width="1.14293"/>
<path d="M221.954 317.69L241.177 299.083L221.954 317.69Z" stroke="#1F1F1F" stroke-width="1.42784"/>
<path d="M225.838 321.633L237.946 309.497L225.838 321.633Z" stroke="#1F1F1F" stroke-width="1.14293"/>
<path d="M229.789 325.509L241.684 313.164L229.789 325.509Z" stroke="#1F1F1F" stroke-width="1.14293"/>
<path d="M233.809 329.313L245.487 316.763L233.809 329.313Z" stroke="#1F1F1F" stroke-width="1.14293"/>
<path d="M237.893 333.049L249.351 320.298L237.893 333.049Z" stroke="#1F1F1F" stroke-width="1.14293"/>
<path d="M242.044 336.712L267.509 307.356L242.044 336.712Z" stroke="#1F1F1F" stroke-width="2.148"/>
<path d="M336.543 393.328L350.63 356.509L336.543 393.328Z" stroke="#1F1F1F" stroke-width="2.16339"/>
<path d="M444.709 414.209L445.337 375.714L444.709 414.209Z" stroke="#1F1F1F" stroke-width="2.13799"/>
<path d="M553.491 396.836L540.944 360.53L553.491 396.836Z" stroke="#1F1F1F" stroke-width="2.13552"/>
<path d="M177.407 44.4678L138.388 36.9286L177.407 44.4678Z" stroke="#1F1F1F" stroke-width="2.17212"/>
<path d="M175.819 140.821L136.606 147.076L175.819 140.821Z" stroke="#1F1F1F" stroke-width="2.17124"/>
<path d="M207.222 231.951L172.607 251.191L207.222 231.951Z" stroke="#1F1F1F" stroke-width="2.16836"/>
<path d="M246.257 340.303L257.262 327.159L246.257 340.303Z" stroke="#1F1F1F" stroke-width="1.14293"/>
<path d="M250.532 343.819L261.307 330.484L250.532 343.819Z" stroke="#1F1F1F" stroke-width="1.14293"/>
<path d="M254.868 347.261L265.408 333.739L254.868 347.261Z" stroke="#1F1F1F" stroke-width="1.14293"/>
<path d="M259.263 350.626L269.564 336.922L259.263 350.626Z" stroke="#1F1F1F" stroke-width="1.14293"/>
<path d="M263.717 353.913L279.418 332.251L263.717 353.913Z" stroke="#1F1F1F" stroke-width="1.42781"/>
<path d="M268.227 357.122L278.045 343.069L268.227 357.122Z" stroke="#1F1F1F" stroke-width="1.14293"/>
<path d="M272.791 360.253L282.363 346.03L272.791 360.253Z" stroke="#1F1F1F" stroke-width="1.14293"/>
<path d="M277.411 363.302L286.732 348.915L277.411 363.302Z" stroke="#1F1F1F" stroke-width="1.14293"/>
<path d="M282.083 366.273L291.151 351.723L282.083 366.273Z" stroke="#1F1F1F" stroke-width="1.14293"/>
<path d="M286.806 369.159L295.619 354.454L286.806 369.159Z" stroke="#1F1F1F" stroke-width="1.14293"/>
<path d="M291.579 371.963L300.134 357.108L291.579 371.963Z" stroke="#1F1F1F" stroke-width="1.14293"/>
<path d="M296.399 374.684L304.695 359.681L296.399 374.684Z" stroke="#1F1F1F" stroke-width="1.14293"/>
<path d="M301.268 377.319L309.299 362.174L301.268 377.319Z" stroke="#1F1F1F" stroke-width="1.14293"/>
<path d="M306.18 379.87L313.947 364.587L306.18 379.87Z" stroke="#1F1F1F" stroke-width="1.14293"/>
<path d="M311.137 382.334L323.284 357.359L311.137 382.334Z" stroke="#1F1F1F" stroke-width="1.45473"/>
<path d="M316.135 384.714L323.362 369.168L316.135 384.714Z" stroke="#1F1F1F" stroke-width="1.14293"/>
<path d="M321.175 387.003L328.131 371.334L321.175 387.003Z" stroke="#1F1F1F" stroke-width="1.14293"/>
<path d="M326.253 389.204L332.934 373.417L326.253 389.204Z" stroke="#1F1F1F" stroke-width="1.14293"/>
<path d="M331.37 391.317L337.775 375.416L331.37 391.317Z" stroke="#1F1F1F" stroke-width="1.14293"/>
<path d="M336.523 393.339L342.648 377.33L336.523 393.339Z" stroke="#1F1F1F" stroke-width="1.14293"/>
<path d="M341.709 395.273L347.555 379.157L341.709 395.273Z" stroke="#1F1F1F" stroke-width="1.14293"/>
<path d="M346.93 397.114L352.492 380.901L346.93 397.114Z" stroke="#1F1F1F" stroke-width="1.14293"/>
<path d="M352.181 398.866L357.46 382.556L352.181 398.866Z" stroke="#1F1F1F" stroke-width="1.14293"/>
<path d="M357.462 400.524L362.455 384.125L357.462 400.524Z" stroke="#1F1F1F" stroke-width="1.14293"/>
<path d="M362.771 402.091L370.284 375.778L362.771 402.091Z" stroke="#1F1F1F" stroke-width="1.44401"/>
<path d="M368.107 403.564L372.525 387L368.107 403.564Z" stroke="#1F1F1F" stroke-width="1.14293"/>
<path d="M373.468 404.943L377.596 388.306L373.468 404.943Z" stroke="#1F1F1F" stroke-width="1.14293"/>
<path d="M378.852 406.23L382.689 389.523L378.852 406.23Z" stroke="#1F1F1F" stroke-width="1.14293"/>
<path d="M384.256 407.422L387.803 390.651L384.256 407.422Z" stroke="#1F1F1F" stroke-width="1.14293"/>
<path d="M389.683 408.52L392.935 391.689L389.683 408.52Z" stroke="#1F1F1F" stroke-width="1.14293"/>
<path d="M395.126 409.523L398.084 392.638L395.126 409.523Z" stroke="#1F1F1F" stroke-width="1.14293"/>
<path d="M400.587 410.43L403.25 393.497L400.587 410.43Z" stroke="#1F1F1F" stroke-width="1.14293"/>
<path d="M406.062 411.242L408.429 394.265L406.062 411.242Z" stroke="#1F1F1F" stroke-width="1.14293"/>
<path d="M411.551 411.96L413.622 394.942L411.551 411.96Z" stroke="#1F1F1F" stroke-width="1.14293"/>
<path d="M417.052 412.58L419.842 385.761L417.052 412.58Z" stroke="#1F1F1F" stroke-width="1.43339"/>
<path d="M422.562 413.105L424.038 396.025L422.562 413.105Z" stroke="#1F1F1F" stroke-width="1.14293"/>
<path d="M428.082 413.533L429.258 396.431L428.082 413.533Z" stroke="#1F1F1F" stroke-width="1.14293"/>
<path d="M433.607 413.864L434.485 396.745L433.607 413.864Z" stroke="#1F1F1F" stroke-width="1.14293"/>
<path d="M439.137 414.099L439.717 396.967L439.137 414.099Z" stroke="#1F1F1F" stroke-width="1.14293"/>
<path d="M444.671 414.239L444.951 397.098L444.671 414.239Z" stroke="#1F1F1F" stroke-width="1.14293"/>
<path d="M450.207 414.28L450.186 397.138L450.207 414.28Z" stroke="#1F1F1F" stroke-width="1.14293"/>
<path d="M455.742 414.226L455.423 397.086L455.742 414.226Z" stroke="#1F1F1F" stroke-width="1.14293"/>
<path d="M461.276 414.075L460.658 396.944L461.276 414.075Z" stroke="#1F1F1F" stroke-width="1.14293"/>
<path d="M466.805 413.827L465.888 396.71L466.805 413.827Z" stroke="#1F1F1F" stroke-width="1.14293"/>
<path d="M472.33 413.483L470.454 387.076L472.33 413.483Z" stroke="#1F1F1F" stroke-width="1.42033"/>
<path d="M477.847 413.043L476.335 395.967L477.847 413.043Z" stroke="#1F1F1F" stroke-width="1.14293"/>
<path d="M483.356 412.507L481.546 395.459L483.356 412.507Z" stroke="#1F1F1F" stroke-width="1.14293"/>
<path d="M488.856 411.874L486.748 394.862L488.856 411.874Z" stroke="#1F1F1F" stroke-width="1.14293"/>
<path d="M494.343 411.145L491.938 394.173L494.343 411.145Z" stroke="#1F1F1F" stroke-width="1.14293"/>
<path d="M499.817 410.321L497.116 393.393L499.817 410.321Z" stroke="#1F1F1F" stroke-width="1.14293"/>
<path d="M505.276 409.401L502.28 392.524L505.276 409.401Z" stroke="#1F1F1F" stroke-width="1.14293"/>
<path d="M510.717 408.386L507.426 391.563L510.717 408.386Z" stroke="#1F1F1F" stroke-width="1.14293"/>
<path d="M516.14 407.278L512.558 390.514L516.14 407.278Z" stroke="#1F1F1F" stroke-width="1.14293"/>
<path d="M521.543 406.073L517.668 389.374L521.543 406.073Z" stroke="#1F1F1F" stroke-width="1.14293"/>
<path d="M526.924 404.775L520.176 377.834L526.924 404.775Z" stroke="#1F1F1F" stroke-width="1.45476"/>
<path d="M532.281 403.382L527.826 386.829L532.281 403.382Z" stroke="#1F1F1F" stroke-width="1.14293"/>
<path d="M537.614 401.898L532.871 385.424L537.614 401.898Z" stroke="#1F1F1F" stroke-width="1.14293"/>
<path d="M542.921 400.32L537.89 383.932L542.921 400.32Z" stroke="#1F1F1F" stroke-width="1.14293"/>
<path d="M548.198 398.649L542.883 382.352L548.198 398.649Z" stroke="#1F1F1F" stroke-width="1.14293"/>
<path d="M553.446 396.887L547.847 380.685L553.446 396.887Z" stroke="#1F1F1F" stroke-width="1.14293"/>
<path d="M558.661 395.033L552.781 378.931L558.661 395.033Z" stroke="#1F1F1F" stroke-width="1.14293"/>
<path d="M167.814 -5.18884L151.701 -11.0351L167.814 -5.18884Z" stroke="#1F1F1F" stroke-width="1.14293"/>
<path d="M166.072 -0.24939L149.86 -5.81413L166.072 -0.24939Z" stroke="#1F1F1F" stroke-width="1.14293"/>
<path d="M164.415 4.71667L148.11 -0.562929L164.415 4.71667Z" stroke="#1F1F1F" stroke-width="1.14293"/>
<path d="M162.847 9.7124L146.45 4.71809L162.847 9.7124Z" stroke="#1F1F1F" stroke-width="1.14293"/>
<path d="M169.829 17.1531L144.884 10.0281L169.829 17.1531Z" stroke="#1F1F1F" stroke-width="1.40612"/>
<path d="M159.97 19.7819L143.409 15.362L159.97 19.7819Z" stroke="#1F1F1F" stroke-width="1.14293"/>
<path d="M158.664 24.853L142.03 20.7242L158.664 24.853Z" stroke="#1F1F1F" stroke-width="1.14293"/>
<path d="M157.449 29.9467L140.744 26.109L157.449 29.9467Z" stroke="#1F1F1F" stroke-width="1.14293"/>
<path d="M156.32 35.0598L139.551 31.5131L156.32 35.0598Z" stroke="#1F1F1F" stroke-width="1.14293"/>
<path d="M155.282 40.1918L138.453 36.9393L155.282 40.1918Z" stroke="#1F1F1F" stroke-width="1.14293"/>
<path d="M154.332 45.3413L137.45 42.381L154.332 45.3413Z" stroke="#1F1F1F" stroke-width="1.14293"/>
<path d="M153.476 50.5085L136.543 47.8434L153.476 50.5085Z" stroke="#1F1F1F" stroke-width="1.14293"/>
<path d="M152.707 55.6884L135.731 53.3192L152.707 55.6884Z" stroke="#1F1F1F" stroke-width="1.14293"/>
<path d="M152.029 60.8788L135.015 58.81L152.029 60.8788Z" stroke="#1F1F1F" stroke-width="1.14293"/>
<path d="M161.213 67.0983L134.395 64.3084L161.213 67.0983Z" stroke="#1F1F1F" stroke-width="1.43356"/>
<path d="M150.945 71.2953L133.868 69.8189L150.945 71.2953Z" stroke="#1F1F1F" stroke-width="1.14293"/>
<path d="M150.539 76.5156L133.441 75.3376L150.539 76.5156Z" stroke="#1F1F1F" stroke-width="1.14293"/>
<path d="M150.225 81.7418L133.108 80.8624L150.225 81.7418Z" stroke="#1F1F1F" stroke-width="1.14293"/>
<path d="M150.002 86.9728L132.873 86.3935L150.002 86.9728Z" stroke="#1F1F1F" stroke-width="1.14293"/>
<path d="M149.872 92.2079L132.733 91.927L149.872 92.2079Z" stroke="#1F1F1F" stroke-width="1.14293"/>
<path d="M149.832 97.4436L132.692 97.4622L149.832 97.4436Z" stroke="#1F1F1F" stroke-width="1.14293"/>
<path d="M149.884 102.68L132.745 102.997L149.884 102.68Z" stroke="#1F1F1F" stroke-width="1.14293"/>
<path d="M150.026 107.915L132.896 108.53L150.026 107.915Z" stroke="#1F1F1F" stroke-width="1.14293"/>
<path d="M150.261 113.146L133.145 114.06L150.261 113.146Z" stroke="#1F1F1F" stroke-width="1.14293"/>
<path d="M160.688 117.656L133.49 119.587L160.688 117.656Z" stroke="#1F1F1F" stroke-width="1.44159"/>
<path d="M151.001 123.59L133.93 125.104L151.001 123.59Z" stroke="#1F1F1F" stroke-width="1.14293"/>
<path d="M151.509 128.804L134.465 130.614L151.509 128.804Z" stroke="#1F1F1F" stroke-width="1.14293"/>
<path d="M152.108 134.005L135.099 136.114L152.108 134.005Z" stroke="#1F1F1F" stroke-width="1.14293"/>
<path d="M152.796 139.196L135.827 141.602L152.796 139.196Z" stroke="#1F1F1F" stroke-width="1.14293"/>
<path d="M153.576 144.376L136.652 147.075L153.576 144.376Z" stroke="#1F1F1F" stroke-width="1.14293"/>
<path d="M154.444 149.537L137.57 152.532L154.444 149.537Z" stroke="#1F1F1F" stroke-width="1.14293"/>
<path d="M155.406 154.685L138.585 157.974L155.406 154.685Z" stroke="#1F1F1F" stroke-width="1.14293"/>
<path d="M156.454 159.815L139.694 163.397L156.454 159.815Z" stroke="#1F1F1F" stroke-width="1.14293"/>
<path d="M157.595 164.927L140.898 168.8L157.595 164.927Z" stroke="#1F1F1F" stroke-width="1.14293"/>
<path d="M167.571 167.825L142.197 174.18L167.571 167.825Z" stroke="#1F1F1F" stroke-width="1.41205"/>
<path d="M160.138 175.084L143.589 179.538L160.138 175.084Z" stroke="#1F1F1F" stroke-width="1.14293"/>
<path d="M161.543 180.129L145.073 184.871L161.543 180.129Z" stroke="#1F1F1F" stroke-width="1.14293"/>
<path d="M163.036 185.149L146.651 190.177L163.036 185.149Z" stroke="#1F1F1F" stroke-width="1.14293"/>
<path d="M164.616 190.14L148.321 195.453L164.616 190.14Z" stroke="#1F1F1F" stroke-width="1.14293"/>
<path d="M166.281 195.103L150.084 200.701L166.281 195.103Z" stroke="#1F1F1F" stroke-width="1.14293"/>
<path d="M168.035 200.038L151.937 205.917L168.035 200.038Z" stroke="#1F1F1F" stroke-width="1.14293"/>
<path d="M169.873 204.939L153.88 211.1L169.873 204.939Z" stroke="#1F1F1F" stroke-width="1.14293"/>
<path d="M171.797 209.81L155.915 216.247L171.797 209.81Z" stroke="#1F1F1F" stroke-width="1.14293"/>
<path d="M173.807 214.646L158.039 221.359L173.807 214.646Z" stroke="#1F1F1F" stroke-width="1.14293"/>
<path d="M184.677 215.526L160.251 226.433L184.677 215.526Z" stroke="#1F1F1F" stroke-width="1.42793"/>
<path d="M178.076 224.208L162.552 231.467L178.076 224.208Z" stroke="#1F1F1F" stroke-width="1.14293"/>
<path d="M180.335 228.931L164.94 236.461L180.335 228.931Z" stroke="#1F1F1F" stroke-width="1.14293"/>
<path d="M182.677 233.615L167.416 241.412L182.677 233.615Z" stroke="#1F1F1F" stroke-width="1.14293"/>
<path d="M185.101 238.258L169.978 246.32L185.101 238.258Z" stroke="#1F1F1F" stroke-width="1.14293"/>
<path d="M187.604 242.857L172.623 251.181L187.604 242.857Z" stroke="#1F1F1F" stroke-width="1.14293"/>
<path d="M190.187 247.411L175.353 255.996L190.187 247.411Z" stroke="#1F1F1F" stroke-width="1.14293"/>
<path d="M192.849 251.92L178.169 260.763L192.849 251.92Z" stroke="#1F1F1F" stroke-width="1.14293"/>
<path d="M195.591 256.382L181.066 265.479L195.591 256.382Z" stroke="#1F1F1F" stroke-width="1.14293"/>
<path d="M198.408 260.794L184.046 270.144L198.408 260.794Z" stroke="#1F1F1F" stroke-width="1.14293"/>
<path d="M209.332 259.729L187.107 274.757L209.332 259.729Z" stroke="#1F1F1F" stroke-width="1.43004"/>
<path d="M286.041 229.246L318.53 202.878L286.041 229.246Z" stroke="#1F1F1F" stroke-width="2"/>
<path d="M350.644 262.218L362.969 241.656L350.644 262.218Z" stroke="#1F1F1F" stroke-width="1.4368"/>
<path d="M413.532 286.28L418.06 262.851L413.532 286.28Z" stroke="#1F1F1F" stroke-width="1.43343"/>
<path d="M480.857 287.381L477.129 264.001L480.857 287.381Z" stroke="#1F1F1F" stroke-width="1.42784"/>
<path d="M544.3 265.146L532.972 244.762L544.3 265.146Z" stroke="#1F1F1F" stroke-width="1.417"/>
<path d="M292.131 35.6099L269.484 26.9446L292.131 35.6099Z" stroke="#1F1F1F" stroke-width="1.44495"/>
<path d="M280.745 93.1477L256.461 92.7514L280.745 93.1477Z" stroke="#1F1F1F" stroke-width="1.44612"/>
<path d="M289.942 151.339L267.068 159.245L289.942 151.339Z" stroke="#1F1F1F" stroke-width="1.44355"/>
<path d="M316.492 225.365L328.235 213.999L316.492 225.365Z" stroke="#1F1F1F" stroke-width="0.872155"/>
<path d="M323.527 242.15L339.082 224.219L323.527 242.15Z" stroke="#1F1F1F" stroke-width="1.31204"/>
<path d="M380.986 276.947L389.59 254.458L380.986 276.947Z" stroke="#1F1F1F" stroke-width="1.32145"/>
<path d="M447.054 289.701L447.44 266.187L447.054 289.701Z" stroke="#1F1F1F" stroke-width="1.30593"/>
<path d="M513.503 279.091L505.839 256.914L513.503 279.091Z" stroke="#1F1F1F" stroke-width="1.30442"/>
<path d="M304.983 9.16443L284.263 -3.25306L304.983 9.16443Z" stroke="#1F1F1F" stroke-width="1.32353"/>
<path d="M283.781 63.8553L259.948 59.2508L283.781 63.8553Z" stroke="#1F1F1F" stroke-width="1.32677"/>
<path d="M282.813 122.711L258.86 126.531L282.813 122.711Z" stroke="#1F1F1F" stroke-width="1.32624"/>
<path d="M301.993 178.374L280.85 190.126L301.993 178.374Z" stroke="#1F1F1F" stroke-width="1.32448"/>
<path d="M340.787 246.671L350.377 233.438L340.787 246.671Z" stroke="#1F1F1F" stroke-width="0.87214"/>
<path d="M368.423 264.041L375.842 248.785L368.423 264.041Z" stroke="#1F1F1F" stroke-width="0.888584"/>
<path d="M398.954 275.541L403.544 259.469L398.954 275.541Z" stroke="#1F1F1F" stroke-width="0.882039"/>
<path d="M430.671 281.493L432.374 265.112L430.671 281.493Z" stroke="#1F1F1F" stroke-width="0.875548"/>
<path d="M463.715 281.639L462.569 265.509L463.715 281.639Z" stroke="#1F1F1F" stroke-width="0.867573"/>
<path d="M495.703 277.622L491.581 261.167L495.703 277.622Z" stroke="#1F1F1F" stroke-width="0.888601"/>
<path d="M527.255 266.961L520.185 251.123L527.255 266.961Z" stroke="#1F1F1F" stroke-width="0.898527"/>
<path d="M554.775 250.942L545.473 237.181L554.775 250.942Z" stroke="#1F1F1F" stroke-width="0.879255"/>
<path d="M298.031 22.0999L284.269 15.4051L298.031 22.0999Z" stroke="#1F1F1F" stroke-width="0.844103"/>
<path d="M287.692 49.3801L272.455 45.0267L287.692 49.3801Z" stroke="#1F1F1F" stroke-width="0.858889"/>
<path d="M281.86 78.7108L265.479 77.0064L281.86 78.7108Z" stroke="#1F1F1F" stroke-width="0.875652"/>
<path d="M281.232 107.846L264.618 109.027L281.232 107.846Z" stroke="#1F1F1F" stroke-width="0.880555"/>
<path d="M285.805 137.038L270.305 140.919L285.805 137.038Z" stroke="#1F1F1F" stroke-width="0.862511"/>
<path d="M295.419 165.225L280.498 171.888L295.419 165.225Z" stroke="#1F1F1F" stroke-width="0.872215"/>
<path d="M309.665 191.083L296.089 200.262L309.665 191.083Z" stroke="#1F1F1F" stroke-width="0.873497"/>
<path d="M204.274 269.471L190.247 279.317L204.274 269.471Z" stroke="#1F1F1F" stroke-width="1.14293"/>
<path d="M207.319 273.731L193.466 283.818L207.319 273.731Z" stroke="#1F1F1F" stroke-width="1.14293"/>
<path d="M210.439 277.937L196.762 288.265L210.439 277.937Z" stroke="#1F1F1F" stroke-width="1.14293"/>
<path d="M213.631 282.088L200.138 292.653L213.631 282.088Z" stroke="#1F1F1F" stroke-width="1.14293"/>
<path d="M536.758 343.316L536.212 341.835L544.509 338.765C544.658 339.132 544.728 339.511 544.725 339.902C544.723 340.545 544.591 341.226 544.327 341.949C544.066 342.667 543.628 343.55 543.014 344.594C542.063 346.218 541.469 347.445 541.232 348.276C540.995 349.108 540.983 349.814 541.198 350.397C541.425 351.008 541.834 351.442 542.426 351.7C543.018 351.958 543.664 351.959 544.366 351.698C545.109 351.424 545.619 350.98 545.901 350.37C546.181 349.762 546.178 349.06 545.893 348.271L547.538 347.848C547.866 349.069 547.791 350.121 547.312 351.002C546.833 351.884 545.998 352.546 544.804 352.986C543.599 353.432 542.522 353.45 541.573 353.043C540.623 352.634 539.967 351.935 539.601 350.949C539.415 350.447 539.335 349.915 539.362 349.353C539.387 348.792 539.54 348.155 539.818 347.442C540.096 346.729 540.616 345.699 541.377 344.353C542.013 343.234 542.413 342.489 542.573 342.115C542.733 341.74 542.849 341.382 542.915 341.039L536.758 343.316Z" fill="#1F1F1F"/>
<path d="M536.664 348.668C537.151 350.174 537.388 351.436 537.376 352.454C537.362 353.471 537.131 354.328 536.68 355.024C536.231 355.72 535.543 356.217 534.616 356.519C533.933 356.739 533.289 356.796 532.685 356.687C532.08 356.578 531.526 356.319 531.023 355.91C530.519 355.501 530.053 354.954 529.619 354.272C529.187 353.589 528.767 352.616 528.358 351.355C527.875 349.861 527.638 348.604 527.649 347.587C527.659 346.569 527.888 345.713 528.337 345.013C528.786 344.314 529.478 343.814 530.409 343.513C531.637 343.116 532.744 343.243 533.729 343.896C534.911 344.685 535.89 346.275 536.664 348.668ZM535.056 349.188C534.38 347.098 533.685 345.785 532.972 345.251C532.259 344.717 531.543 344.566 530.824 344.799C530.106 345.031 529.615 345.573 529.351 346.428C529.087 347.281 529.291 348.75 529.966 350.835C530.643 352.931 531.339 354.245 532.052 354.776C532.764 355.307 533.485 355.453 534.215 355.218C534.933 354.986 535.408 354.496 535.64 353.749C535.926 352.799 535.733 351.278 535.056 349.188Z" fill="#1F1F1F"/>
<path d="M275.239 -7.34301L276.639 -6.61259L272.551 1.23363C272.195 1.06205 271.887 0.828068 271.627 0.535658C271.198 0.0578586 270.838 -0.536006 270.548 -1.24676C270.26 -1.95732 269.991 -2.90478 269.744 -4.09062C269.359 -5.93164 268.975 -7.24083 268.593 -8.01611C268.212 -8.79223 267.746 -9.32222 267.195 -9.60987C266.618 -9.91067 266.022 -9.95834 265.41 -9.75183C264.798 -9.54533 264.319 -9.11175 263.974 -8.44713C263.608 -7.74488 263.526 -7.07377 263.727 -6.43298C263.929 -5.79303 264.401 -5.27662 265.143 -4.88286L264.208 -3.46441C263.145 -4.14932 262.495 -4.97811 262.258 -5.95349C262.02 -6.92803 262.196 -7.98088 262.784 -9.10742C263.379 -10.2475 264.163 -10.9839 265.14 -11.3184C266.119 -11.6526 267.073 -11.5771 268.008 -11.0922C268.482 -10.8438 268.899 -10.5038 269.257 -10.0694C269.615 -9.63506 269.929 -9.06107 270.202 -8.34645C270.475 -7.63079 270.78 -6.51952 271.12 -5.01116C271.399 -3.75454 271.604 -2.93319 271.736 -2.54784C271.869 -2.16437 272.026 -1.82109 272.205 -1.52186L275.239 -7.34301Z" fill="#1F1F1F"/>
<path d="M450.53 355.485L450.543 358.691L456.35 358.667L456.355 360.174L450.281 368.871L448.939 368.877L448.905 360.202L447.096 360.21L447.092 358.704L448.9 358.696L448.887 355.491L450.53 355.485ZM450.548 360.198L450.572 366.231L454.74 360.18L450.548 360.198Z" fill="#1F1F1F"/>
<path d="M445.254 362.072C445.194 363.653 444.985 364.921 444.624 365.873C444.263 366.824 443.753 367.55 443.091 368.05C442.429 368.549 441.613 368.78 440.639 368.745C439.921 368.718 439.297 368.551 438.766 368.242C438.235 367.933 437.804 367.498 437.471 366.942C437.139 366.384 436.886 365.712 436.715 364.923C436.543 364.134 436.482 363.076 436.53 361.749C436.588 360.18 436.795 358.92 437.154 357.968C437.512 357.014 438.022 356.288 438.682 355.785C439.344 355.284 440.164 355.049 441.144 355.087C442.434 355.134 443.428 355.633 444.13 356.585C444.971 357.731 445.345 359.559 445.254 362.072ZM443.565 362.01C443.646 359.813 443.443 358.343 442.956 357.597C442.469 356.85 441.848 356.464 441.094 356.436C440.339 356.408 439.691 356.75 439.151 357.462C438.611 358.171 438.3 359.622 438.219 361.812C438.137 364.015 438.34 365.487 438.828 366.229C439.314 366.973 439.942 367.358 440.707 367.386C441.462 367.414 442.076 367.117 442.55 366.495C443.145 365.701 443.484 364.205 443.565 362.01Z" fill="#1F1F1F"/>
<path d="M252.832 62.453L249.674 61.8943L248.664 67.6121L247.179 67.3486L239.703 59.8231L239.938 58.5006L248.479 60.0125L248.792 58.2328L250.277 58.4962L249.962 60.2767L253.117 60.8343L252.832 62.453ZM248.192 61.6311L242.249 60.5798L247.46 65.757L248.192 61.6311Z" fill="#1F1F1F"/>
<path d="M247.291 56.0871C245.745 55.7471 244.536 55.3151 243.662 54.7911C242.79 54.2662 242.166 53.6337 241.792 52.8933C241.419 52.154 241.336 51.3094 241.545 50.3567C241.698 49.657 241.976 49.0725 242.374 48.605C242.772 48.1363 243.276 47.7888 243.883 47.5609C244.492 47.3331 245.199 47.2057 246.006 47.1769C246.812 47.1479 247.864 47.2763 249.161 47.56C250.696 47.8978 251.899 48.3261 252.772 48.8483C253.645 49.3694 254.269 50.0011 254.647 50.7409C255.023 51.4814 255.106 52.329 254.895 53.2871C254.62 54.5486 253.951 55.4374 252.888 55.9581C251.612 56.5818 249.745 56.6248 247.291 56.0871ZM247.652 54.4363C249.798 54.9078 251.282 54.9693 252.103 54.6224C252.923 54.2755 253.414 53.735 253.576 52.9974C253.738 52.2597 253.518 51.5609 252.914 50.9038C252.31 50.2448 250.94 49.6795 248.799 49.2105C246.646 48.7373 245.162 48.6749 244.343 49.023C243.525 49.3692 243.034 49.9172 242.871 50.6661C242.71 51.4048 242.892 52.0607 243.419 52.6378C244.095 53.365 245.505 53.9648 247.652 54.4363Z" fill="#1F1F1F"/>
<path d="M354.891 348.145L356.471 348.578C356.394 349.234 356.429 349.745 356.583 350.112C356.843 350.701 357.279 351.108 357.894 351.327C358.386 351.502 358.87 351.52 359.339 351.38C359.953 351.199 360.522 350.818 361.048 350.237C361.573 349.656 362.067 348.736 362.533 347.479C361.955 347.914 361.349 348.172 360.712 348.253C360.075 348.336 359.461 348.271 358.871 348.059C357.839 347.69 357.098 346.995 356.645 345.976C356.192 344.956 356.18 343.846 356.613 342.642C356.896 341.852 357.329 341.178 357.915 340.622C358.497 340.065 359.152 339.713 359.879 339.565C360.603 339.417 361.345 339.48 362.101 339.75C363.39 340.214 364.272 341.064 364.745 342.303C365.219 343.543 365.066 345.252 364.284 347.43C363.413 349.865 362.329 351.474 361.033 352.258C359.902 352.939 358.672 353.041 357.343 352.564C356.353 352.208 355.639 351.64 355.206 350.857C354.772 350.074 354.665 349.171 354.891 348.145ZM363.156 344.978C363.347 344.446 363.416 343.894 363.365 343.326C363.313 342.759 363.131 342.273 362.813 341.873C362.498 341.472 362.117 341.192 361.67 341.032C361.018 340.798 360.361 340.86 359.703 341.219C359.043 341.578 358.552 342.208 358.227 343.116C357.915 343.986 357.901 344.756 358.186 345.423C358.47 346.09 358.965 346.551 359.67 346.803C360.368 347.053 361.052 347.015 361.718 346.69C362.385 346.363 362.863 345.792 363.156 344.978Z" fill="#1F1F1F"/>
<path d="M354.146 344.118C353.551 345.584 352.923 346.703 352.258 347.475C351.593 348.246 350.866 348.754 350.075 348.997C349.283 349.242 348.436 349.181 347.532 348.814C346.865 348.544 346.338 348.174 345.944 347.702C345.551 347.23 345.292 346.675 345.169 346.038C345.049 345.401 345.041 344.682 345.149 343.882C345.257 343.08 345.559 342.066 346.059 340.837C346.648 339.38 347.276 338.266 347.937 337.494C348.598 336.721 349.326 336.211 350.119 335.966C350.911 335.718 351.761 335.78 352.669 336.149C353.864 336.634 354.631 337.443 354.966 338.576C355.365 339.941 355.093 341.787 354.146 344.118ZM352.582 343.482C353.407 341.447 353.718 339.994 353.516 339.127C353.313 338.259 352.862 337.684 352.161 337.401C351.463 337.116 350.738 337.217 349.986 337.7C349.234 338.183 348.448 339.441 347.624 341.471C346.796 343.512 346.484 344.966 346.688 345.83C346.891 346.696 347.349 347.272 348.061 347.56C348.76 347.845 349.439 347.774 350.097 347.351C350.926 346.809 351.756 345.519 352.582 343.482Z" fill="#1F1F1F"/>
<path d="M241.847 130.304L242.262 131.89C241.654 132.148 241.229 132.435 240.989 132.751C240.606 133.272 240.473 133.854 240.589 134.495C240.683 135.009 240.908 135.436 241.266 135.774C241.729 136.214 242.343 136.518 243.108 136.683C243.875 136.847 244.917 136.817 246.237 136.592C245.574 136.308 245.047 135.913 244.659 135.4C244.271 134.889 244.019 134.326 243.91 133.709C243.713 132.631 243.947 131.642 244.602 130.741C245.259 129.839 246.215 129.276 247.474 129.047C248.302 128.899 249.101 128.938 249.875 129.166C250.649 129.395 251.281 129.785 251.771 130.341C252.262 130.895 252.576 131.567 252.72 132.359C252.963 133.707 252.666 134.896 251.829 135.926C250.991 136.954 249.434 137.674 247.156 138.086C244.611 138.545 242.676 138.409 241.35 137.677C240.196 137.039 239.492 136.024 239.243 134.634C239.057 133.599 239.193 132.698 239.654 131.931C240.116 131.164 240.845 130.621 241.847 130.304ZM248.718 135.884C249.274 135.783 249.787 135.568 250.254 135.24C250.719 134.912 251.048 134.511 251.236 134.038C251.426 133.564 251.479 133.093 251.395 132.628C251.273 131.944 250.89 131.406 250.251 131.015C249.611 130.622 248.818 130.512 247.87 130.682C246.96 130.847 246.287 131.22 245.852 131.799C245.414 132.38 245.262 133.037 245.397 133.775C245.525 134.505 245.903 135.077 246.518 135.492C247.133 135.908 247.867 136.037 248.718 135.884Z" fill="#1F1F1F"/>
<path d="M244.965 127.648C243.398 127.865 242.114 127.879 241.115 127.688C240.114 127.498 239.31 127.12 238.705 126.556C238.097 125.991 237.728 125.227 237.593 124.262C237.495 123.55 237.552 122.907 237.764 122.33C237.976 121.754 238.327 121.253 238.82 120.828C239.312 120.406 239.929 120.039 240.678 119.735C241.425 119.428 242.456 119.183 243.77 119.001C245.327 118.787 246.604 118.774 247.603 118.961C248.602 119.147 249.409 119.525 250.017 120.087C250.628 120.651 250.998 121.418 251.132 122.389C251.31 123.668 250.991 124.735 250.176 125.591C249.192 126.617 247.457 127.304 244.965 127.648ZM244.736 125.976C246.91 125.674 248.323 125.219 248.975 124.61C249.626 124.001 249.899 123.322 249.794 122.575C249.692 121.828 249.243 121.248 248.448 120.839C247.656 120.429 246.172 120.374 244.002 120.675C241.82 120.977 240.403 121.431 239.758 122.041C239.11 122.649 238.839 123.333 238.945 124.094C239.047 124.84 239.446 125.394 240.142 125.753C241.026 126.201 242.558 126.275 244.736 125.976Z" fill="#1F1F1F"/>
<path d="M282.253 302.425C282.616 303.052 282.775 303.65 282.73 304.217C282.687 304.782 282.456 305.314 282.043 305.808C281.419 306.557 280.625 306.96 279.663 307.02C278.701 307.081 277.773 306.739 276.88 305.994C275.983 305.245 275.478 304.382 275.368 303.404C275.256 302.426 275.512 301.565 276.135 300.816C276.534 300.34 277.005 300.03 277.549 299.886C278.094 299.742 278.702 299.786 279.37 300.02C278.911 299.288 278.709 298.554 278.762 297.821C278.815 297.089 279.106 296.405 279.637 295.77C280.371 294.891 281.297 294.412 282.418 294.333C283.538 294.255 284.607 294.637 285.62 295.485C286.634 296.331 287.201 297.313 287.322 298.433C287.441 299.552 287.127 300.56 286.377 301.458C285.819 302.127 285.184 302.543 284.468 302.711C283.753 302.88 283.013 302.785 282.253 302.425ZM285.087 300.368C285.389 300.007 285.592 299.589 285.702 299.111C285.813 298.632 285.778 298.159 285.594 297.694C285.413 297.228 285.128 296.834 284.739 296.511C284.137 296.007 283.478 295.785 282.762 295.844C282.045 295.905 281.437 296.234 280.937 296.833C280.431 297.44 280.214 298.111 280.285 298.846C280.358 299.581 280.698 300.201 281.306 300.709C281.899 301.204 282.555 301.418 283.273 301.351C283.991 301.284 284.596 300.956 285.087 300.368ZM280.719 304.774C281.124 304.287 281.301 303.759 281.245 303.19C281.189 302.621 280.91 302.127 280.411 301.709C279.926 301.303 279.399 301.125 278.833 301.17C278.266 301.216 277.797 301.463 277.428 301.905C277.04 302.369 276.877 302.892 276.933 303.473C276.989 304.058 277.256 304.547 277.733 304.945C278.213 305.346 278.743 305.526 279.317 305.484C279.894 305.439 280.36 305.203 280.719 304.774Z" fill="#1F1F1F"/>
<path d="M276.503 296.723C275.44 297.895 274.462 298.73 273.574 299.224C272.685 299.72 271.826 299.945 270.998 299.901C270.17 299.857 269.395 299.509 268.676 298.853C268.144 298.371 267.773 297.841 267.568 297.262C267.36 296.684 267.31 296.074 267.413 295.433C267.519 294.793 267.76 294.115 268.137 293.401C268.514 292.687 269.148 291.839 270.04 290.856C271.096 289.694 272.065 288.864 272.954 288.364C273.841 287.867 274.7 287.639 275.529 287.683C276.358 287.724 277.136 288.073 277.862 288.732C278.817 289.6 279.256 290.623 279.182 291.803C279.085 293.221 278.193 294.861 276.503 296.723ZM275.252 295.588C276.73 293.96 277.522 292.705 277.63 291.821C277.738 290.936 277.513 290.24 276.952 289.733C276.395 289.226 275.679 289.07 274.808 289.264C273.935 289.46 272.763 290.369 271.291 291.991C269.809 293.623 269.017 294.881 268.911 295.762C268.805 296.644 269.035 297.344 269.603 297.858C270.163 298.366 270.824 298.533 271.586 298.364C272.554 298.141 273.777 297.215 275.252 295.588Z" fill="#1F1F1F"/>
<path d="M270.954 202.989C271.086 203.702 271.035 204.318 270.804 204.838C270.575 205.355 270.18 205.78 269.626 206.107C268.787 206.603 267.905 206.72 266.977 206.455C266.051 206.19 265.29 205.557 264.698 204.556C264.102 203.551 263.916 202.569 264.137 201.61C264.359 200.652 264.888 199.925 265.728 199.427C266.261 199.113 266.809 198.977 267.37 199.023C267.931 199.069 268.49 199.316 269.041 199.76C268.854 198.914 268.907 198.157 269.202 197.483C269.497 196.81 270.001 196.263 270.714 195.842C271.698 195.258 272.732 195.117 273.816 195.418C274.896 195.719 275.775 196.436 276.449 197.574C277.121 198.709 277.327 199.827 277.066 200.921C276.804 202.017 276.172 202.861 275.165 203.457C274.415 203.9 273.677 204.08 272.947 204C272.215 203.919 271.551 203.582 270.954 202.989ZM274.314 201.998C274.718 201.759 275.05 201.433 275.313 201.018C275.578 200.604 275.701 200.147 275.686 199.647C275.67 199.147 275.533 198.68 275.274 198.245C274.876 197.57 274.33 197.14 273.633 196.957C272.939 196.775 272.255 196.882 271.584 197.279C270.904 197.682 270.474 198.24 270.297 198.957C270.121 199.675 270.232 200.373 270.634 201.055C271.029 201.721 271.575 202.14 272.275 202.318C272.975 202.495 273.653 202.388 274.314 201.998ZM268.724 204.689C269.268 204.367 269.609 203.927 269.749 203.372C269.884 202.818 269.789 202.26 269.458 201.698C269.136 201.155 268.7 200.808 268.15 200.664C267.602 200.518 267.077 200.592 266.58 200.887C266.061 201.193 265.732 201.63 265.59 202.199C265.448 202.768 265.535 203.318 265.852 203.852C266.17 204.393 266.61 204.737 267.165 204.89C267.723 205.04 268.242 204.975 268.724 204.689Z" fill="#1F1F1F"/>
<path d="M267.441 195.692C266.047 196.441 264.849 196.901 263.846 197.07C262.84 197.24 261.957 197.166 261.191 196.848C260.425 196.53 259.811 195.941 259.352 195.083C259.012 194.452 258.842 193.826 258.84 193.213C258.838 192.599 258.995 192.008 259.307 191.44C259.619 190.87 260.073 190.311 260.668 189.765C261.262 189.217 262.142 188.63 263.313 188.003C264.696 187.26 265.888 186.803 266.893 186.629C267.893 186.458 268.78 186.53 269.545 186.846C270.315 187.162 270.929 187.752 271.394 188.615C272.003 189.752 272.076 190.866 271.61 191.951C271.046 193.256 269.657 194.504 267.441 195.692ZM266.642 194.204C268.58 193.164 269.746 192.246 270.143 191.449C270.541 190.652 270.561 189.92 270.203 189.257C269.846 188.59 269.224 188.204 268.338 188.097C267.451 187.99 266.041 188.454 264.111 189.491C262.169 190.533 261.001 191.454 260.607 192.249C260.212 193.044 260.196 193.781 260.56 194.456C260.917 195.121 261.484 195.501 262.259 195.596C263.246 195.709 264.708 195.244 266.642 194.204Z" fill="#1F1F1F"/>
<path d="M229.543 230.926L230.399 232.328L221.462 237.787C221.99 237.928 222.584 238.174 223.24 238.525C223.896 238.876 224.44 239.22 224.866 239.559L223.511 240.388C222.662 239.829 221.797 239.417 220.913 239.149C220.03 238.882 219.268 238.778 218.626 238.835L218.073 237.932L229.543 230.926Z" fill="#1F1F1F"/>
<path d="M221.64 230.583C220.255 231.351 219.062 231.826 218.062 232.012C217.06 232.195 216.175 232.133 215.406 231.826C214.635 231.52 214.014 230.938 213.542 230.088C213.194 229.46 213.013 228.839 213.001 228.226C212.992 227.611 213.14 227.017 213.446 226.444C213.75 225.873 214.195 225.307 214.781 224.751C215.367 224.195 216.239 223.596 217.4 222.953C218.774 222.189 219.959 221.716 220.96 221.529C221.959 221.343 222.846 221.401 223.618 221.707C224.39 222.012 225.014 222.595 225.489 223.451C226.118 224.579 226.205 225.688 225.753 226.783C225.208 228.096 223.837 229.361 221.64 230.583ZM220.818 229.107C222.74 228.038 223.894 227.103 224.28 226.301C224.666 225.498 224.675 224.765 224.309 224.106C223.942 223.447 223.314 223.069 222.427 222.975C221.538 222.88 220.136 223.365 218.221 224.428C216.294 225.498 215.141 226.434 214.756 227.235C214.373 228.037 214.368 228.771 214.74 229.444C215.106 230.104 215.679 230.474 216.455 230.558C217.445 230.656 218.898 230.172 220.818 229.107Z" fill="#1F1F1F"/>
<path d="M216.519 221.292C215.105 222.001 213.893 222.428 212.885 222.57C211.877 222.713 210.995 222.615 210.239 222.276C209.484 221.935 208.886 221.332 208.449 220.461C208.126 219.82 207.972 219.192 207.988 218.578C208.003 217.965 208.173 217.377 208.502 216.816C208.831 216.258 209.3 215.712 209.909 215.18C210.517 214.65 211.414 214.087 212.6 213.49C214.003 212.786 215.209 212.361 216.215 212.217C217.223 212.071 218.106 212.166 218.863 212.505C219.623 212.843 220.223 213.448 220.661 214.325C221.241 215.477 221.283 216.591 220.787 217.664C220.188 218.953 218.766 220.161 216.519 221.292ZM215.761 219.78C217.726 218.794 218.916 217.908 219.334 217.123C219.754 216.336 219.794 215.606 219.455 214.931C219.117 214.256 218.505 213.853 217.622 213.722C216.737 213.592 215.316 214.016 213.359 215.001C211.391 215.988 210.198 216.876 209.78 217.663C209.364 218.447 209.328 219.183 209.672 219.868C210.011 220.541 210.568 220.935 211.342 221.051C212.324 221.191 213.798 220.768 215.761 219.78Z" fill="#1F1F1F"/>
<path d="M327.353 251.853L328.684 252.817L322.537 261.297C323.078 261.225 323.72 261.222 324.462 261.294C325.203 261.365 325.837 261.473 326.361 261.621L325.429 262.908C324.43 262.719 323.473 262.672 322.555 262.764C321.637 262.858 320.893 263.055 320.323 263.356L319.464 262.734L327.353 251.853Z" fill="#1F1F1F"/>
<path d="M319.928 254.579C318.945 255.821 318.028 256.718 317.176 257.274C316.321 257.831 315.481 258.114 314.652 258.126C313.823 258.141 313.027 257.843 312.263 257.24C311.7 256.794 311.294 256.29 311.047 255.73C310.803 255.166 310.71 254.561 310.771 253.914C310.831 253.269 311.026 252.576 311.352 251.837C311.68 251.099 312.255 250.21 313.077 249.17C314.051 247.935 314.963 247.041 315.814 246.483C316.665 245.928 317.506 245.64 318.335 245.625C319.165 245.611 319.966 245.907 320.735 246.514C321.749 247.315 322.256 248.304 322.261 249.488C322.264 250.909 321.485 252.606 319.928 254.579ZM318.601 253.533C319.963 251.807 320.669 250.499 320.715 249.61C320.762 248.721 320.49 248.042 319.898 247.573C319.305 247.107 318.58 247.001 317.725 247.255C316.868 247.509 315.76 248.497 314.403 250.214C313.036 251.945 312.332 253.252 312.286 254.139C312.241 255.028 312.519 255.707 313.121 256.183C313.713 256.653 314.385 256.774 315.134 256.552C316.083 256.262 317.239 255.255 318.601 253.533Z" fill="#1F1F1F"/>
<path d="M311.623 247.974C310.592 249.175 309.639 250.036 308.763 250.554C307.888 251.075 307.035 251.324 306.208 251.301C305.379 251.279 304.595 250.952 303.857 250.317C303.312 249.849 302.928 249.329 302.706 248.755C302.484 248.183 302.416 247.574 302.503 246.931C302.591 246.29 302.813 245.605 303.171 244.88C303.529 244.156 304.139 243.291 305.005 242.284C306.029 241.094 306.977 240.237 307.851 239.717C308.724 239.195 309.576 238.943 310.405 238.964C311.237 238.982 312.023 239.311 312.765 239.951C313.744 240.791 314.211 241.803 314.167 242.984C314.11 244.405 313.264 246.067 311.623 247.974ZM310.344 246.874C311.776 245.206 312.534 243.93 312.618 243.045C312.702 242.156 312.458 241.468 311.886 240.975C311.313 240.482 310.593 240.347 309.728 240.566C308.86 240.785 307.714 241.725 306.285 243.386C304.85 245.056 304.09 246.335 304.007 247.22C303.926 248.105 304.175 248.796 304.758 249.297C305.329 249.788 305.996 249.937 306.753 249.747C307.715 249.498 308.911 248.54 310.344 246.874Z" fill="#1F1F1F"/>
<path d="M196.931 146.268L197.252 147.879L186.981 149.925C187.43 150.239 187.9 150.675 188.396 151.231C188.893 151.788 189.282 152.297 189.566 152.763L188.008 153.072C187.405 152.257 186.735 151.569 185.997 151.015C185.261 150.461 184.581 150.099 183.956 149.933L183.75 148.893L196.931 146.268Z" fill="#1F1F1F"/>
<path d="M193.254 133.917L194.815 133.674L196.184 142.415C195.797 142.487 195.41 142.483 195.028 142.4C194.397 142.271 193.756 142.006 193.102 141.607C192.446 141.209 191.669 140.605 190.765 139.798C189.362 138.545 188.277 137.718 187.508 137.323C186.741 136.925 186.051 136.774 185.437 136.87C184.793 136.971 184.288 137.286 183.918 137.815C183.547 138.344 183.421 138.979 183.537 139.717C183.659 140.5 183.991 141.089 184.534 141.485C185.077 141.88 185.762 142.016 186.594 141.892L186.683 143.589C185.421 143.668 184.405 143.387 183.634 142.744C182.867 142.099 182.384 141.15 182.186 139.894C181.987 138.624 182.182 137.565 182.769 136.714C183.358 135.865 184.171 135.359 185.212 135.195C185.74 135.113 186.278 135.141 186.824 135.276C187.369 135.412 187.963 135.687 188.607 136.1C189.251 136.514 190.156 137.228 191.325 138.239C192.297 139.085 192.949 139.624 193.284 139.855C193.618 140.086 193.949 140.267 194.272 140.402L193.254 133.917Z" fill="#1F1F1F"/>
<path d="M188.024 132.726C186.451 132.907 185.168 132.891 184.171 132.676C183.175 132.465 182.381 132.068 181.788 131.488C181.195 130.91 180.843 130.138 180.732 129.171C180.65 128.456 180.721 127.814 180.947 127.242C181.173 126.671 181.537 126.179 182.038 125.766C182.539 125.355 183.167 125.003 183.92 124.714C184.673 124.426 185.711 124.207 187.03 124.054C188.589 123.876 189.868 123.892 190.863 124.103C191.858 124.313 192.654 124.708 193.249 125.286C193.846 125.863 194.201 126.639 194.31 127.614C194.458 128.895 194.115 129.955 193.28 130.792C192.272 131.795 190.52 132.442 188.024 132.726ZM187.83 131.049C190.013 130.799 191.437 130.377 192.102 129.782C192.765 129.189 193.055 128.517 192.97 127.767C192.883 127.017 192.448 126.428 191.663 126.001C190.88 125.573 189.4 125.484 187.221 125.732C185.032 125.984 183.607 126.406 182.946 127.001C182.284 127.593 181.999 128.271 182.086 129.033C182.172 129.782 182.558 130.344 183.244 130.719C184.118 131.189 185.648 131.299 187.83 131.049Z" fill="#1F1F1F"/>
<path d="M387.263 286.24L388.8 286.823L385.091 296.616C385.594 296.401 386.214 296.234 386.948 296.108C387.683 295.983 388.322 295.922 388.867 295.928L388.304 297.412C387.291 297.492 386.354 297.697 385.495 298.028C384.633 298.358 383.967 298.744 383.494 299.185L382.503 298.809L387.263 286.24Z" fill="#1F1F1F"/>
<path d="M374.842 282.812L375.462 281.359L383.6 284.831C383.454 285.2 383.247 285.526 382.975 285.805C382.531 286.271 381.966 286.675 381.28 287.017C380.597 287.362 379.672 287.701 378.508 288.04C376.702 288.566 375.426 289.048 374.684 289.489C373.939 289.929 373.445 290.435 373.202 291.007C372.946 291.606 372.945 292.201 373.198 292.796C373.45 293.39 373.92 293.834 374.609 294.128C375.337 294.437 376.013 294.469 376.636 294.218C377.259 293.968 377.738 293.457 378.074 292.687L379.56 293.51C378.958 294.624 378.181 295.335 377.227 295.647C376.274 295.957 375.212 295.864 374.042 295.364C372.861 294.86 372.066 294.135 371.657 293.186C371.247 292.237 371.25 291.278 371.662 290.309C371.872 289.817 372.181 289.376 372.585 288.985C372.988 288.596 373.537 288.238 374.23 287.911C374.921 287.583 376.007 287.195 377.483 286.74C378.717 286.364 379.519 286.097 379.891 285.934C380.266 285.773 380.595 285.59 380.88 285.386L374.842 282.812Z" fill="#1F1F1F"/>
<path d="M371.059 286.617C370.379 288.046 369.684 289.126 368.975 289.857C368.267 290.588 367.509 291.052 366.704 291.248C365.899 291.443 365.058 291.333 364.178 290.915C363.529 290.607 363.023 290.206 362.658 289.711C362.294 289.216 362.069 288.647 361.984 288.003C361.9 287.36 361.935 286.641 362.09 285.849C362.245 285.057 362.608 284.062 363.178 282.862C363.853 281.447 364.544 280.371 365.25 279.639C365.957 278.906 366.714 278.44 367.52 278.242C368.325 278.041 369.171 278.152 370.056 278.576C371.221 279.129 371.938 279.983 372.205 281.135C372.522 282.52 372.141 284.348 371.059 286.617ZM369.534 285.892C370.479 283.907 370.876 282.476 370.724 281.598C370.573 280.721 370.156 280.119 369.475 279.794C368.793 279.47 368.063 279.527 367.285 279.965C366.506 280.402 365.647 281.611 364.704 283.591C363.755 285.579 363.358 287.011 363.512 287.888C363.663 288.762 364.087 289.363 364.778 289.693C365.461 290.018 366.142 289.988 366.822 289.606C367.686 289.112 368.59 287.874 369.534 285.892Z" fill="#1F1F1F"/>
<path d="M196.398 58.2253L196.149 59.8506L185.798 58.2642C186.111 58.7128 186.404 59.2836 186.681 59.9741C186.956 60.6662 187.149 61.2787 187.257 61.8142L185.687 61.5722C185.399 60.5991 185.004 59.7258 184.5 58.952C183.997 58.1803 183.481 57.6081 182.952 57.2374L183.112 56.1906L196.398 58.2253Z" fill="#1F1F1F"/>
<path d="M198.065 48.9726L194.918 48.3582L193.805 54.0578L192.326 53.7694L184.985 46.1119L185.242 44.7936L193.755 46.4571L194.102 44.6827L195.58 44.9709L195.234 46.7455L198.379 47.3597L198.065 48.9726ZM193.439 48.0698L187.517 46.9127L192.637 52.1827L193.439 48.0698Z" fill="#1F1F1F"/>
<path d="M192.637 42.5047C191.098 42.138 189.897 41.6842 189.033 41.1451C188.17 40.6042 187.558 39.9604 187.199 39.215C186.837 38.4693 186.77 37.6225 186.996 36.6753C187.162 35.977 187.449 35.3973 187.856 34.9363C188.262 34.4762 188.771 34.1386 189.383 33.9206C189.995 33.7037 190.705 33.5871 191.512 33.5743C192.32 33.5597 193.369 33.7058 194.659 34.0134C196.186 34.3779 197.384 34.8276 198.247 35.3656C199.11 35.9028 199.724 36.5449 200.088 37.2918C200.451 38.0376 200.519 38.8892 200.292 39.841C199.993 41.0971 199.308 41.9757 198.237 42.4776C196.949 43.0783 195.083 43.087 192.637 42.5047ZM193.029 40.8611C195.167 41.3698 196.648 41.4593 197.475 41.1282C198.302 40.7952 198.803 40.2634 198.978 39.529C199.153 38.7945 198.945 38.0924 198.354 37.4233C197.762 36.7532 196.4 36.1641 194.269 35.6573C192.123 35.146 190.642 35.0572 189.818 35.3896C188.993 35.7219 188.493 36.2623 188.314 37.0067C188.14 37.7422 188.312 38.4027 188.829 38.9892C189.492 39.7274 190.892 40.3526 193.029 40.8611Z" fill="#1F1F1F"/>
<path d="M456.608 295.75L458.252 295.748L458.262 306.221C458.657 305.843 459.176 305.465 459.818 305.087C460.46 304.71 461.035 304.425 461.548 304.237L461.547 305.826C460.631 306.258 459.826 306.782 459.138 307.397C458.453 308.013 457.965 308.61 457.681 309.189L456.621 309.191L456.608 295.75Z" fill="#1F1F1F"/>
<path d="M447.21 295.511L447.083 298.714L452.884 298.946L452.825 300.451L446.374 308.875L445.032 308.821L445.379 300.153L443.574 300.08L443.633 298.577L445.439 298.648L445.569 295.447L447.21 295.511ZM447.023 300.221L446.78 306.251L451.209 300.386L447.023 300.221Z" fill="#1F1F1F"/>
<path d="M441.644 301.86C441.515 303.439 441.251 304.695 440.849 305.63C440.446 306.564 439.904 307.267 439.221 307.737C438.539 308.207 437.712 308.402 436.742 308.324C436.027 308.266 435.408 308.071 434.893 307.739C434.376 307.406 433.964 306.956 433.656 306.384C433.348 305.812 433.124 305.128 432.989 304.333C432.851 303.537 432.837 302.478 432.944 301.155C433.071 299.591 433.334 298.338 433.734 297.404C434.134 296.468 434.675 295.764 435.357 295.29C436.04 294.818 436.87 294.622 437.846 294.7C439.133 294.805 440.105 295.348 440.764 296.33C441.555 297.512 441.848 299.355 441.644 301.86ZM439.96 301.725C440.138 299.534 440 298.055 439.546 297.289C439.092 296.522 438.49 296.11 437.737 296.047C436.985 295.986 436.322 296.299 435.751 296.986C435.179 297.671 434.804 299.107 434.629 301.292C434.45 303.489 434.588 304.967 435.042 305.732C435.495 306.494 436.105 306.907 436.869 306.971C437.621 307.03 438.248 306.761 438.748 306.16C439.378 305.393 439.782 303.914 439.96 301.725Z" fill="#1F1F1F"/>
<path d="M523.797 281.368L525.332 280.782L529.065 290.567C529.3 290.074 529.65 289.536 530.116 288.955C530.58 288.374 531.019 287.903 531.43 287.545L531.995 289.029C531.292 289.761 530.726 290.536 530.302 291.355C529.881 292.175 529.638 292.906 529.577 293.548L528.587 293.926L523.797 281.368Z" fill="#1F1F1F"/>
<path d="M515.029 295.109L516.538 294.469C516.882 295.034 517.226 295.414 517.574 295.605C518.142 295.908 518.738 295.957 519.356 295.751C519.851 295.584 520.24 295.3 520.524 294.897C520.894 294.375 521.105 293.723 521.16 292.942C521.213 292.161 521.032 291.132 520.619 289.859C520.434 290.556 520.118 291.133 519.667 291.592C519.217 292.051 518.696 292.38 518.101 292.578C517.063 292.926 516.05 292.839 515.063 292.32C514.076 291.799 513.382 290.933 512.976 289.721C512.709 288.924 512.633 288.126 512.747 287.327C512.862 286.528 513.159 285.846 513.637 285.281C514.116 284.717 514.736 284.308 515.498 284.052C516.797 283.618 518.016 283.741 519.157 284.423C520.296 285.102 521.232 286.54 521.966 288.735C522.787 291.187 522.93 293.123 522.397 294.54C521.931 295.775 521.029 296.615 519.689 297.064C518.69 297.397 517.778 297.393 516.953 297.045C516.128 296.698 515.487 296.054 515.029 295.109ZM519.562 287.508C519.383 286.97 519.097 286.494 518.704 286.08C518.313 285.666 517.869 285.398 517.372 285.279C516.876 285.159 516.403 285.174 515.954 285.326C515.295 285.544 514.819 286.001 514.523 286.69C514.227 287.379 514.231 288.18 514.536 289.091C514.83 289.969 515.296 290.582 515.932 290.931C516.568 291.279 517.242 291.336 517.953 291.098C518.658 290.862 519.169 290.409 519.491 289.739C519.813 289.069 519.836 288.326 519.562 287.508Z" fill="#1F1F1F"/>
<path d="M511.958 292.401C512.397 293.922 512.596 295.191 512.55 296.207C512.506 297.225 512.247 298.074 511.775 298.756C511.304 299.437 510.6 299.912 509.665 300.183C508.975 300.382 508.33 300.419 507.729 300.292C507.128 300.165 506.582 299.888 506.092 299.464C505.602 299.037 505.151 298.477 504.741 297.782C504.33 297.086 503.941 296.1 503.573 294.826C503.137 293.317 502.94 292.055 502.981 291.037C503.023 290.021 503.278 289.172 503.75 288.487C504.221 287.804 504.927 287.324 505.868 287.053C507.108 286.694 508.21 286.857 509.175 287.542C510.331 288.366 511.26 289.985 511.958 292.401ZM510.335 292.87C509.724 290.76 509.071 289.426 508.375 288.869C507.68 288.315 506.969 288.141 506.244 288.351C505.518 288.561 505.01 289.088 504.719 289.933C504.428 290.777 504.587 292.252 505.194 294.357C505.808 296.474 506.46 297.808 507.156 298.361C507.851 298.915 508.567 299.086 509.305 298.872C510.029 298.662 510.52 298.188 510.775 297.447C511.091 296.507 510.946 294.981 510.335 292.87Z" fill="#1F1F1F"/>
<path d="M280.789 260.349L278.418 257.923C279.47 256.699 280.021 255.548 280.068 254.469C280.115 253.392 279.74 252.362 278.944 251.382C278.263 250.542 277.475 249.963 276.577 249.644C275.679 249.323 274.747 249.221 273.777 249.337C272.805 249.454 271.664 249.819 270.352 250.432C269.038 251.046 267.815 251.811 266.682 252.731C266.561 252.829 266.383 252.982 266.149 253.189C267.461 253.03 268.771 253.203 270.08 253.71C271.387 254.215 272.489 255.019 273.384 256.121C274.877 257.961 275.473 260.06 275.173 262.418C274.872 264.774 273.63 266.838 271.445 268.611C269.191 270.44 266.837 271.249 264.383 271.035C261.93 270.822 259.89 269.714 258.265 267.712C257.092 266.266 256.408 264.629 256.214 262.8C256.02 260.969 256.391 259.158 257.328 257.367C258.263 255.576 260.096 253.574 262.826 251.358C265.667 249.052 268.179 247.525 270.363 246.776C272.546 246.026 274.573 245.904 276.442 246.407C278.309 246.912 279.908 247.983 281.237 249.62C282.649 251.36 283.319 253.172 283.248 255.058C283.176 256.944 282.357 258.708 280.789 260.349ZM261.907 257.136C260.339 258.408 259.434 259.834 259.19 261.414C258.948 262.995 259.302 264.372 260.254 265.545C261.239 266.758 262.591 267.414 264.313 267.508C266.034 267.604 267.683 267.011 269.259 265.732C270.674 264.583 271.478 263.223 271.67 261.649C271.861 260.078 271.448 258.664 270.431 257.411C269.406 256.148 268.119 255.468 266.574 255.372C265.029 255.276 263.473 255.864 261.907 257.136Z" fill="#1F1F1F"/>
<path d="M261.279 248.212C258.65 250.346 256.315 251.791 254.274 252.551C252.232 253.31 250.344 253.51 248.609 253.15C246.874 252.789 245.35 251.799 244.038 250.181C243.069 248.988 242.46 247.747 242.21 246.459C241.959 245.168 242.048 243.863 242.478 242.542C242.907 241.222 243.636 239.867 244.663 238.479C245.692 237.091 247.308 235.503 249.512 233.714C252.121 231.597 254.444 230.157 256.481 229.391C258.518 228.627 260.407 228.423 262.147 228.78C263.887 229.136 265.417 230.128 266.739 231.757C268.478 233.9 269.076 236.207 268.533 238.677C267.872 241.645 265.454 244.824 261.279 248.212ZM259.002 245.407C262.651 242.445 264.734 240.045 265.249 238.211C265.764 236.376 265.512 234.832 264.495 233.578C263.477 232.325 262.015 231.763 260.108 231.893C258.201 232.023 255.429 233.566 251.789 236.52C248.13 239.49 246.044 241.89 245.534 243.721C245.025 245.552 245.287 247.104 246.321 248.378C247.339 249.632 248.682 250.202 250.35 250.088C252.469 249.929 255.353 248.368 259.002 245.407Z" fill="#1F1F1F"/>
</svg>
