<?xml version="1.0" encoding="UTF-8" standalone="no"?>
<!-- Created with Inkscape (http://www.inkscape.org/) -->
<svg xmlns:inkscape="http://www.inkscape.org/namespaces/inkscape" xmlns:rdf="http://www.w3.org/1999/02/22-rdf-syntax-ns#" xmlns="http://www.w3.org/2000/svg" xmlns:xlink="http://www.w3.org/1999/xlink" xmlns:ns1="http://sozi.baierouge.fr" xmlns:cc="http://creativecommons.org/ns#" xmlns:sodipodi="http://sodipodi.sourceforge.net/DTD/sodipodi-0.dtd" xmlns:dc="http://purl.org/dc/elements/1.1/" id="svg2" xml:space="preserve" viewBox="0 0 47.725 35.955" version="1.1" inkscape:version="0.91 r13725">
  <defs id="defs6">
    <radialGradient id="radialGradient24" gradientUnits="userSpaceOnUse" cy="-5.5" cx=".1001" gradientTransform="matrix(.8 0 0 -.6316 18.58 3.7262)" r="10.038">
      <stop id="stop26" style="stop-color:#424242" offset="0"/>
      <stop id="stop28" style="stop-color:#0d0d0d" offset="1"/>
    </radialGradient>
    <linearGradient id="linearGradient42" y2="-1.9502" gradientUnits="userSpaceOnUse" x2="9.2876" gradientTransform="matrix(.8 0 0 .8 18.58 11.6)" y1="-1.9502" x1="-8.5874">
      <stop id="stop44" style="stop-color:#3d3d3d" offset="0"/>
      <stop id="stop46" style="stop-color:#d9d9d9" offset=".28240"/>
      <stop id="stop48" style="stop-color:#1f1f1f" offset=".92550"/>
      <stop id="stop50" style="stop-color:#1f1f1f" offset="1"/>
    </linearGradient>
    <linearGradient id="linearGradient66" y2="-7.25" gradientUnits="userSpaceOnUse" x2="9.6627" gradientTransform="matrix(.8 0 0 .8 18.58 11.6)" y1="-7.25" x1="-1.8623">
      <stop id="stop68" style="stop-color:#3d3d3d" offset="0"/>
      <stop id="stop70" style="stop-color:#d9d9d9" offset=".28240"/>
      <stop id="stop72" style="stop-color:#1f1f1f" offset=".92550"/>
      <stop id="stop74" style="stop-color:#1f1f1f" offset="1"/>
    </linearGradient>
    <linearGradient id="linearGradient88" y2="-3.7002" gradientUnits="userSpaceOnUse" x2="2.0123" gradientTransform="matrix(.8 0 0 .8 18.58 11.6)" y1="-3.7002" x1="-10.013">
      <stop id="stop90" style="stop-color:#3d3d3d" offset="0"/>
      <stop id="stop92" style="stop-color:#d9d9d9" offset=".28240"/>
      <stop id="stop94" style="stop-color:#1f1f1f" offset=".92550"/>
      <stop id="stop96" style="stop-color:#1f1f1f" offset="1"/>
    </linearGradient>
    <linearGradient id="linearGradient110" y2="14.7" gradientUnits="userSpaceOnUse" x2="16.725" gradientTransform="matrix(.8 0 0 .8 19.22 14.72)" y1="14.7" x1="10.975">
      <stop id="stop112" style="stop-color:#525252" offset="0"/>
      <stop id="stop114" style="stop-color:#1f1f1f" offset="1"/>
    </linearGradient>
    <linearGradient id="linearGradient128" y2="2094.3" gradientUnits="userSpaceOnUse" x2="13430" gradientTransform="matrix(.24624 .76112 -.76112 .24624 -1679.2 -10710)" y1="2094.3" x1="13427">
      <stop id="stop130" style="stop-color:#3d3d3d" offset="0"/>
      <stop id="stop132" style="stop-color:#bababa" offset="1"/>
    </linearGradient>
    <linearGradient id="linearGradient146" y2="1780" gradientUnits="userSpaceOnUse" x2="14008" gradientTransform="matrix(.20232 .774 -.774 .20232 -1425.7 -11173)" y1="1780" x1="14006">
      <stop id="stop148" style="stop-color:#3d3d3d" offset="0"/>
      <stop id="stop150" style="stop-color:#bababa" offset="1"/>
    </linearGradient>
    <linearGradient id="linearGradient166" y2="1492.7" gradientUnits="userSpaceOnUse" x2="14462" gradientTransform="matrix(.166 .78256 -.78256 .166 -1199.9 -11540)" y1="1492.7" x1="14457">
      <stop id="stop168" style="stop-color:#525252" offset="0"/>
      <stop id="stop170" style="stop-color:#1f1f1f" offset="1"/>
    </linearGradient>
    <linearGradient id="linearGradient184" y2="-9765.5" gradientUnits="userSpaceOnUse" x2="-3268.2" gradientTransform="matrix(.48 -.64 .64 .48 7851.5 2620.2)" y1="-9765.5" x1="-3269.8">
      <stop id="stop186" style="stop-color:#919191" offset="0"/>
      <stop id="stop188" style="stop-color:#606163" offset=".43920"/>
      <stop id="stop190" style="stop-color:#4a4a4b" offset=".65880"/>
      <stop id="stop192" style="stop-color:#626365" offset="1"/>
    </linearGradient>
    <linearGradient id="linearGradient208" y2="1954" gradientUnits="userSpaceOnUse" x2="13688" gradientTransform="matrix(.2268 .7672 -.7672 .2268 -1569.7 -10918)" y1="1954" x1="13684">
      <stop id="stop210" style="stop-color:#525252" offset="0"/>
      <stop id="stop212" style="stop-color:#1f1f1f" offset="1"/>
    </linearGradient>
    <linearGradient id="linearGradient230" y2="12.112" gradientUnits="userSpaceOnUse" x2="22.475" gradientTransform="matrix(.8 0 0 .8 19.22 14.72)" y1="12.112" x1="19.025">
      <stop id="stop232" style="stop-color:#3d3d3d" offset="0"/>
      <stop id="stop234" style="stop-color:#bababa" offset="1"/>
    </linearGradient>
    <linearGradient id="linearGradient248" y2="2349.1" gradientUnits="userSpaceOnUse" x2="12891" gradientTransform="matrix(.28528 .74736 -.74736 .28528 -1885.2 -10279)" y1="2349.1" x1="12886">
      <stop id="stop250" style="stop-color:#292929" offset="0"/>
      <stop id="stop252" style="stop-color:#bababa" offset="1"/>
    </linearGradient>
    <radialGradient id="radialGradient266" gradientUnits="userSpaceOnUse" cy="-6906.7" cx="-3209" gradientTransform="matrix(.62256 -.5024 -.62688 -.91456 -2294.9 -7905.4)" r="2.329">
      <stop id="stop268" style="stop-color:#bababa" offset="0"/>
      <stop id="stop270" style="stop-color:#575757" offset=".74120"/>
      <stop id="stop272" style="stop-color:#575757" offset="1"/>
    </radialGradient>
    <linearGradient id="linearGradient288" y2="-15781" gradientUnits="userSpaceOnUse" x2="-486.36" gradientTransform="matrix(.0496 -.79848 .79848 .0496 12653 399.79)" y1="-15781" x1="-494.82">
      <stop id="stop290" style="stop-color:#6e6e6e" offset="0"/>
      <stop id="stop292" style="stop-color:#bababa" offset="1"/>
    </linearGradient>
    <linearGradient id="linearGradient306" y2="-7080.3" gradientUnits="userSpaceOnUse" x2="-3308.6" gradientTransform="matrix(.616 -.5104 .5104 .616 5684.3 2674.6)" y1="-7080.3" x1="-3324.5">
      <stop id="stop308" style="stop-color:#525252" offset="0"/>
      <stop id="stop310" style="stop-color:#f0f0f0" offset="1"/>
    </linearGradient>
    <linearGradient id="linearGradient332" y2="-9626.2" gradientUnits="userSpaceOnUse" x2="-3290.4" gradientTransform="matrix(.48952 -.6328 .6328 .48952 7712.8 2638.1)" y1="-9626.2" x1="-3292.1">
      <stop id="stop334" style="stop-color:#919191" offset="0"/>
      <stop id="stop336" style="stop-color:#606163" offset=".43920"/>
      <stop id="stop338" style="stop-color:#4a4a4b" offset=".65880"/>
      <stop id="stop340" style="stop-color:#626365" offset="1"/>
    </linearGradient>
    <linearGradient id="linearGradient362" y2="-9027.3" gradientUnits="userSpaceOnUse" x2="19660" gradientTransform="matrix(-.6072 .52088 -.52088 -.6072 7236.7 -15718)" y1="-9027.3" x1="19653">
      <stop id="stop364" style="stop-color:#6e6e6e" offset="0"/>
      <stop id="stop366" style="stop-color:#bababa" offset="1"/>
    </linearGradient>
    <linearGradient id="linearGradient384" y2="-12344" gradientUnits="userSpaceOnUse" x2="-2601.8" gradientTransform="matrix(.32312 -.73184 .73184 .32312 9877.8 2088)" y1="-12344" x1="-2603.9">
      <stop id="stop386" style="stop-color:#6e6e6e" offset="0"/>
      <stop id="stop388" style="stop-color:#bababa" offset="1"/>
    </linearGradient>
    <linearGradient id="linearGradient402" y2="-12409" gradientUnits="userSpaceOnUse" x2="-2572.9" gradientTransform="matrix(.31864 -.73384 .73384 .31864 9930.6 2067.2)" y1="-12409" x1="-2575">
      <stop id="stop404" style="stop-color:#6e6e6e" offset="0"/>
      <stop id="stop406" style="stop-color:#bababa" offset="1"/>
    </linearGradient>
    <linearGradient id="linearGradient420" y2="-10217" gradientUnits="userSpaceOnUse" x2="19527" gradientTransform="matrix(-.6572 .45616 -.45616 -.6572 8174.9 -15596)" y1="-10217" x1="19512">
      <stop id="stop422" style="stop-color:#3d3d3d" offset="0"/>
      <stop id="stop424" style="stop-color:#bababa" offset="1"/>
    </linearGradient>
    <linearGradient id="linearGradient448" y2="10.298" gradientUnits="userSpaceOnUse" x2="-9.3002" gradientTransform="matrix(.8 0 0 .8 19.66 17.08)" y1="10.298" x1="-16.7">
      <stop id="stop450" style="stop-color:#3d3d3d" offset="0"/>
      <stop id="stop452" style="stop-color:#bababa" offset="1"/>
    </linearGradient>
    <linearGradient id="linearGradient476" y2="3.5" gradientUnits="userSpaceOnUse" x2="6.6001" gradientTransform="matrix(.8 0 0 .8 18.7 16.52)" y1="3.5" x1="-7.7002">
      <stop id="stop478" style="stop-color:#c9501a" offset="0"/>
      <stop id="stop480" style="stop-color:#692101" offset="1"/>
    </linearGradient>
    <linearGradient id="linearGradient494" y2="5.125" gradientUnits="userSpaceOnUse" x2="5.1625" gradientTransform="matrix(.8 0 0 .8 18.7 16.52)" y1="5.125" x1="-6.0625">
      <stop id="stop496" style="stop-color:#c9501a" offset="0"/>
      <stop id="stop498" style="stop-color:#692101" offset="1"/>
    </linearGradient>
    <linearGradient id="linearGradient516" y2=".57520" gradientUnits="userSpaceOnUse" x2="9.7998" gradientTransform="matrix(.8 0 0 .8 18.7 16.52)" y1=".57520" x1="-10.1">
      <stop id="stop518" style="stop-color:#c9501a" offset="0"/>
      <stop id="stop520" style="stop-color:#692101" offset="1"/>
    </linearGradient>
    <linearGradient id="linearGradient534" y2="-16327" gradientUnits="userSpaceOnUse" x2="16312" gradientTransform="matrix(-.8 0 0 -.8 13062 -13043)" y1="-16327" x1="16297">
      <stop id="stop536" style="stop-color:#c9501a" offset="0"/>
      <stop id="stop538" style="stop-color:#9e3c10" offset="1"/>
    </linearGradient>
    <linearGradient id="linearGradient556" y2="-16330" gradientUnits="userSpaceOnUse" x2="16308" gradientTransform="matrix(-.8 0 0 -.8 13062 -13043)" y1="-16330" x1="16301">
      <stop id="stop558" style="stop-color:#c9501a" offset="0"/>
      <stop id="stop560" style="stop-color:#9e3c10" offset="1"/>
    </linearGradient>
    <linearGradient id="linearGradient574" y2="-16321" gradientUnits="userSpaceOnUse" x2="16313" gradientTransform="matrix(-.8 0 0 -.8 13062 -13043)" y1="-16321" x1="16296">
      <stop id="stop576" style="stop-color:#3d3d3d" offset="0"/>
      <stop id="stop578" style="stop-color:#bababa" offset="1"/>
    </linearGradient>
    <linearGradient id="linearGradient596" y2="-16329" gradientUnits="userSpaceOnUse" x2="16310" gradientTransform="matrix(-.8 0 0 -.8 13062 -13043)" y1="-16329" x1="16299">
      <stop id="stop598" style="stop-color:#c9501a" offset="0"/>
      <stop id="stop600" style="stop-color:#9e3c10" offset="1"/>
    </linearGradient>
    <linearGradient id="linearGradient614" y2="-4.75" gradientUnits="userSpaceOnUse" x2="9.3377" gradientTransform="matrix(.8 0 0 .8 18.7 16.52)" y1="-4.75" x1="-8.7373">
      <stop id="stop616" style="stop-color:#3d3d3d" offset="0"/>
      <stop id="stop618" style="stop-color:#d9d9d9" offset=".28240"/>
      <stop id="stop620" style="stop-color:#1f1f1f" offset=".92550"/>
      <stop id="stop622" style="stop-color:#1f1f1f" offset="1"/>
    </linearGradient>
  </defs>
  <g id="g10" transform="matrix(1.25 0 0 -1.25 0 35.955)">
    <g id="g12">
      <g id="g14">
        <g id="g16">
          <g id="g22">
            <path id="path30" style="fill-rule:evenodd;fill:url(#radialGradient24)" d="m10.66 12.92c-0.027 0.133-0.039 0.266-0.039 0.399 0 1.496 0.785 2.773 2.359 3.84 1.547 1.066 3.426 1.601 5.641 1.601 2.211 0 4.094-0.535 5.641-1.601 1.57-1.067 2.359-2.348 2.359-3.84v-0.399c-0.133-1.308-0.922-2.453-2.359-3.441-1.547-1.039-3.43-1.559-5.641-1.559-2.215 0-4.094 0.52-5.641 1.559-1.441 0.988-2.214 2.133-2.32 3.441z" inkscape:connector-curvature="0"/>
          </g>
        </g>
      </g>
      <g id="g32">
        <g id="g34">
          <g id="g40">
            <path id="path52" style="fill-rule:evenodd;fill:url(#linearGradient42)" d="m26.262 10.92c-0.375-0.8-1.043-1.519-2-2.16-1.574-1.066-3.457-1.601-5.641-1.601-0.453 0-0.883 0.015-1.281 0.043h-0.039c-1.629 0.183-3.067 0.703-4.321 1.558-1.519 1.012-2.308 2.227-2.359 3.641v0.16c0 0.133 0.012 0.25 0.039 0.359 0.106-1.308 0.879-2.453 2.32-3.441 1.547-1.039 3.426-1.559 5.641-1.559 2.211 0 4.094 0.52 5.641 1.559 1.437 0.988 2.226 2.133 2.359 3.441v-0.359c0-0.586-0.121-1.133-0.359-1.641z" inkscape:connector-curvature="0"/>
          </g>
        </g>
      </g>
      <path id="path54" style="fill-rule:evenodd;fill:#4a4b4c" d="m17.301 7.202 0.199-2.043 0.082-0.039c-0.27-0.028-0.574-0.055-0.922-0.079-0.613-0.027-0.988-0.027-1.121 0 0.641 0.106 1.043 0.399 1.199 0.879v0.641c-1.144 0.344-2.492 0.984-4.039 1.918-1.094 0.668-1.785 1.723-2.078 3.16l-0.039 0.602 0.039 0.16c0.051-1.414 0.84-2.629 2.359-3.641 1.254-0.855 2.692-1.375 4.321-1.558zm5.16-2.602c-0.266-0.055-0.547-0.094-0.84-0.121-0.242-0.024-0.496-0.051-0.762-0.078 0.047 0.023 0.094 0.035 0.141 0.039h0.059c0.855 0.238 1.629 0.601 2.32 1.082l-0.68-0.203-1.961-0.278 0.801 0.239c0.508 0.16 1.094 0.519 1.762 1.082l-0.719-0.242c-0.32-0.079-0.734-0.122-1.242-0.122h-0.641l0.801 0.122c0.293 0.082 0.602 0.199 0.922 0.359 0.344 0.187 0.531 0.359 0.558 0.519 0.028 0.137-0.347 0.176-1.121 0.122-1.039-0.133-1.867-0.215-2.48-0.239-0.957-0.027-1.641 0.039-2.039 0.199v0.122c0.398-0.028 0.828-0.043 1.281-0.043 2.184 0 4.067 0.535 5.641 1.601 0.957 0.641 1.625 1.36 2 2.16v-2.8c-0.16-0.934-0.614-1.719-1.364-2.36l-2.437-1.16z" inkscape:connector-curvature="0"/>
      <g id="g56">
        <g id="g58">
          <g id="g64">
            <path id="path76" style="fill-rule:evenodd;fill:url(#linearGradient66)" d="m21.621 4.479c0.293 0.027 0.574 0.066 0.84 0.121-0.242-0.055-0.496-0.094-0.762-0.121h-0.078zm-0.621-0.039-1.141-0.039-0.839 0.121-1.438 0.598-0.082 0.039l-0.199 2.043h0.039v-0.122c0.398-0.16 1.082-0.226 2.039-0.199 0.613 0.024 1.441 0.106 2.48 0.239 0.774 0.054 1.149 0.015 1.121-0.122-0.027-0.16-0.214-0.332-0.558-0.519-0.32-0.16-0.629-0.277-0.922-0.359l-0.801-0.122h0.641c0.508 0 0.922 0.043 1.242 0.122l0.719 0.242c-0.668-0.563-1.254-0.922-1.762-1.082l-0.801-0.239 1.961 0.278 0.68 0.203c-0.691-0.481-1.465-0.844-2.32-1.082h-0.059z" inkscape:connector-curvature="0"/>
          </g>
        </g>
      </g>
      <g id="g78">
        <g id="g80">
          <g id="g86">
            <path id="path98" style="fill-rule:evenodd;fill:url(#linearGradient88)" d="m10.582 12.241 0.039-0.602c0.293-1.437 0.984-2.492 2.078-3.16 1.547-0.934 2.895-1.574 4.039-1.918v-0.641c-0.156-0.48-0.558-0.773-1.199-0.879-0.348 0.079-1.133 0.493-2.359 1.239-0.774 0.453-1.426 1.133-1.961 2.039l-0.52 1.203-0.117 2.719z" inkscape:connector-curvature="0"/>
          </g>
        </g>
      </g>
      <g id="g100">
        <g id="g102">
          <g id="g108">
            <path id="path116" style="fill-rule:evenodd;fill:url(#linearGradient110)" d="m30.781 27.362-0.082-2.282h-0.16c-0.426 0.161-0.906 0.282-1.437 0.36l-1 0.082-0.043 0.68 1.281-0.122c0.215 0.028 0.348 0.094 0.402 0.2 0.078 0.133 0.039 0.281-0.121 0.441-0.133 0.106-0.426 0.16-0.879 0.16l-0.64-0.082v0.403l-0.122 0.679c0.028-0.027 0.079-0.043 0.161-0.043 1.148 0 2.066-0.117 2.757-0.359-0.05-0.024-0.093-0.066-0.117-0.117z" inkscape:connector-curvature="0"/>
          </g>
        </g>
      </g>
      <g id="g118">
        <g id="g120">
          <g id="g126">
            <path id="path134" style="fill-rule:evenodd;fill:url(#linearGradient128)" d="m34.219 25.479c-0.024 0-0.039-0.012-0.039-0.039-0.266 0.265-0.84 0.625-1.719 1.082l-1.68 0.84c0.024 0.051 0.067 0.093 0.117 0.117 0.321 0.375 0.59 0.629 0.801 0.762l0.641 0.32 0.16 0.078 1.559-0.641c0.562-0.293 1.296-0.718 2.203-1.277-0.137-0.027-0.282-0.082-0.442-0.16-0.375-0.133-0.679-0.281-0.922-0.441-0.371-0.239-0.597-0.454-0.679-0.641z" inkscape:connector-curvature="0"/>
          </g>
        </g>
      </g>
      <g id="g136">
        <g id="g138">
          <g id="g144">
            <path id="path152" style="fill-rule:evenodd;fill:url(#linearGradient146)" d="m32.34 28.561-0.641-0.32c-0.211-0.133-0.48-0.387-0.801-0.762-0.691 0.242-1.613 0.359-2.757 0.359-0.082 0-0.133 0.016-0.161 0.043 0 0.024 0.012 0.067 0.04 0.117l0.16 0.161 0.84 0.32c0.668 0.215 1.253 0.309 1.761 0.281 0.719-0.027 1.239-0.094 1.559-0.199z" inkscape:connector-curvature="0"/>
          </g>
        </g>
      </g>
      <path id="path154" style="fill-rule:evenodd;fill:#b24716" d="m30.699 25.08h0.403c0.293 0 0.586-0.175 0.878-0.519 0.051-0.481-0.027-0.801-0.238-0.961l-10.402-7.559c-0.481-0.347-0.774-0.468-0.879-0.363-0.133 0.297-0.32 0.563-0.563 0.801-0.21 0.215-0.398 0.348-0.558 0.402l-0.121-0.16c0 0.106 0.121 0.238 0.363 0.399 0.184 0.132 0.359 0.226 0.52 0.281 0.132 0.051 0.398 0.254 0.796 0.597 0.75 0.403 3.95 2.762 9.602 7.082h0.199zm-10.64-8.32c0.187 0 3.722 2.602 10.601 7.801 0.266 0.184-0.265-0.082-1.601-0.801l-0.758-0.48c-4.746-3.653-7.215-5.535-7.403-5.641-0.343-0.293-0.57-0.465-0.679-0.519-0.211-0.239-0.321-0.375-0.321-0.399l0.161 0.039z" inkscape:connector-curvature="0"/>
      <g id="g156">
        <g id="g158">
          <g id="g164">
            <path id="path172" style="fill-rule:evenodd;fill:url(#linearGradient166)" d="m30.781 27.362 1.68-0.84c0.879-0.457 1.453-0.817 1.719-1.082 0 0.027 0.015 0.039 0.039 0.039l-0.199-3.039-0.399 0.32-0.961 0.602c-0.027 0.105-0.039 0.211-0.039 0.316l0.719 0.524c0.055 0.132 0.094 0.238 0.121 0.32 0.078 0.426-0.016 0.773-0.281 1.039-0.293 0.293-0.614 0.453-0.961 0.48l-0.438-0.043-0.281-0.437c-0.133-0.188-0.266-0.348-0.398-0.481h-0.403l0.082 2.282z" inkscape:connector-curvature="0"/>
          </g>
        </g>
      </g>
      <g id="g174">
        <g id="g176">
          <g id="g182">
            <path id="path194" style="fill-rule:evenodd;fill:url(#linearGradient184)" d="m32.461 23.959c-0.027 0.082-0.066 0.149-0.121 0.2l-0.078 0.082c-0.028 0.054-0.055 0.093-0.082 0.121l-0.2 0.199c-0.292 0.348-0.585 0.519-0.878 0.519 0.132 0.133 0.265 0.293 0.398 0.481l0.281 0.437 0.438 0.043c0.347-0.027 0.668-0.187 0.961-0.48 0.265-0.266 0.359-0.613 0.281-1.039v0.316l-0.039-0.039c-0.082-0.16-0.402-0.437-0.961-0.84z" inkscape:connector-curvature="0"/>
          </g>
        </g>
      </g>
      <path id="path196" style="fill-rule:evenodd;fill:#464647" d="m32.621 23.678c-0.055 0.11-0.094 0.203-0.121 0.281h-0.039c0.559 0.403 0.879 0.68 0.961 0.84l0.039 0.039v-0.316c-0.027-0.082-0.066-0.188-0.121-0.32l-0.719-0.524z" inkscape:connector-curvature="0"/>
      <g id="g198">
        <g id="g200">
          <g id="g206">
            <path id="path214" style="fill-rule:evenodd;fill:url(#linearGradient208)" d="m36.262 26.08c-0.082 0.028-0.188 0.028-0.321 0-0.32-0.054-0.601-0.199-0.839-0.441-0.243-0.238-0.426-0.641-0.563-1.199-0.16-0.613-0.144-1.106 0.043-1.481l0.078-0.078-0.64-0.441 0.199 3.039c0.082 0.187 0.308 0.402 0.679 0.641 0.243 0.16 0.547 0.308 0.922 0.441 0.16 0.078 0.305 0.133 0.442 0.16v-0.641z" inkscape:connector-curvature="0"/>
          </g>
        </g>
      </g>
      <path id="path216" style="fill-rule:evenodd;fill:#fc9063" d="m20.059 16.76-0.161-0.039c0 0.024 0.11 0.16 0.321 0.399 0.109 0.054 0.336 0.226 0.679 0.519 0.188 0.106 2.657 1.988 7.403 5.641l0.758 0.48c1.336 0.719 1.867 0.985 1.601 0.801-6.879-5.199-10.414-7.801-10.601-7.801z" inkscape:connector-curvature="0"/>
      <path id="path218" style="fill-rule:evenodd;fill:#7a2e0b" d="m31.98 24.561 0.2-0.199c0.027-0.028 0.054-0.067 0.082-0.121l0.078-0.082c0.055-0.051 0.094-0.118 0.121-0.2h0.039c0.027-0.078 0.066-0.171 0.121-0.281 0-0.105 0.012-0.211 0.039-0.316 0-0.137-0.027-0.297-0.078-0.481l-0.602-0.402c-5.839-4.293-9.027-6.574-9.558-6.84-0.27-0.105-0.563-0.305-0.883-0.598-0.266-0.214-0.48-0.32-0.641-0.32-0.156 0-0.293 0.024-0.398 0.078l-0.121 0.121c-0.027 0.321-0.16 0.653-0.399 1-0.16 0.239-0.332 0.375-0.519 0.399l-0.242-0.039v0.441l0.121 0.16c0.16-0.054 0.348-0.187 0.558-0.402 0.243-0.238 0.43-0.504 0.563-0.801 0.105-0.105 0.398 0.016 0.879 0.363l10.402 7.559c0.211 0.16 0.293 0.48 0.238 0.961z" inkscape:connector-curvature="0"/>
      <g id="g220">
        <g id="g222">
          <g id="g228">
            <path id="path236" style="fill-rule:evenodd;fill:url(#linearGradient230)" d="m34.66 22.881-0.078 0.078c-0.187 0.375-0.203 0.868-0.043 1.481 0.137 0.558 0.32 0.961 0.563 1.199 0.238 0.242 0.519 0.387 0.839 0.441 0.133 0.028 0.239 0.028 0.321 0h0.078l0.281-0.16h-0.039c-0.402-0.054-0.75-0.226-1.043-0.519-0.293-0.266-0.519-0.707-0.68-1.321-0.16-0.535-0.183-0.988-0.078-1.359-0.054 0.051-0.093 0.106-0.121 0.16z" inkscape:connector-curvature="0"/>
          </g>
        </g>
      </g>
      <g id="g238">
        <g id="g240">
          <g id="g246">
            <path id="path254" style="fill-rule:evenodd;fill:url(#linearGradient248)" d="m38.039 25.221c-0.031 0.094-0.078 0.18-0.141 0.258h-0.039c-0.265 0.133-0.613 0.094-1.039-0.117-0.425-0.215-0.773-0.563-1.039-1.043-0.215-0.399-0.336-0.84-0.359-1.321-0.055-0.531 0.051-0.906 0.32-1.117h-0.043c-0.371 0.078-0.64 0.25-0.801 0.52-0.05 0.105-0.093 0.211-0.117 0.32-0.105 0.371-0.082 0.824 0.078 1.359 0.161 0.614 0.387 1.051 0.68 1.321 0.293 0.293 0.641 0.465 1.043 0.519h0.039c0.184 0.028 0.344 0.028 0.481 0l0.796-0.398c0.063-0.102 0.11-0.203 0.141-0.301z" inkscape:connector-curvature="0"/>
          </g>
        </g>
      </g>
      <g id="g256">
        <g id="g258">
          <g id="g264">
            <path id="path274" style="fill-rule:evenodd;fill:url(#radialGradient266)" d="m35.742 21.881c-0.269 0.211-0.375 0.586-0.32 1.117 0.023 0.481 0.144 0.922 0.359 1.321 0.266 0.48 0.614 0.828 1.039 1.043 0.426 0.211 0.774 0.25 1.039 0.117h0.039c0.063-0.078 0.11-0.164 0.141-0.258l0.02-0.101 0.082-0.239 0.039-0.601c0-0.215-0.028-0.453-0.078-0.719-0.028 0-0.043-0.016-0.043-0.039-0.211-0.668-0.614-1.149-1.2-1.442-0.293-0.132-0.586-0.214-0.879-0.242-0.082 0.028-0.16 0.043-0.238 0.043z" inkscape:connector-curvature="0"/>
          </g>
        </g>
      </g>
      <path id="path276" style="fill-rule:evenodd;fill:#848687" d="m34.66-0.002c0.133 0.188 0.32 0.387 0.559 0.602 0.773 0.828 1.547 1.453 2.32 1.879l-0.039-0.399-1.801-1.441-1.039-0.641z" inkscape:connector-curvature="0"/>
      <g id="g278">
        <g id="g280">
          <g id="g286">
            <path id="path294" style="fill-rule:evenodd;fill:url(#linearGradient288)" d="m26.141 8.08 2.398 1.84c0.027 0.028 0.055 0.051 0.082 0.078 3.387-2.824 5.332-4.453 5.84-4.878l3.078-2.598v-0.043c-0.773-0.426-1.547-1.051-2.32-1.879v0.039l-9.078 7.441zm3.718-4.679 0.602 0.16-0.16-0.16h-0.442zm-0.839 0.961v0.039h-0.641l0.801 0.121-0.16-0.16zm2-1.883 0.359 0.043h0.281l-0.64-0.043zm1.199-0.438h-0.117l0.199 0.2-0.082-0.2zm0.121-0.363h-0.039v0.043l0.039-0.043zm0.879-0.437 0.082-0.243-0.121 0.321 0.039-0.078zm-14.68 10l-0.039 0.359 0.16 0.16-0.121-0.238v-0.281z" inkscape:connector-curvature="0"/>
          </g>
        </g>
      </g>
      <g id="g296">
        <g id="g298">
          <g id="g304">
            <path id="path312" style="fill-rule:evenodd;fill:url(#linearGradient306)" d="m24.699 6.92v0.039l0.043 0.039c0.317 0.243 0.492 0.375 0.52 0.403l0.879 0.679 9.078-7.441v-0.039c-0.239-0.215-0.426-0.414-0.559-0.602l-0.121 0.122v0.242l-0.32 0.039 0.32 0.359-0.32-0.16v0.039h-0.399l-0.039 0.32-0.48 0.039 0.441 0.481-0.523-0.238-0.039 0.078h-0.039l0.039 0.16-0.36-0.117-0.078 0.277-0.402 0.039-0.039 0.043-0.039 0.32h-0.043l0.082 0.2-0.199-0.2h-0.282l-0.078 0.239 0.399 0.441-0.442-0.199 0.121 0.199-0.199-0.121-0.242-0.078-0.359-0.043-0.04 0.441h-0.601v0.039l0.441 0.602-0.519-0.16 0.16 0.16-0.602-0.16h-0.16l-0.078 0.597-0.562-0.039-0.039 0.403 0.16 0.16-0.801-0.121-0.078 0.359 0.078 0.199-0.758-0.039h-0.039v0.399l0.117 0.121-0.801-0.039-0.039 0.32-0.039 0.117h-0.558l-0.043 0.16 0.043 0.043 0.797 0.637-0.918-0.398v0.039l0.121 0.242-0.282-0.121-0.398-0.039h-0.082l-0.078 0.199h0.039l0.68 0.441-0.52-0.121 0.438 0.282-0.637-0.204-0.723-0.078z" inkscape:connector-curvature="0"/>
          </g>
        </g>
      </g>
      <path id="path314" style="fill-rule:evenodd;fill:#7a2e0b" d="m27.219 9.362c-1.36-1.016-2.133-1.602-2.321-1.762l-0.117-0.16c-0.293 0.133-0.816 0.492-1.562 1.082 0.535-0.082 1.093 0.051 1.679 0.398 0.536 0.321 0.95 0.614 1.243 0.879l0.238 0.321c-1.785-1.094-3.094-1.415-3.918-0.961-0.027 0.027-0.066 0.043-0.121 0.043-0.106 0.105-0.227 0.211-0.36 0.32-0.214 0.183-0.425 0.359-0.64 0.519l0.519 0.039c0.856 0.215 1.641 0.653 2.36 1.321 0.75 0.664 1.148 1.254 1.203 1.758l-0.141 0.601 0.5-0.398 1.84-1.563 0.438-0.359v-0.039l-0.239-0.641c-0.265-0.558-1.093-1.398-2.48-2.519l1.879 1.121z" inkscape:connector-curvature="0"/>
      <path id="path316" style="fill-rule:evenodd;fill:#b24716" d="m27.621 11.799-1.84 1.563 1.52-1.242 0.32-0.321zm0.438-0.398c0.242-0.242 0.535-0.508 0.882-0.801l-1.722-1.238-1.879-1.121c1.387 1.121 2.215 1.961 2.48 2.519l0.239 0.641z" inkscape:connector-curvature="0"/>
      <path id="path318" style="fill-rule:evenodd;fill:#612409" d="m26.141 8.08-0.879-0.679c-0.028-0.028-0.203-0.16-0.52-0.403l-0.043-0.039c-0.133-0.078-0.238-0.121-0.32-0.121h-0.117c-0.403 0.028-0.707 0.203-0.922 0.524-0.106 0.16-0.985 0.906-2.641 2.238l-2.16 1.641v0.281l0.121 0.238v0.039c0.106 0.133 0.227 0.266 0.36 0.403 0.132 0.132 0.265 0.25 0.402 0.359 0.211 0.184 0.426 0.344 0.637 0.48 0.136 0.079 0.269 0.161 0.402 0.239l1 0.48 1.758 1.68 2.062-1.641v-0.039l0.141-0.601c-0.055-0.504-0.453-1.094-1.203-1.758-0.719-0.668-1.504-1.106-2.36-1.321l-0.519-0.039c0.215-0.16 0.426-0.336 0.64-0.519 0.133-0.109 0.254-0.215 0.36-0.32 0.055 0 0.094-0.016 0.121-0.043 0.824-0.454 2.133-0.133 3.918 0.961l-0.238-0.321c-0.293-0.265-0.707-0.558-1.243-0.879-0.586-0.347-1.144-0.48-1.679-0.398 0.746-0.59 1.269-0.949 1.562-1.082l0.117 0.16c0.188 0.16 0.961 0.746 2.321 1.762l1.722 1.238c0.028-0.133-0.082-0.332-0.32-0.602-0.027-0.027-0.055-0.05-0.082-0.078l-2.398-1.84z" inkscape:connector-curvature="0"/>
      <path id="path320" style="fill-rule:evenodd;fill:#919395" d="m26.898 5.401 0.801 0.039-0.117-0.121v0.043h-0.684v0.039zm0.684-0.481h0.039l0.758 0.039-0.078-0.199v0.039l-0.68 0.082-0.039 0.039zm6.637-4.32 0.32 0.16-0.32-0.359v0.199zm-3.84 2.359-0.039 0.321-0.039 0.121 0.519 0.16-0.441-0.602zm2.441-1.597 0.36 0.117-0.039-0.16-0.321 0.043zm-1.078 0.918-0.082 0.242h-0.281l0.242 0.078 0.199 0.121-0.121-0.199 0.442 0.199-0.399-0.441zm1.559-1.282-0.082 0.243 0.523 0.238-0.441-0.481zm-7.879 5.602-0.082 0.32h-0.641l0.723 0.078 0.637 0.204-0.438-0.282 0.52 0.121-0.68-0.441h-0.039zm0.719-0.32 0.918 0.398-0.797-0.637-0.043-0.043-0.078 0.282zm0 0.039v0.043l-0.559 0.039 0.398 0.039 0.282 0.121-0.121-0.242z" inkscape:connector-curvature="0"/>
      <g id="g322">
        <g id="g324">
          <g id="g330">
            <path id="path342" style="fill-rule:evenodd;fill:url(#linearGradient332)" d="m16.941 12.639v0.281c-0.082-0.16-0.375-0.425-0.882-0.8-0.024 0.054-0.051 0.105-0.079 0.16l-0.039 0.039c-0.402 0.535-0.789 0.828-1.16 0.883 0.106 0.132 0.227 0.293 0.36 0.476l0.281 0.402 0.398 0.04c0.321-0.028 0.614-0.188 0.879-0.481 0.242-0.238 0.321-0.574 0.242-1zm-10.281-6.359c0.16 0.695 0.414 1.187 0.762 1.48l0.277 0.199h0.199c-0.265-0.16-0.453-0.32-0.558-0.48-0.266-0.426-0.266-0.613 0-0.559 0.215 0.055 0.48 0.375 0.801 0.961 0-0.027 0.011-0.043 0.039-0.043 0.027-0.023 0.054-0.05 0.082-0.078 0-0.027 0.023-0.055 0.078-0.082v-0.039c0.082-0.133 0.16-0.266 0.238-0.398-0.078-0.082-0.133-0.161-0.156-0.243-0.055-0.21-0.242-0.425-0.563-0.636-0.32-0.188-0.586-0.227-0.8-0.121-0.106 0.078-0.184 0.265-0.239 0.558l-0.16-0.519zm-0.961-1.239c0.106 0.079 0.215 0.161 0.321 0.239 0.027 0.054 0.066 0.093 0.121 0.121 0.238 0.238 0.398 0.48 0.48 0.719 0.371 0.082 0.664 0.015 0.879-0.2 0.027-0.054 0.078-0.132 0.16-0.242 0.028-0.105-0.039-0.25-0.199-0.437-0.16-0.188-0.348-0.348-0.563-0.481-0.16-0.082-0.543-0.293-1.16-0.64-0.531-0.348-0.918-0.493-1.16-0.442v0.043c-0.051 0.293 0.281 0.707 1 1.238 0.055 0.028 0.094 0.055 0.121 0.082zm-1.078-1.441c0.035-0.055 0.129-0.094 0.277-0.121h-0.039c-0.125 0.027-0.203 0.066-0.238 0.121zm0.438 0.719c-0.079-0.078-0.039-0.094 0.121-0.039 0.187 0.054 0.453 0.254 0.8 0.601 0.375 0.344 0.559 0.625 0.559 0.84l-1.199-1.121c-0.133-0.078-0.227-0.172-0.281-0.281zm2.203 0.32c-0.11-0.078-0.227-0.16-0.364-0.238 0.227 0.176 0.414 0.316 0.563 0.418-0.063-0.051-0.133-0.11-0.199-0.18z" inkscape:connector-curvature="0"/>
          </g>
        </g>
      </g>
      <path id="path344" style="fill-rule:evenodd;fill:#7a2e0b" d="m16.18 11.838c0.027-0.133 0.039-0.265 0.039-0.398l-0.039-0.281c-0.028-0.024-0.039-0.051-0.039-0.079l-0.52-0.359c-2.855-2-4.519-3.121-5-3.359-0.266-0.137-0.547-0.321-0.84-0.563-0.242-0.211-0.426-0.32-0.562-0.32-0.16 0-0.293 0.027-0.399 0.082l-0.121 0.117v0.16c-0.027 0.028-0.039 0.055-0.039 0.082-0.027 0.106-0.055 0.215-0.082 0.321-0.078 0.132-0.156 0.265-0.238 0.398v0.039c-0.055 0.027-0.078 0.055-0.078 0.082-0.028 0.028-0.055 0.055-0.082 0.078-0.028 0-0.039 0.016-0.039 0.043-0.082 0.051-0.161 0.078-0.243 0.078h-0.238v0.403l0.078 0.16c0.16-0.055 0.336-0.176 0.524-0.363 0.238-0.239 0.41-0.493 0.519-0.758 0.078-0.106 0.344 0 0.797 0.32l3.203 2.238c0.024 0.188 0.051 0.414 0.078 0.68 0.028 0.16-0.039 0.402-0.199 0.723l-0.039 0.039-0.16 0.238-0.082 0.16-0.039 0.039h0.121c0.531 0.403 1.117 0.84 1.758 1.321l0.562 0.043c0.371-0.055 0.758-0.348 1.16-0.883l0.039-0.039c0.028-0.055 0.055-0.106 0.079-0.16l0.082-0.161c0.027-0.027 0.039-0.066 0.039-0.121z" inkscape:connector-curvature="0"/>
      <path id="path346" style="fill-rule:evenodd;fill:#464647" d="m16.941 12.639c-0.027-0.105-0.054-0.211-0.082-0.32l-0.679-0.481c0 0.055-0.012 0.094-0.039 0.121l-0.082 0.161c0.507 0.375 0.8 0.64 0.882 0.8v-0.281zm-12.043-9.16c-0.148 0.027-0.242 0.066-0.277 0.121v0.039c-0.027 0-0.043 0.016-0.043 0.039 0.242-0.051 0.629 0.094 1.16 0.442 0.617 0.347 1 0.558 1.16 0.64 0.215 0.133 0.403 0.293 0.563 0.481 0.16 0.187 0.227 0.332 0.199 0.437-0.082 0.11-0.133 0.188-0.16 0.242-0.215 0.215-0.508 0.282-0.879 0.2h-0.043l0.082 0.16 0.16 0.519c0.055-0.293 0.133-0.48 0.239-0.558 0.214-0.106 0.48-0.067 0.8 0.121 0.321 0.211 0.508 0.426 0.563 0.636 0.023 0.082 0.078 0.161 0.156 0.243 0.027-0.106 0.055-0.215 0.082-0.321 0-0.027 0.012-0.054 0.039-0.082v-0.16c-0.078-0.105-0.133-0.226-0.16-0.359-0.133-0.481-0.227-0.758-0.277-0.84-0.055-0.078-0.242-0.227-0.563-0.438l-0.121-0.121c0.055-0.105 0.121-0.254 0.203-0.441l-0.121 0.121h-0.121l-0.277 0.039c0.066 0.07 0.136 0.133 0.199 0.18-0.149-0.102-0.336-0.242-0.563-0.418l-0.117-0.082c0-0.024-0.015-0.039-0.043-0.039-0.238-0.16-0.465-0.305-0.679-0.442l-0.2-0.16h-0.039c-0.16-0.105-0.32-0.172-0.48-0.199-0.133-0.027-0.238-0.039-0.32-0.039-0.055 0.027-0.094 0.039-0.122 0.039z" inkscape:connector-curvature="0"/>
      <path id="path348" style="fill-rule:evenodd;fill:#fc9063" d="m12.66 11.362c-0.375-0.27-0.801-0.574-1.281-0.922-1.945-1.414-2.973-2.121-3.078-2.121-0.16 0-0.067 0.16 0.277 0.48l3.883 2.84 0.16-0.238 0.039-0.039z" inkscape:connector-curvature="0"/>
      <path id="path350" style="fill-rule:evenodd;fill:#b24716" d="m7.66 8.362c0 0.211 0.254 0.426 0.762 0.636 0.156 0.082 0.426 0.282 0.797 0.602 0.508 0.293 1.562 1.027 3.16 2.199l0.082-0.16-3.883-2.84c-0.344-0.32-0.437-0.48-0.277-0.48 0.105 0 1.133 0.707 3.078 2.121 0.48 0.348 0.906 0.652 1.281 0.922 0.16-0.321 0.227-0.563 0.199-0.723-0.027-0.266-0.054-0.492-0.078-0.68l-3.203-2.238c-0.453-0.32-0.719-0.426-0.797-0.32-0.109 0.265-0.281 0.519-0.519 0.758-0.188 0.187-0.364 0.308-0.524 0.363l-0.078-0.16z" inkscape:connector-curvature="0"/>
      <g id="g352">
        <g id="g354">
          <g id="g360">
            <path id="path368" style="fill-rule:evenodd;fill:url(#linearGradient362)" d="m5.699 5.041c-0.027-0.027-0.066-0.054-0.121-0.082-0.719-0.531-1.051-0.945-1-1.238v-0.043c0-0.023 0.016-0.039 0.043-0.039v-0.039c0.035-0.055 0.113-0.094 0.238-0.121h0.039c0.028 0 0.067-0.012 0.122-0.039 0.082 0 0.187 0.015 0.32 0.039 0.16 0.027 0.32 0.094 0.48 0.199h0.039c0.293 0.16 0.629 0.375 1 0.641l-0.519-0.399c-0.508-0.398-1.133-0.64-1.879-0.718h0.719c0.242 0 0.48 0.039 0.718 0.117l-1.078-0.481c-0.398-0.133-1.082-0.425-2.039-0.879-0.961-0.453-1.453-0.718-1.48-0.8-0.055-0.211 0.398-0.239 1.359-0.079 0.266 0.028 0.828 0.106 1.68 0.239 0.828 0.136 1.441 0.308 1.84 0.519 0.242 0.137 0.601 0.364 1.082 0.684 0.398 0.293 0.652 0.492 0.758 0.598 0.132 0.105 0.16 0.242 0.082 0.402-0.11 0.183-0.321 0.316-0.641 0.398-0.082 0.028-0.281-0.015-0.602-0.121l0.082 0.039c0.371 0.27 0.586 0.414 0.637 0.442 0.082 0.082 0.16 0.082 0.242 0 0.641-0.641 0.895-1.067 0.758-1.282-0.105-0.16-0.492-0.453-1.156-0.878-0.723-0.481-1.348-0.786-1.883-0.918-0.961-0.297-2.453-0.469-4.48-0.524h-0.598c-0.106 0.027-0.199 0.067-0.281 0.121-0.321 0.215-0.215 0.774 0.32 1.68 0.453 0.801 0.973 1.48 1.559 2.043 0.402 0.398 0.921 0.746 1.562 1.039 0.531 0.238 0.918 0.359 1.16 0.359 0.16 0 0.426-0.082 0.797-0.242 0.242-0.105 0.43-0.199 0.563-0.277-0.055-0.028-0.094-0.067-0.121-0.121-0.188 0.082-0.426 0.187-0.719 0.32s-0.613 0.133-0.961 0l-0.399-0.199 1 0.199 0.758-0.559zm-0.64 0.161c-0.211 0.183-0.614 0.171-1.2-0.043-0.664-0.161-1.293-0.637-1.879-1.438-0.96-1.176-1.441-1.933-1.441-2.281 0-0.078 0.266 0.133 0.801 0.64 0.64 0.586 1.105 0.961 1.398 1.122 1.547 0.933 2.348 1.464 2.403 1.597 0.105 0.133 0.078 0.266-0.082 0.403z" inkscape:connector-curvature="0"/>
          </g>
        </g>
      </g>
      <path id="path370" style="fill-rule:evenodd;fill:#636466" d="m6.02 5.28c-0.106-0.078-0.215-0.16-0.321-0.239l-0.758 0.559-1-0.199 0.399 0.199c0.348 0.133 0.668 0.133 0.961 0s0.531-0.238 0.719-0.32zm0.839-1.481-0.961-0.48c-0.238-0.078-0.476-0.117-0.718-0.117h-0.719c0.746 0.078 1.371 0.32 1.879 0.718l0.519 0.399c-0.371-0.266-0.707-0.481-1-0.641l0.2 0.16c0.214 0.137 0.441 0.282 0.679 0.442 0.028 0 0.043 0.015 0.043 0.039l0.117 0.082c0.137 0.078 0.254 0.16 0.364 0.238l0.277-0.039c0.082-0.055 0.16-0.105 0.242-0.16l0.84-0.719c0.371-0.402 0.453-0.734 0.238-1-0.027-0.055-0.359-0.293-1-0.723-0.558-0.371-0.972-0.625-1.238-0.757-0.508-0.243-1.066-0.403-1.68-0.481-0.453-0.082-0.894-0.148-1.32-0.199h-0.32c-1.309-0.133-2.266-0.094-2.879 0.117h0.637c2.027 0.055 3.519 0.227 4.48 0.524 0.535 0.132 1.16 0.437 1.883 0.918 0.664 0.425 1.051 0.718 1.156 0.878 0.137 0.215-0.117 0.641-0.758 1.282-0.082 0.082-0.16 0.082-0.242 0-0.051-0.028-0.266-0.172-0.637-0.442l-0.082-0.039z" inkscape:connector-curvature="0"/>
      <path id="path372" style="fill-rule:evenodd;fill:#d5d9db" d="m8.141 7.881c-0.321-0.586-0.586-0.906-0.801-0.961-0.266-0.054-0.266 0.133 0 0.559 0.105 0.16 0.293 0.32 0.558 0.48 0.082 0 0.161-0.027 0.243-0.078zm-3.082-3.562c0.054 0.109 0.148 0.203 0.281 0.281l1.199 1.121c0-0.215-0.184-0.496-0.559-0.84-0.347-0.347-0.613-0.547-0.8-0.601-0.16-0.055-0.2-0.039-0.121 0.039z" inkscape:connector-curvature="0"/>
      <g id="g374">
        <g id="g376">
          <g id="g382">
            <path id="path390" style="fill-rule:evenodd;fill:url(#linearGradient384)" d="m5.059 5.202c0.16-0.137 0.187-0.27 0.082-0.403-0.055-0.133-0.856-0.664-2.403-1.597-0.293-0.161-0.758-0.536-1.398-1.122-0.535-0.507-0.801-0.718-0.801-0.64 0 0.348 0.481 1.105 1.441 2.281 0.586 0.801 1.215 1.277 1.879 1.438 0.586 0.214 0.989 0.226 1.2 0.043z" inkscape:connector-curvature="0"/>
          </g>
        </g>
      </g>
      <g id="g392">
        <g id="g394">
          <g id="g400">
            <path id="path408" style="fill-rule:evenodd;fill:url(#linearGradient402)" d="m5.898 3.319 0.961 0.48c0.321 0.106 0.52 0.149 0.602 0.121 0.32-0.082 0.531-0.215 0.641-0.398 0.078-0.16 0.05-0.297-0.082-0.402-0.106-0.106-0.36-0.305-0.758-0.598-0.481-0.32-0.84-0.547-1.082-0.684-0.399-0.211-1.012-0.383-1.84-0.519-0.852-0.133-1.414-0.211-1.68-0.239-0.961-0.16-1.414-0.132-1.359 0.079 0.027 0.082 0.519 0.347 1.48 0.8 0.957 0.454 1.641 0.746 2.039 0.879l1.078 0.481z" inkscape:connector-curvature="0"/>
          </g>
        </g>
      </g>
      <g id="g410">
        <g id="g412">
          <g id="g418">
            <path id="path426" style="fill-rule:evenodd;fill:url(#linearGradient420)" d="m16.582 20.44c-0.187 0.133-0.375 0.281-0.562 0.441-1.946 1.547-3.028 2.414-3.239 2.598l-0.48 0.441c-0.055-0.054-0.121-0.054-0.199 0l-0.161 0.121-0.043 0.039 0.082-0.121c0.055-0.054 0.079-0.132 0.079-0.238 0-0.215-0.039-0.359-0.118-0.441l-0.043-0.078 0.321-0.204 7.043-5.398-0.563-0.441c-0.293-0.079-0.465-0.094-0.519-0.039-0.078 0.027-2.453 1.949-7.121 5.761l0.722-0.562 0.438 0.242-0.399 0.559-0.359 0.199 0.039 0.043-0.32 0.277v-0.039l-0.282 0.238-0.519 0.563 0.16 0.238c0.16 0 0.481-0.144 0.961-0.437l-0.719 0.636-0.32 0.364 0.16 0.078-0.199 0.199-0.043-0.039-0.559 0.039-0.121-0.199c-0.078-0.133-0.105-0.227-0.078-0.282l1.399-1.277-1.719 1.438-0.602 0.519-1.16 0.961-1.199 0.68c-0.559-0.051-0.945-0.117-1.16-0.199l-0.918-0.52 0.039-0.52 0.078-0.199c0.027-0.054 0.094-0.093 0.203-0.121l-0.082-0.039 0.52-0.242c-0.293-0.051-0.625-0.16-1-0.32l-0.84-0.52-0.2 0.199c-0.027 0.082 0.012 0.16 0.122 0.242l0.839 0.442-0.761-0.203-0.399-0.399-0.562 0.282c-0.106 0.05-0.305 0.253-0.598 0.597l-0.082 0.242c-0.047-0.164-0.074-0.316-0.078-0.461 0.004 0.247 0.047 0.493 0.121 0.739 0.051 0.136 0.184 0.359 0.398 0.679 0.239 0.321 0.481 0.575 0.719 0.762 0.242 0.215 0.668 0.442 1.281 0.68 0.614 0.238 1.028 0.332 1.239 0.281 0.613-0.109 1.414-0.308 2.402-0.601l2.039-1.84c0.215-0.239 1.238-1.145 3.078-2.719l3.844-3.121zm-14.32 5.32c0.133-0.133 0.226-0.199 0.277-0.199-0.293 0.371-0.359 0.707-0.199 1 0.215 0.371 0.762 0.785 1.64 1.238 0.586 0.321 1.079 0.481 1.481 0.481 0.238 0 0.613-0.055 1.121-0.16-0.723 0.32-1.242 0.468-1.562 0.441l-1.801-0.801c-0.348-0.215-0.692-0.574-1.039-1.082-0.239-0.316-0.215-0.625 0.082-0.918zm1.039-2.082c-0.188-0.023-0.348 0.016-0.481 0.121-0.027 0.051-0.05 0.09-0.082 0.121l0.043-0.039c-0.109 0.239-0.136 0.438-0.082 0.598 0.028 0.109 0.067 0.16 0.121 0.16l0.282-0.078 0.039-0.68c0.054-0.109 0.105-0.176 0.16-0.203zm1.121 3.524c-0.59-0.27-0.817-0.602-0.684-1-0.023 0.238 0.082 0.453 0.321 0.636 0.402 0.321 0.8 0.508 1.203 0.563l0.519 0.16c-0.426-0.027-0.883-0.148-1.359-0.359zm2.316-0.961c-0.211 0.105-0.371 0.172-0.476 0.199h0.039c0.105-0.027 0.254-0.094 0.437-0.199zm12.883-8.282h0.039l-0.039-0.039v0.039z" inkscape:connector-curvature="0"/>
          </g>
        </g>
      </g>
      <path id="path428" style="fill-rule:evenodd;fill:#a1a2a4" d="m2.262 25.76c-0.297 0.293-0.321 0.602-0.082 0.918 0.347 0.508 0.695 0.867 1.039 1.082l1.801 0.801c0.32 0.027 0.839-0.121 1.562-0.441-0.508 0.105-0.883 0.16-1.121 0.16-0.402 0-0.895-0.16-1.481-0.481-0.878-0.453-1.425-0.867-1.64-1.238-0.16-0.293-0.094-0.629 0.199-1-0.051 0-0.144 0.066-0.277 0.199z" inkscape:connector-curvature="0"/>
      <path id="path430" style="fill-rule:evenodd;fill:#9c9ea1" d="m3.18 24.639-0.078-0.078-0.282 0.078c-0.054 0-0.093-0.051-0.121-0.16-0.051-0.16-0.027-0.359 0.082-0.598l-0.043 0.039c-0.05 0.078-0.093 0.133-0.117 0.16-0.723 0.454-1.105 0.758-1.16 0.918-0.027 0.137-0.027 0.282 0 0.442v0.14c0.004 0.145 0.031 0.297 0.078 0.461l0.082-0.242c0.293-0.344 0.492-0.547 0.598-0.597l0.562-0.282 0.399 0.399 0.761 0.203-0.839-0.442c-0.11-0.082-0.149-0.16-0.122-0.242l0.2-0.199zm1.242 2.563c0.476 0.211 0.933 0.332 1.359 0.359l-0.519-0.16c-0.403-0.055-0.801-0.242-1.203-0.563-0.239-0.183-0.344-0.398-0.321-0.636-0.133 0.398 0.094 0.73 0.684 1z" inkscape:connector-curvature="0"/>
      <path id="path432" style="fill-rule:evenodd;fill:#6d6f70" d="m3.301 23.678c-0.055 0.027-0.106 0.094-0.16 0.203l-0.039 0.68 0.078 0.078 0.84 0.52c0.375 0.16 0.707 0.269 1 0.32 0.054-0.504 0.054-0.785 0-0.84-0.079-0.184-0.375-0.414-0.879-0.68-0.293-0.187-0.575-0.281-0.84-0.281zm2.961 2.762c-0.137 0.027-0.496-0.067-1.082-0.281l-0.598-0.399 0.156 0.121c0 0.211 0.043 0.387 0.121 0.52 0.082 0.187 0.321 0.371 0.723 0.558 0.398 0.188 0.613 0.227 0.637 0.121l0.082-0.242 0.039 0.481-0.039-0.879h-0.039zm-1.403-1.199-1.16-0.563c-0.211-0.156-0.304-0.344-0.277-0.558l0.039-0.239c0.078 0.266 0.238 0.481 0.48 0.641 0.481 0.316 0.786 0.476 0.918 0.476h0.039l-0.039 0.243z" inkscape:connector-curvature="0"/>
      <path id="path434" style="fill-rule:evenodd;fill:#545657" d="m6.34 27.319-0.039-0.481-0.082 0.242c-0.028 0.106-0.239 0.067-0.637-0.121-0.402-0.187-0.641-0.371-0.723-0.558-0.078-0.133-0.121-0.309-0.121-0.52l-0.156-0.121c-0.109 0.028-0.176 0.067-0.203 0.121l-0.078 0.199-0.039 0.52 0.918 0.52c0.215 0.082 0.601 0.148 1.16 0.199zm-1.481-2.078 0.039-0.243h-0.039c-0.132 0-0.437-0.16-0.918-0.476-0.242-0.16-0.402-0.375-0.48-0.641l-0.039 0.239c-0.027 0.214 0.066 0.402 0.277 0.558l1.16 0.563z" inkscape:connector-curvature="0"/>
      <path id="path436" style="fill-rule:evenodd;fill:#77797a" d="m11.18 23.6v0.039l0.32-0.277-0.039-0.043 0.359-0.199 0.399-0.559-0.438-0.242-0.722 0.562-2.797 2.199-0.16 0.161 0.398 0.359 0.199 0.078 0.602-0.519 0.719-0.637c-0.079-0.188-0.106-0.32-0.079-0.402 0.106-0.161 0.293-0.321 0.559-0.481l0.32-0.238c0.293-0.133 0.426-0.106 0.399 0.078l-0.039 0.121zm-0.282 0.238 0.122-0.117-1.399 1.277c-0.027 0.055 0 0.149 0.078 0.282l0.121 0.199 0.559-0.039 0.043 0.039 0.199-0.199-0.16-0.078 0.32-0.364 0.719-0.636c-0.48 0.293-0.801 0.437-0.961 0.437l-0.16-0.238 0.519-0.563zm5.684-3.398c1.68-1.305 2.664-2.055 2.957-2.238 0.055-0.082 0.082-0.161 0.082-0.243v-0.039c0-0.027-0.016-0.054-0.039-0.082l-0.242-0.277-0.078 0.039-7.043 5.398-0.321 0.204 0.043 0.078c0.079 0.082 0.118 0.226 0.118 0.441 0 0.106-0.024 0.184-0.079 0.238l-0.082 0.121 0.043-0.039 0.161-0.121c0.078-0.054 0.144-0.054 0.199 0l0.48-0.441c0.211-0.184 1.293-1.051 3.239-2.598 0.187-0.16 0.375-0.308 0.562-0.441z" inkscape:connector-curvature="0"/>
      <g id="g438">
        <g id="g440">
          <g id="g446">
            <path id="path454" style="fill-rule:evenodd;fill:url(#linearGradient448)" d="m6.301 26.44 0.039 0.879 1.199-0.68 1.16-0.961-0.199-0.078-0.398-0.359-0.403 0.398c-0.371 0.266-0.613 0.414-0.719 0.441l-0.039 0.04-0.203 0.121c-0.183 0.105-0.332 0.172-0.437 0.199zm4.719-2.719-0.122 0.117 0.282-0.238 0.039-0.121c0.027-0.184-0.106-0.211-0.399-0.078l-0.32 0.238c-0.266 0.16-0.453 0.32-0.559 0.481-0.027 0.082 0 0.214 0.079 0.402l-0.719 0.637 1.719-1.438z" inkscape:connector-curvature="0"/>
          </g>
        </g>
      </g>
      <path id="path456" style="fill-rule:evenodd;fill:#7a2e0b" d="m6.781 22.721-0.121-0.402c-0.051 0.027-0.094 0.043-0.121 0.043-0.398 0-0.641-0.028-0.719-0.082-0.027-0.028-0.054-0.039-0.078-0.039l-0.203 1.199 1.563 0.879c0.343 0.187 1.343 0.883 3 2.082h0.117c0.027-0.028 0.054-0.055 0.082-0.082 0.078-0.106 0.144-0.254 0.199-0.438v-0.121c-0.055 0.238-0.121 0.414-0.199 0.52-0.453-0.321-0.774-0.614-0.961-0.879-0.266-0.403-0.508-0.613-0.719-0.641-0.133-0.027-0.359-0.105-0.68-0.238-0.32-0.137-0.507-0.242-0.562-0.32l-0.117-0.243 0.679 0.243c0.504 0.16 0.84 0.226 1 0.199 0.161-0.028 0.371-0.133 0.641-0.321 0.023-0.082 0.066-0.132 0.117-0.16 0.055-0.054 0.133-0.105 0.242-0.16l6.438-5.039c0.16-0.133 0.336-0.266 0.519-0.402l-0.039-0.239-1.8-0.082c-0.079 0-0.934 0.657-2.559 1.961-1.734 1.36-2.707 2.106-2.918 2.243-0.297 0.16-0.59 0.398-0.883 0.718l-0.359 0.399 0.441-0.399 0.719-0.441c1.094-0.852 1.922-1.277 2.48-1.277 0.293 0 0.465 0.093 0.52 0.277-1.332 1.094-2.305 1.855-2.918 2.281-0.375 0.293-0.883 0.414-1.523 0.36l-0.797-0.161-0.364-0.597-0.117-0.641z" inkscape:connector-curvature="0"/>
      <path id="path458" style="fill-rule:evenodd;fill:#b24716" d="m5.539 23.44-0.238 0.039-0.602 0.199 1.52 0.844c0.242 0.133 1.375 0.785 3.402 1.957 0.238 0.082 0.438 0.055 0.598-0.078h-0.117c-1.657-1.199-2.657-1.895-3-2.082l-1.563-0.879zm3.359-1.199c0.321-0.215 0.59-0.309 0.801-0.282-0.265 0.215-0.426 0.36-0.48 0.442l-1.559 1c-0.027 0.027-0.051 0.066-0.078 0.121-0.109 0.105-0.16 0.183-0.16 0.238l-0.16 0.199 0.797 0.161c0.64 0.054 1.148-0.067 1.523-0.36 0.613-0.426 1.586-1.187 2.918-2.281-0.055-0.184-0.227-0.277-0.52-0.277-0.558 0-1.386 0.425-2.48 1.277l-0.719 0.441-0.441 0.399 0.359-0.399c0.293-0.32 0.586-0.558 0.883-0.718 0.211-0.137 1.184-0.883 2.918-2.243 1.625-1.304 2.48-1.961 2.559-1.961l1.8 0.082 0.039 0.239c-0.183 0.136-0.359 0.269-0.519 0.402 0.48-0.348 0.973-0.734 1.48-1.16l0.762-0.039c0.426-0.082 0.52-0.215 0.277-0.402-0.371-0.266-1.492-0.852-3.359-1.758-4.531 3.679-7.039 5.679-7.519 6l-0.04 0.039c0.079-0.055 0.2-0.094 0.36-0.121 1.254-1.145 2.176-1.68 2.762-1.602 0.293 0.027 0.453 0.176 0.48 0.442l-2.684 2.121zm-2.238 0.078 0.121 0.402-0.082-0.441-0.039 0.039z" inkscape:connector-curvature="0"/>
      <path id="path460" style="fill-rule:evenodd;fill:#612409" d="m9.582 24.08c-0.27 0.188-0.48 0.293-0.641 0.321-0.16 0.027-0.496-0.039-1-0.199l-0.679-0.243 0.117 0.243c0.055 0.078 0.242 0.183 0.562 0.32 0.321 0.133 0.547 0.211 0.68 0.238 0.211 0.028 0.453 0.238 0.719 0.641 0.187 0.265 0.508 0.558 0.961 0.879 0.078-0.106 0.144-0.282 0.199-0.52 0.027-0.105 0.027-0.226 0-0.359l-0.602-0.321c-0.078-0.082-0.144-0.187-0.199-0.32-0.051-0.105-0.094-0.215-0.117-0.32v-0.36z" inkscape:connector-curvature="0"/>
      <path id="path462" style="fill-rule:evenodd;fill:#d65f29" d="m7.66 23.401c0.293-0.403 0.641-0.746 1.039-1.039l0.199-0.121 2.684-2.121c-0.027-0.266-0.187-0.415-0.48-0.442-0.586-0.078-1.508 0.457-2.762 1.602-0.16 0.027-0.281 0.066-0.36 0.121-0.054 0.027-0.105 0.054-0.16 0.078l-1.121 0.801 0.082 0.441 0.117 0.641 0.364 0.597 0.16-0.199c0-0.055 0.051-0.133 0.16-0.238 0.023-0.055 0.051-0.094 0.078-0.121zm-2.961 0.277 0.602-0.199 0.238-0.039 0.203-1.199c-0.137-0.055-0.281-0.067-0.441-0.039-0.055 0-0.16 0.039-0.321 0.117-0.132 0.109-0.214 0.187-0.238 0.242l-0.043 1.117z" inkscape:connector-curvature="0"/>
      <path id="path464" style="fill-rule:evenodd;fill:#fc9063" d="m7.66 23.401 1.559-1c0.054-0.082 0.215-0.227 0.48-0.442-0.211-0.027-0.48 0.067-0.801 0.282l-0.199 0.121c-0.398 0.293-0.746 0.636-1.039 1.039z" inkscape:connector-curvature="0"/>
      <g id="g466">
        <g id="g468">
          <g id="g474">
            <path id="path482" style="fill-rule:evenodd;fill:url(#linearGradient476)" d="m14.422 22.401c0.238 0.16 0.492 0.293 0.758 0.398 0.293 0.133 0.601 0.242 0.922 0.321-0.43-0.133-0.817-0.305-1.161-0.52-0.613-0.398-1.027-0.867-1.242-1.398-0.16-0.297-0.238-0.614-0.238-0.961 0-0.852 0.465-1.575 1.398-2.161 0.907-0.585 2.016-0.878 3.321-0.878 1.308 0 2.414 0.293 3.32 0.878 0.668 0.426 1.094 0.907 1.281 1.442 0 0.023 0.012 0.051 0.039 0.078 0.133 0.266 0.2 0.559 0.2 0.879 0 0.746-0.372 1.375-1.122 1.883-0.105 0.105-0.226 0.199-0.359 0.277-0.32 0.188-0.652 0.348-1 0.481h0.043c0.371-0.133 0.746-0.293 1.117-0.481 0.188-0.105 0.387-0.226 0.602-0.359 1.121-0.774 1.679-1.707 1.679-2.801s-0.558-2.024-1.679-2.801c-1.121-0.773-2.469-1.156-4.039-1.156-1.176 0-2.231 0.211-3.16 0.637-0.321 0.16-0.614 0.336-0.883 0.519-1.117 0.777-1.68 1.707-1.68 2.801s0.563 2.027 1.68 2.801h0.043c-0.543-0.387-0.93-0.813-1.16-1.282l0.398 0.204c0.188 0.425 0.52 0.812 1 1.16l-0.078 0.039zm-1.121-1.922-0.52-0.438-0.043-0.441c0-0.293 0.067-0.641 0.203-1.039l0.598 0.719c-0.184 0.375-0.277 0.707-0.277 1l0.039 0.199zm0.918-3.481 0.441 1.043c-0.293 0.211-0.586 0.481-0.879 0.797l-0.562-0.797c0.242-0.347 0.574-0.695 1-1.043zm8.043 5.161c0.238-0.211 0.453-0.481 0.636-0.797l0.364-0.082c-0.215 0.32-0.508 0.625-0.883 0.922l-0.117-0.043zm-0.043-5.239c0.562 0.399 0.976 0.852 1.242 1.36l-0.641 0.718c-0.265-0.398-0.668-0.757-1.199-1.078l0.598-1zm-2.758 0.239 0.199-1.239c0.695 0.106 1.332 0.305 1.922 0.602l-0.684 1.039c-0.558-0.215-1.039-0.348-1.437-0.402zm3.758 3.121-0.078-0.602 0.597-0.598 0.082 0.52c0 0.188-0.054 0.492-0.16 0.922l-0.48 0.156 0.039-0.398zm-4.52-3.2-1.32 0.04-0.238-1.239c0.238-0.054 0.613-0.082 1.121-0.082h0.597l-0.16 1.281zm-3.48 0.641-0.438-1.082c0.426-0.238 0.973-0.453 1.641-0.641l0.238 1.243c-0.508 0.105-0.988 0.265-1.441 0.48z" inkscape:connector-curvature="0"/>
          </g>
        </g>
      </g>
      <g id="g484">
        <g id="g486">
          <g id="g492">
            <path id="path500" style="fill-rule:evenodd;fill:url(#linearGradient494)" d="m19.219 23.159 0.48-0.079 0.082 0.04-0.562 0.121v-0.082zm-5-3.637c-0.239 0.344-0.36 0.719-0.36 1.117 0 0.774 0.442 1.441 1.321 2 0.718 0.453 1.558 0.723 2.519 0.801l0.563 0.039h0.078c0.801 0 1.519-0.117 2.16-0.359h0.039c0.348-0.133 0.68-0.293 1-0.481 0.133-0.078 0.254-0.172 0.359-0.277 0.641-0.481 0.961-1.055 0.961-1.723 0-0.801-0.437-1.48-1.32-2.039-0.879-0.559-1.945-0.84-3.199-0.84s-2.305 0.281-3.16 0.84c-0.426 0.266-0.746 0.574-0.961 0.922zm7.043 2.84c0.16-0.137 0.304-0.309 0.437-0.524h0.121c-0.105 0.188-0.265 0.364-0.48 0.524h-0.078zm0.117-2.242c-0.133-0.133-0.359-0.293-0.68-0.481l0.121-0.238c0.266 0.133 0.52 0.32 0.762 0.558l-0.203 0.161zm0.601 0.441 0.079 0.48-0.039 0.321h-0.122v-0.16c0-0.188-0.039-0.364-0.117-0.524l0.199-0.117zm-3.16-1.402v-0.321c0.481 0.028 0.918 0.11 1.321 0.242l-0.121 0.282-1.2-0.203zm1.559 1.121c0.562 0.293 0.84 0.652 0.84 1.082 0 0.426-0.278 0.785-0.84 1.078-0.531 0.293-1.184 0.441-1.957 0.441-0.774 0-1.442-0.148-2-0.441-0.535-0.293-0.801-0.652-0.801-1.078 0-0.43 0.266-0.789 0.801-1.082 0.558-0.293 1.226-0.442 2-0.442 0.773 0 1.426 0.149 1.957 0.442zm-5.559 1.48c-0.082-0.16-0.148-0.359-0.199-0.601l0.16 0.082c0 0.214 0.051 0.386 0.16 0.519h-0.121zm2.399 1.36v0.082l-0.16-0.043 0.043-0.079 0.117 0.04zm-0.078-3.84-0.082-0.321c0.32-0.078 0.656-0.121 1-0.121v0.321c-0.321 0-0.625 0.043-0.918 0.121zm-2.481 1.441c0.078-0.293 0.238-0.562 0.481-0.801 0.054 0.028 0.105 0.094 0.16 0.2-0.242 0.187-0.403 0.414-0.481 0.679l-0.16-0.078zm1.801-1.281-0.723 0.359-0.156-0.238 0.797-0.402 0.082 0.281z" inkscape:connector-curvature="0"/>
          </g>
        </g>
      </g>
      <path id="path502" style="fill-rule:evenodd;fill:#591e04" d="m19.219 23.159v0.082l0.562-0.121-0.082-0.04-0.48 0.079zm7-4.52c-0.078-1.598-0.785-2.934-2.117-4-1.442-1.172-3.348-1.758-5.723-1.758-2.238 0-4.051 0.52-5.438 1.559-1.253 0.961-1.972 2.199-2.16 3.719l0.039 0.16c0.266-1.438 1.012-2.625 2.239-3.559 1.386-0.988 3.16-1.48 5.32-1.48 2.269 0 4.121 0.547 5.562 1.64 1.332 1.012 2.079 2.282 2.239 3.801v0.039l0.039-0.082v-0.039zm0.32-1.32c-0.133-1.547-0.867-2.84-2.199-3.879-1.492-1.172-3.442-1.762-5.84-1.762s-4.305 0.574-5.719 1.723c-1.281 0.984-2 2.265-2.16 3.84v0.078l0.039 0.082v0.199c0.16-1.574 0.879-2.855 2.16-3.84 1.442-1.094 3.332-1.64 5.68-1.64s4.266 0.558 5.762 1.679c1.332 1.016 2.078 2.293 2.238 3.84l0.039-0.199v-0.121zm-12.32-0.321c-0.426 0.348-0.758 0.696-1 1.043l0.562 0.797c0.293-0.316 0.586-0.586 0.879-0.797l-0.441-1.043zm-0.918 3.481-0.039-0.199c0-0.293 0.093-0.625 0.277-1l-0.598-0.719c-0.136 0.398-0.203 0.746-0.203 1.039l0.043 0.441 0.52 0.438zm1.121 1.922 0.078-0.039c-0.48-0.348-0.812-0.735-1-1.16l-0.398-0.204c0.23 0.469 0.617 0.895 1.16 1.282 0.011 0.015 0.023 0.031 0.039 0.039 0.015 0 0.027 0.008 0.039 0.019 0.004 0.016 0.015 0.024 0.039 0.024 0.027 0 0.043 0.011 0.043 0.039zm4.277-5.321 0.16-1.281h-0.597c-0.508 0-0.883 0.028-1.121 0.082l0.238 1.239 1.32-0.04zm-1.48 6.04-0.117-0.04-0.043 0.079 0.16 0.043v-0.082zm-2.399-1.36h0.121c-0.109-0.133-0.16-0.305-0.16-0.519l-0.16-0.082c0.051 0.242 0.117 0.441 0.199 0.601zm1.641-2.32-0.082-0.281-0.797 0.402 0.156 0.238 0.723-0.359zm-1.801 1.281 0.16 0.078c0.078-0.265 0.239-0.492 0.481-0.679-0.055-0.106-0.106-0.172-0.16-0.2-0.243 0.239-0.403 0.508-0.481 0.801zm2.481-1.441c0.293-0.078 0.597-0.121 0.918-0.121v-0.321c-0.344 0-0.68 0.043-1 0.121l0.082 0.321zm-1.922-1.559c0.453-0.215 0.933-0.375 1.441-0.48l-0.238-1.243c-0.668 0.188-1.215 0.403-1.641 0.641l0.438 1.082z" inkscape:connector-curvature="0"/>
      <path id="path504" style="fill-rule:evenodd;fill:#421603" d="m21.262 22.362h0.078c0.215-0.16 0.375-0.336 0.48-0.524h-0.121c-0.133 0.215-0.277 0.387-0.437 0.524zm1-0.203 0.117 0.043c0.375-0.297 0.668-0.602 0.883-0.922l-0.364 0.082c-0.183 0.316-0.398 0.586-0.636 0.797zm-0.282-1.598-0.199 0.117c0.078 0.16 0.117 0.336 0.117 0.524v0.16h0.122l0.039-0.321-0.079-0.48zm-0.601-0.441 0.203-0.161c-0.242-0.238-0.496-0.425-0.762-0.558l-0.121 0.238c0.321 0.188 0.547 0.348 0.68 0.481zm0.84-3.2-0.598 1c0.531 0.321 0.934 0.68 1.199 1.078l0.641-0.718c-0.266-0.508-0.68-0.961-1.242-1.36zm1 3.36-0.039 0.398 0.48-0.156c0.106-0.43 0.16-0.734 0.16-0.922l-0.082-0.52-0.597 0.598 0.078 0.602z" inkscape:connector-curvature="0"/>
      <g id="g506">
        <g id="g508">
          <g id="g514">
            <path id="path522" style="fill-rule:evenodd;fill:url(#linearGradient516)" d="m26.5 17.639c-0.16-1.547-0.906-2.824-2.238-3.84-1.496-1.121-3.414-1.679-5.762-1.679s-4.238 0.546-5.68 1.64c-1.281 0.985-2 2.266-2.16 3.84 0.16 1.387 0.922 2.652 2.281 3.801 0.348 0.293 0.707 0.547 1.079 0.758-0.481-0.344-0.852-0.719-1.122-1.118-0.503-0.613-0.757-1.308-0.757-2.082 0-1.199 0.586-2.226 1.757-3.078 1.204-0.828 2.629-1.242 4.282-1.242 1.679 0 3.105 0.414 4.281 1.242 0.586 0.426 1.027 0.891 1.32 1.399 0.371 0.558 0.559 1.172 0.559 1.84 0 1.199-0.586 2.214-1.758 3.039-0.402 0.296-0.844 0.535-1.32 0.722 0.933-0.32 1.824-0.816 2.679-1.48 1.094-0.856 1.84-1.746 2.239-2.68-0.16-1.519-0.907-2.789-2.239-3.801-1.441-1.093-3.293-1.64-5.562-1.64-2.16 0-3.934 0.492-5.32 1.48-1.227 0.934-1.973 2.121-2.239 3.559l-0.039-0.16c0.184-1.52 0.907-2.758 2.16-3.719 1.387-1.039 3.2-1.559 5.438-1.559 2.375 0 4.281 0.586 5.723 1.758 1.332 1.066 2.039 2.402 2.117 4 0.054-0.16 0.109-0.32 0.16-0.48 0.027-0.106 0.055-0.211 0.082-0.321 0.027-0.05 0.039-0.117 0.039-0.199zm-14.52-4.16c-0.828 0.906-1.265 1.961-1.32 3.16-0.027 0.133-0.039 0.266-0.039 0.402v0.2c0.16-1.575 0.879-2.856 2.16-3.84 1.414-1.149 3.321-1.723 5.719-1.723s4.348 0.59 5.84 1.762c1.332 1.039 2.066 2.332 2.199 3.879v-0.239c0-1.652-0.68-3.039-2.039-4.16-1.492-1.226-3.492-1.84-6-1.84-2.48 0-4.453 0.614-5.918 1.84-0.215 0.188-0.414 0.375-0.602 0.559z" inkscape:connector-curvature="0"/>
          </g>
        </g>
      </g>
      <g id="g524">
        <g id="g526">
          <g id="g532">
            <path id="path540" style="fill-rule:evenodd;fill:url(#linearGradient534)" d="m14.219 22.28c-1.117-0.774-1.68-1.707-1.68-2.801s0.563-2.024 1.68-2.801c0.269-0.183 0.562-0.359 0.883-0.519 0.984-0.504 2.117-0.758 3.398-0.758 1.574 0 2.922 0.387 4.039 1.16 1.121 0.773 1.68 1.707 1.68 2.801 0 1.093-0.559 2.027-1.68 2.797-0.266 0.187-0.547 0.347-0.84 0.48-0.371 0.188-0.746 0.348-1.117 0.481 0.238-0.079 0.465-0.161 0.68-0.239 0.476-0.187 0.918-0.429 1.32-0.722 1.172-0.825 1.758-1.84 1.758-3.039 0-0.665-0.188-1.282-0.559-1.84-0.293-0.426-0.695-0.828-1.199-1.2-1.203-0.855-2.629-1.281-4.281-1.281-1.68 0-3.106 0.426-4.281 1.281-1.172 0.852-1.758 1.868-1.758 3.04 0 0.718 0.211 1.359 0.636 1.921 0.27 0.399 0.641 0.774 1.122 1.118 0.054 0.054 0.121 0.093 0.199 0.121z" inkscape:connector-curvature="0"/>
          </g>
        </g>
      </g>
      <path id="path542" style="fill-rule:evenodd;fill:#571e05" d="m14.219 19.522c0.215-0.348 0.535-0.656 0.961-0.922 0.851-0.559 1.906-0.84 3.16-0.84s2.32 0.281 3.199 0.84c0.883 0.559 1.32 1.238 1.32 2.039 0 0.668-0.32 1.242-0.961 1.723 0.75-0.508 1.122-1.137 1.122-1.883 0-0.32-0.067-0.613-0.2-0.879-0.027-0.027-0.039-0.055-0.039-0.078-0.215-0.375-0.574-0.723-1.082-1.043-0.906-0.559-1.984-0.84-3.238-0.84-1.227 0-2.293 0.281-3.199 0.84-0.508 0.32-0.856 0.668-1.043 1.043zm7.48 3.117c0.293-0.133 0.574-0.293 0.84-0.48 1.121-0.77 1.68-1.704 1.68-2.797 0-1.094-0.559-2.028-1.68-2.801-1.117-0.773-2.465-1.16-4.039-1.16-1.281 0-2.414 0.254-3.398 0.758 0.933-0.426 1.984-0.637 3.16-0.637 1.57 0 2.918 0.383 4.039 1.156 1.121 0.774 1.679 1.707 1.679 2.801s-0.558 2.027-1.679 2.801c-0.215 0.133-0.414 0.254-0.602 0.359z" inkscape:connector-curvature="0"/>
      <path id="path544" style="fill-rule:evenodd;fill:#4d1a03" d="m18.82 19.159 1.2 0.203 0.121-0.282c-0.403-0.132-0.84-0.214-1.321-0.242v0.321zm0.641-2c0.398 0.054 0.879 0.187 1.437 0.402l0.684-1.039c-0.59-0.297-1.227-0.496-1.922-0.602l-0.199 1.239z" inkscape:connector-curvature="0"/>
      <g id="g546">
        <g id="g548">
          <g id="g554">
            <path id="path562" style="fill-rule:evenodd;fill:url(#linearGradient556)" d="m20.379 20.28c-0.531-0.293-1.184-0.442-1.957-0.442-0.774 0-1.442 0.149-2 0.442-0.535 0.293-0.801 0.652-0.801 1.082 0 0.426 0.266 0.785 0.801 1.078 0.558 0.293 1.226 0.441 2 0.441 0.773 0 1.426-0.148 1.957-0.441 0.562-0.293 0.84-0.652 0.84-1.078 0-0.43-0.278-0.789-0.84-1.082z" inkscape:connector-curvature="0"/>
          </g>
        </g>
      </g>
      <g id="g564">
        <g id="g566">
          <g id="g572">
            <path id="path580" style="fill-rule:evenodd;fill:url(#linearGradient574)" d="m10.66 16.639c0.055-1.199 0.492-2.25 1.32-3.16l0.161-0.277c1.171-1.414 2.851-2.204 5.039-2.364 2.375-0.183 4.359 0.055 5.961 0.723 1.492 0.641 2.531 1.613 3.121 2.918 0.531 1.199 0.613 2.293 0.238 3.281 0 0.028-0.012 0.055-0.039 0.078-0.027 0.11-0.055 0.215-0.082 0.321 0.269-0.586 0.402-1.211 0.402-1.879v-0.399c-0.133-1.468-0.922-2.722-2.359-3.761-0.035-0.024-0.063-0.043-0.082-0.059 0.058 0.07 0.125 0.141 0.199 0.219-0.48-0.399-1.144-0.774-2-1.121-0.746-0.321-1.504-0.547-2.277-0.68-0.508-0.051-1.028-0.078-1.563-0.078h-0.277c-0.375 0.027-0.75 0.066-1.121 0.121-1.785 0.293-3.242 0.84-4.36 1.637l-1.16 1.121 0.559-0.641c-1.039 0.934-1.602 2.016-1.68 3.242-0.027 0.133-0.039 0.266-0.039 0.399s0.012 0.254 0.039 0.359z" inkscape:connector-curvature="0"/>
          </g>
        </g>
      </g>
      <path id="path582" style="fill-rule:evenodd;fill:#4a4b4c" d="m11.98 13.479c0.188-0.184 0.387-0.371 0.602-0.559 1.465-1.226 3.438-1.84 5.918-1.84 2.508 0 4.508 0.614 6 1.84 1.359 1.121 2.039 2.508 2.039 4.16v0.36l-0.039 0.199c0 0.082-0.012 0.149-0.039 0.199 0.027-0.023 0.039-0.05 0.039-0.078 0.375-0.988 0.293-2.082-0.238-3.281-0.59-1.305-1.629-2.277-3.121-2.918-1.602-0.668-3.586-0.906-5.961-0.723-2.188 0.16-3.868 0.95-5.039 2.364l-0.161 0.277z" inkscape:connector-curvature="0"/>
      <path id="path584" style="fill-rule:evenodd;fill:#e0622b" d="m13.699 21.202c-0.105-0.243-0.16-0.497-0.16-0.762 0-0.852 0.469-1.574 1.402-2.16 0.907-0.586 2.012-0.879 3.321-0.879 1.304 0 2.41 0.293 3.32 0.879 0.586 0.375 0.984 0.785 1.199 1.242-0.187-0.535-0.613-1.016-1.281-1.442-0.906-0.585-2.012-0.878-3.32-0.878-1.305 0-2.414 0.293-3.321 0.878-0.933 0.586-1.398 1.305-1.398 2.161 0 0.347 0.078 0.664 0.238 0.961zm-0.801-0.161c-0.425-0.562-0.636-1.203-0.636-1.921 0-1.172 0.586-2.188 1.758-3.04 1.175-0.855 2.601-1.281 4.281-1.281 1.652 0 3.078 0.426 4.281 1.281 0.504 0.372 0.906 0.774 1.199 1.2-0.293-0.508-0.734-0.973-1.32-1.399-1.176-0.828-2.602-1.242-4.281-1.242-1.653 0-3.078 0.414-4.282 1.242-1.171 0.852-1.757 1.879-1.757 3.078 0 0.774 0.254 1.469 0.757 2.082z" inkscape:connector-curvature="0"/>
      <g id="g586">
        <g id="g588">
          <g id="g594">
            <path id="path602" style="fill-rule:evenodd;fill:url(#linearGradient596)" d="m17.699 23.44c-0.961-0.078-1.801-0.348-2.519-0.801-0.879-0.559-1.321-1.226-1.321-2 0-0.398 0.121-0.773 0.36-1.117 0.187-0.375 0.535-0.723 1.043-1.043 0.906-0.559 1.972-0.84 3.199-0.84 1.254 0 2.332 0.281 3.238 0.84 0.508 0.32 0.867 0.668 1.082 1.043-0.215-0.457-0.613-0.867-1.199-1.242-0.91-0.586-2.016-0.879-3.32-0.879-1.309 0-2.414 0.293-3.321 0.879-0.933 0.586-1.402 1.308-1.402 2.16 0 0.265 0.055 0.519 0.16 0.762 0.215 0.531 0.629 1 1.242 1.398 0.348 0.215 0.731 0.387 1.161 0.52 0.48 0.187 1.011 0.293 1.597 0.32z" inkscape:connector-curvature="0"/>
          </g>
        </g>
      </g>
      <g id="g604">
        <g id="g606">
          <g id="g612">
            <path id="path624" style="fill-rule:evenodd;fill:url(#linearGradient614)" d="m24.34 12.061c0.019 0.016 0.047 0.035 0.082 0.059 1.437 1.039 2.226 2.293 2.359 3.761v-0.402c0-1.652-0.789-3.051-2.359-4.199-1.574-1.145-3.481-1.719-5.723-1.719-2.211 0-4.117 0.574-5.719 1.719-1.574 1.175-2.359 2.574-2.359 4.199 0 0.133 0.012 0.266 0.039 0.402 0.078-1.226 0.641-2.308 1.68-3.242l0.558-0.641c1.122-0.878 2.575-1.425 4.364-1.636 2.023-0.27 3.851-0.028 5.476 0.718 0.617 0.293 1.11 0.586 1.481 0.879h0.043c0.023 0.032 0.047 0.063 0.078 0.102zm-4.078-1.582c-0.614-0.078-1.231-0.106-1.84-0.078h0.277c0.535 0 1.055 0.027 1.563 0.078z" inkscape:connector-curvature="0"/>
          </g>
        </g>
      </g>
      <path id="path626" style="fill-rule:evenodd;fill:#cecfd1" d="m18.422 10.401c0.613-0.028 1.226 0 1.84 0.078 0.773 0.133 1.531 0.359 2.277 0.68 0.856 0.347 1.52 0.722 2 1.121-0.074-0.078-0.141-0.149-0.199-0.219-0.031-0.039-0.055-0.07-0.078-0.102h-0.043c-0.371-0.293-0.864-0.586-1.481-0.879-1.625-0.746-3.453-0.988-5.476-0.718-1.789 0.211-3.242 0.758-4.364 1.636l-1.117 1.282 1.16-1.121c1.118-0.797 2.575-1.344 4.36-1.637 0.371-0.055 0.746-0.094 1.121-0.121z" inkscape:connector-curvature="0"/>
    </g>
  </g>
<metadata><rdf:RDF><cc:Work><dc:format>image/svg+xml</dc:format><dc:type rdf:resource="http://purl.org/dc/dcmitype/StillImage"/><cc:license rdf:resource="http://creativecommons.org/licenses/publicdomain/"/><dc:publisher><cc:Agent rdf:about="http://openclipart.org/"><dc:title>Openclipart</dc:title></cc:Agent></dc:publisher></cc:Work><cc:License rdf:about="http://creativecommons.org/licenses/publicdomain/"><cc:permits rdf:resource="http://creativecommons.org/ns#Reproduction"/><cc:permits rdf:resource="http://creativecommons.org/ns#Distribution"/><cc:permits rdf:resource="http://creativecommons.org/ns#DerivativeWorks"/></cc:License></rdf:RDF></metadata></svg>
